<mxfile host="app.diagrams.net" modified="2023-02-18T16:03:00.004Z" agent="5.0 (Windows NT 10.0; Win64; x64) AppleWebKit/537.36 (KHTML, like Gecko) Chrome/90.0.4430.72 Safari/537.36" etag="Fj7HUlmpgAeKdXQ7PQuT" version="20.8.20" type="github" pages="26">
  <diagram id="LJy_pu7A4I2uJail81RI" name="two_stage">
    <mxGraphModel dx="2261" dy="764" grid="1" gridSize="10" guides="1" tooltips="1" connect="1" arrows="1" fold="1" page="1" pageScale="1" pageWidth="827" pageHeight="1169" math="1" shadow="0">
      <root>
        <mxCell id="8GwmJ0QFt16qu3Kt8CSN-0" />
        <mxCell id="8GwmJ0QFt16qu3Kt8CSN-1" parent="8GwmJ0QFt16qu3Kt8CSN-0" />
        <mxCell id="txwfmcT87UCatnFiz1Qt-0" value="" style="edgeStyle=orthogonalEdgeStyle;rounded=0;orthogonalLoop=1;jettySize=auto;html=1;entryX=0.5;entryY=0;entryDx=0;entryDy=0;fontSize=18;strokeWidth=3;" parent="8GwmJ0QFt16qu3Kt8CSN-1" source="txwfmcT87UCatnFiz1Qt-2" target="txwfmcT87UCatnFiz1Qt-11" edge="1">
          <mxGeometry relative="1" as="geometry">
            <mxPoint x="620" y="170" as="targetPoint" />
          </mxGeometry>
        </mxCell>
        <mxCell id="txwfmcT87UCatnFiz1Qt-1" style="edgeStyle=orthogonalEdgeStyle;rounded=0;orthogonalLoop=1;jettySize=auto;html=1;entryX=0.5;entryY=0;entryDx=0;entryDy=0;fontSize=18;strokeWidth=3;" parent="8GwmJ0QFt16qu3Kt8CSN-1" source="txwfmcT87UCatnFiz1Qt-2" target="txwfmcT87UCatnFiz1Qt-10" edge="1">
          <mxGeometry relative="1" as="geometry">
            <Array as="points">
              <mxPoint x="170" y="90" />
            </Array>
          </mxGeometry>
        </mxCell>
        <mxCell id="txwfmcT87UCatnFiz1Qt-2" value="$$\Delta_{ni}$$" style="ellipse;whiteSpace=wrap;html=1;fillColor=#bac8d3;strokeColor=#23445d;fontSize=18;" parent="8GwmJ0QFt16qu3Kt8CSN-1" vertex="1">
          <mxGeometry x="340" y="50" width="120" height="80" as="geometry" />
        </mxCell>
        <mxCell id="txwfmcT87UCatnFiz1Qt-3" style="rounded=0;orthogonalLoop=1;jettySize=auto;html=1;dashed=1;fontSize=18;strokeWidth=3;" parent="8GwmJ0QFt16qu3Kt8CSN-1" source="txwfmcT87UCatnFiz1Qt-4" target="txwfmcT87UCatnFiz1Qt-10" edge="1">
          <mxGeometry relative="1" as="geometry">
            <mxPoint x="143.21137502482884" y="397.8070328411586" as="targetPoint" />
          </mxGeometry>
        </mxCell>
        <mxCell id="txwfmcT87UCatnFiz1Qt-4" value="$$&lt;br&gt;(\theta_n,\tau_n)^T \sim MVN(\mu,\Sigma_{person})&lt;br style=&quot;font-size: 18px&quot;&gt;$$" style="ellipse;whiteSpace=wrap;html=1;fillColor=#dae8fc;strokeColor=#6c8ebf;fontSize=18;" parent="8GwmJ0QFt16qu3Kt8CSN-1" vertex="1">
          <mxGeometry x="-110" y="335" width="300" height="110" as="geometry" />
        </mxCell>
        <mxCell id="txwfmcT87UCatnFiz1Qt-5" style="edgeStyle=none;rounded=0;orthogonalLoop=1;jettySize=auto;html=1;dashed=1;entryX=0.592;entryY=1;entryDx=0;entryDy=0;entryPerimeter=0;fontSize=18;strokeWidth=3;" parent="8GwmJ0QFt16qu3Kt8CSN-1" source="txwfmcT87UCatnFiz1Qt-7" target="txwfmcT87UCatnFiz1Qt-10" edge="1">
          <mxGeometry relative="1" as="geometry">
            <mxPoint x="199.37581733622346" y="397.3527862278647" as="targetPoint" />
          </mxGeometry>
        </mxCell>
        <mxCell id="txwfmcT87UCatnFiz1Qt-7" value="$$a_i,b_i,c_i,\beta_i,\omega_i$$" style="ellipse;whiteSpace=wrap;html=1;fillColor=#dae8fc;strokeColor=#6c8ebf;fontSize=18;" parent="8GwmJ0QFt16qu3Kt8CSN-1" vertex="1">
          <mxGeometry x="230" y="365" width="150" height="80" as="geometry" />
        </mxCell>
        <mxCell id="txwfmcT87UCatnFiz1Qt-8" value="&lt;font style=&quot;font-size: 18px;&quot;&gt;1&lt;/font&gt;" style="text;html=1;strokeColor=none;fillColor=none;align=center;verticalAlign=middle;whiteSpace=wrap;rounded=0;strokeWidth=0;fontSize=18;" parent="8GwmJ0QFt16qu3Kt8CSN-1" vertex="1">
          <mxGeometry x="530" y="50" width="60" height="30" as="geometry" />
        </mxCell>
        <mxCell id="txwfmcT87UCatnFiz1Qt-9" value="&lt;font style=&quot;font-size: 18px;&quot;&gt;0&lt;/font&gt;" style="text;html=1;strokeColor=none;fillColor=none;align=center;verticalAlign=middle;whiteSpace=wrap;rounded=0;fontSize=18;" parent="8GwmJ0QFt16qu3Kt8CSN-1" vertex="1">
          <mxGeometry x="240" y="50" width="60" height="30" as="geometry" />
        </mxCell>
        <mxCell id="txwfmcT87UCatnFiz1Qt-10" value="$$P(Y_{ni})=c_{i}+\left(1-c_{i}\right) \frac{\exp \left[a_{i}\left(\theta_{n}-b_{i}\right)\right]}{1+\exp \left[a_{i}\left(\theta_{n}-b_{i}\right)\right]}&lt;br style=&quot;font-size: 16px&quot;&gt;\\&lt;br style=&quot;font-size: 16px&quot;&gt;log(T_{ni})\sim N(\beta_i-\tau_n,1/\omega_i^2)&lt;br style=&quot;font-size: 16px&quot;&gt;$$" style="rounded=1;whiteSpace=wrap;html=1;fillColor=#f8cecc;strokeColor=#b85450;fontSize=16;" parent="8GwmJ0QFt16qu3Kt8CSN-1" vertex="1">
          <mxGeometry x="-10" y="170" width="360" height="100" as="geometry" />
        </mxCell>
        <mxCell id="txwfmcT87UCatnFiz1Qt-11" value="$$P(Y_{ni})=d_i&lt;br style=&quot;font-size: 18px&quot;&gt;\\&lt;br style=&quot;font-size: 18px&quot;&gt;log(T_{ni})\sim N(\mu_c,\sigma_c^2)&lt;br style=&quot;font-size: 18px&quot;&gt;$$" style="rounded=1;whiteSpace=wrap;html=1;fillColor=#fad7ac;strokeColor=#b46504;fontSize=18;" parent="8GwmJ0QFt16qu3Kt8CSN-1" vertex="1">
          <mxGeometry x="480" y="180" width="360" height="90" as="geometry" />
        </mxCell>
      </root>
    </mxGraphModel>
  </diagram>
  <diagram id="B8IyKvxjue6BVCUxql87" name="CDMs">
    <mxGraphModel dx="1422" dy="762" grid="1" gridSize="10" guides="1" tooltips="1" connect="1" arrows="1" fold="1" page="1" pageScale="1" pageWidth="827" pageHeight="1169" math="1" shadow="0">
      <root>
        <mxCell id="0" />
        <mxCell id="1" parent="0" />
        <mxCell id="0bdPtCRiRYGDzQt_RmV7-4" value="" style="edgeStyle=orthogonalEdgeStyle;rounded=0;orthogonalLoop=1;jettySize=auto;html=1;entryX=0.5;entryY=0;entryDx=0;entryDy=0;fontSize=18;strokeWidth=3;" parent="1" source="0bdPtCRiRYGDzQt_RmV7-2" target="0bdPtCRiRYGDzQt_RmV7-24" edge="1">
          <mxGeometry relative="1" as="geometry">
            <mxPoint x="620" y="170" as="targetPoint" />
          </mxGeometry>
        </mxCell>
        <mxCell id="0bdPtCRiRYGDzQt_RmV7-23" style="edgeStyle=orthogonalEdgeStyle;rounded=0;orthogonalLoop=1;jettySize=auto;html=1;entryX=0.5;entryY=0;entryDx=0;entryDy=0;fontSize=18;strokeWidth=3;" parent="1" source="0bdPtCRiRYGDzQt_RmV7-2" target="0bdPtCRiRYGDzQt_RmV7-17" edge="1">
          <mxGeometry relative="1" as="geometry" />
        </mxCell>
        <mxCell id="0bdPtCRiRYGDzQt_RmV7-2" value="$$\Delta_{ij}$$" style="ellipse;whiteSpace=wrap;html=1;fillColor=#bac8d3;strokeColor=#23445d;fontSize=18;" parent="1" vertex="1">
          <mxGeometry x="340" y="50" width="120" height="80" as="geometry" />
        </mxCell>
        <mxCell id="0bdPtCRiRYGDzQt_RmV7-10" style="rounded=0;orthogonalLoop=1;jettySize=auto;html=1;dashed=1;fontSize=18;strokeWidth=3;" parent="1" source="0bdPtCRiRYGDzQt_RmV7-8" target="0bdPtCRiRYGDzQt_RmV7-17" edge="1">
          <mxGeometry relative="1" as="geometry">
            <mxPoint x="143.21137502482884" y="397.8070328411586" as="targetPoint" />
          </mxGeometry>
        </mxCell>
        <mxCell id="0bdPtCRiRYGDzQt_RmV7-8" value="$$&lt;br style=&quot;font-size: 18px&quot;&gt;\alpha_{i},\tau_i&amp;nbsp;&lt;br style=&quot;font-size: 18px&quot;&gt;$$" style="ellipse;whiteSpace=wrap;html=1;fillColor=#dae8fc;strokeColor=#6c8ebf;fontSize=18;" parent="1" vertex="1">
          <mxGeometry x="40" y="350" width="150" height="80" as="geometry" />
        </mxCell>
        <mxCell id="0bdPtCRiRYGDzQt_RmV7-12" style="edgeStyle=none;rounded=0;orthogonalLoop=1;jettySize=auto;html=1;dashed=1;entryX=0.592;entryY=1;entryDx=0;entryDy=0;entryPerimeter=0;fontSize=18;strokeWidth=3;" parent="1" source="0bdPtCRiRYGDzQt_RmV7-11" target="0bdPtCRiRYGDzQt_RmV7-17" edge="1">
          <mxGeometry relative="1" as="geometry">
            <mxPoint x="199.37581733622346" y="397.3527862278647" as="targetPoint" />
          </mxGeometry>
        </mxCell>
        <mxCell id="0bdPtCRiRYGDzQt_RmV7-27" style="rounded=0;orthogonalLoop=1;jettySize=auto;html=1;exitX=1;exitY=0;exitDx=0;exitDy=0;entryX=0.363;entryY=1.002;entryDx=0;entryDy=0;entryPerimeter=0;fontSize=18;dashed=1;strokeWidth=3;" parent="1" source="0bdPtCRiRYGDzQt_RmV7-11" target="0bdPtCRiRYGDzQt_RmV7-24" edge="1">
          <mxGeometry relative="1" as="geometry" />
        </mxCell>
        <mxCell id="0bdPtCRiRYGDzQt_RmV7-11" value="$$\gamma_j,\beta_j,\omega_j,q_j$$" style="ellipse;whiteSpace=wrap;html=1;fillColor=#dae8fc;strokeColor=#6c8ebf;fontSize=18;" parent="1" vertex="1">
          <mxGeometry x="310" y="350" width="150" height="80" as="geometry" />
        </mxCell>
        <mxCell id="0bdPtCRiRYGDzQt_RmV7-13" value="&lt;font style=&quot;font-size: 18px;&quot;&gt;1&lt;/font&gt;" style="text;html=1;strokeColor=none;fillColor=none;align=center;verticalAlign=middle;whiteSpace=wrap;rounded=0;strokeWidth=0;fontSize=18;" parent="1" vertex="1">
          <mxGeometry x="530" y="60" width="60" height="30" as="geometry" />
        </mxCell>
        <mxCell id="0bdPtCRiRYGDzQt_RmV7-14" value="&lt;font style=&quot;font-size: 18px;&quot;&gt;0&lt;/font&gt;" style="text;html=1;strokeColor=none;fillColor=none;align=center;verticalAlign=middle;whiteSpace=wrap;rounded=0;fontSize=18;" parent="1" vertex="1">
          <mxGeometry x="230" y="60" width="60" height="30" as="geometry" />
        </mxCell>
        <mxCell id="0bdPtCRiRYGDzQt_RmV7-17" value="$$P(Y_{ij})=f(\alpha_{i1},...,\alpha_{ik},q_j&lt;br style=&quot;font-size: 18px&quot;&gt;,\gamma_j)&lt;br style=&quot;font-size: 18px&quot;&gt;\\&lt;br style=&quot;font-size: 18px&quot;&gt;log(T_{ij})\sim N(\beta_j-\tau_i,1/\omega_j^2)&lt;br style=&quot;font-size: 18px&quot;&gt;$$" style="rounded=1;whiteSpace=wrap;html=1;fillColor=#f8cecc;strokeColor=#b85450;fontSize=18;" parent="1" vertex="1">
          <mxGeometry x="30" y="180" width="300" height="90" as="geometry" />
        </mxCell>
        <mxCell id="0bdPtCRiRYGDzQt_RmV7-24" value="$$P(Y_{ij})=f(\alpha_{i1}=0,...,\alpha_{ik}=0&lt;br style=&quot;font-size: 18px&quot;&gt;,\gamma_j)&lt;br style=&quot;font-size: 18px&quot;&gt;\\&lt;br style=&quot;font-size: 18px&quot;&gt;log(T_{ij})\sim N(\mu_c,\sigma_c^2)&lt;br style=&quot;font-size: 18px&quot;&gt;$$" style="rounded=1;whiteSpace=wrap;html=1;fillColor=#fad7ac;strokeColor=#b46504;fontSize=18;" parent="1" vertex="1">
          <mxGeometry x="480" y="180" width="360" height="90" as="geometry" />
        </mxCell>
        <mxCell id="0bdPtCRiRYGDzQt_RmV7-29" value="1.\(\Delta_{ij}\)表示是否为异常作答。&lt;br style=&quot;font-size: 19px&quot;&gt;2.其中\(i\)代表题目，\(j\)代表学生，\(k\)代&lt;br style=&quot;font-size: 19px&quot;&gt;&amp;nbsp; &amp;nbsp;表属性,\(\gamma\)代表作答精度模型题目参数。&lt;br style=&quot;font-size: 19px&quot;&gt;3.\(f(·)\)可以视为任何一个认知诊断模型。&lt;br style=&quot;font-size: 19px&quot;&gt;&lt;div style=&quot;font-size: 19px&quot;&gt;&lt;span style=&quot;font-size: 19px&quot;&gt;4.异常作答学生的作答正确率与&lt;/span&gt;&lt;span style=&quot;font-size: 19px&quot;&gt;完全没有&lt;/span&gt;&lt;/div&gt;&lt;div style=&quot;font-size: 19px&quot;&gt;&lt;span style=&quot;font-size: 19px&quot;&gt;&amp;nbsp; &amp;nbsp;掌握任何属性的学生作答正确概率相同。&lt;/span&gt;&lt;/div&gt;" style="text;html=1;align=left;verticalAlign=middle;resizable=0;points=[];autosize=1;strokeColor=none;fillColor=none;fontSize=19;" parent="1" vertex="1">
          <mxGeometry x="530" y="320" width="430" height="140" as="geometry" />
        </mxCell>
      </root>
    </mxGraphModel>
  </diagram>
  <diagram id="FWkf_x42vwr2ZumTKuEZ" name="GMCDM">
    <mxGraphModel dx="2249" dy="762" grid="1" gridSize="10" guides="1" tooltips="1" connect="1" arrows="1" fold="1" page="1" pageScale="1" pageWidth="827" pageHeight="1169" math="1" shadow="0">
      <root>
        <mxCell id="JP-xn_oP1ovshD3rxm0G-0" />
        <mxCell id="JP-xn_oP1ovshD3rxm0G-1" parent="JP-xn_oP1ovshD3rxm0G-0" />
        <mxCell id="nQ0N6PzQBZnuPzoT9NxU-0" value="" style="edgeStyle=orthogonalEdgeStyle;rounded=0;orthogonalLoop=1;jettySize=auto;html=1;fontSize=18;strokeWidth=3;" parent="JP-xn_oP1ovshD3rxm0G-1" source="nQ0N6PzQBZnuPzoT9NxU-2" target="nQ0N6PzQBZnuPzoT9NxU-10" edge="1">
          <mxGeometry relative="1" as="geometry">
            <mxPoint x="620" y="170" as="targetPoint" />
            <Array as="points">
              <mxPoint x="210" y="90" />
            </Array>
          </mxGeometry>
        </mxCell>
        <mxCell id="nQ0N6PzQBZnuPzoT9NxU-1" style="edgeStyle=orthogonalEdgeStyle;rounded=0;orthogonalLoop=1;jettySize=auto;html=1;fontSize=18;strokeWidth=3;" parent="JP-xn_oP1ovshD3rxm0G-1" source="nQ0N6PzQBZnuPzoT9NxU-2" target="nQ0N6PzQBZnuPzoT9NxU-13" edge="1">
          <mxGeometry relative="1" as="geometry">
            <mxPoint x="180" y="200" as="targetPoint" />
          </mxGeometry>
        </mxCell>
        <mxCell id="nQ0N6PzQBZnuPzoT9NxU-2" value="&lt;span style=&quot;font-size: 19px&quot;&gt;\(\phi_j\)&lt;/span&gt;" style="ellipse;whiteSpace=wrap;html=1;fillColor=#bac8d3;strokeColor=#23445d;fontSize=18;" parent="JP-xn_oP1ovshD3rxm0G-1" vertex="1">
          <mxGeometry x="340" y="50" width="120" height="80" as="geometry" />
        </mxCell>
        <mxCell id="nQ0N6PzQBZnuPzoT9NxU-3" style="rounded=0;orthogonalLoop=1;jettySize=auto;html=1;dashed=1;fontSize=18;strokeWidth=3;" parent="JP-xn_oP1ovshD3rxm0G-1" source="nQ0N6PzQBZnuPzoT9NxU-4" target="nQ0N6PzQBZnuPzoT9NxU-10" edge="1">
          <mxGeometry relative="1" as="geometry">
            <mxPoint x="143.21137502482884" y="397.8070328411586" as="targetPoint" />
          </mxGeometry>
        </mxCell>
        <mxCell id="nQ0N6PzQBZnuPzoT9NxU-4" value="$$&lt;br style=&quot;font-size: 15px&quot;&gt;\begin{pmatrix}\theta_i \\ \tau_i \end{pmatrix}\sim MVN(\mu_{person},\Sigma_{person})&lt;br&gt;\\&lt;br&gt;logit(\alpha_{ik})=\lambda_{0k}+lambda_k \theta_i&lt;br style=&quot;font-size: 15px&quot;&gt;$$" style="ellipse;whiteSpace=wrap;html=1;fillColor=#dae8fc;strokeColor=#6c8ebf;fontSize=15;" parent="JP-xn_oP1ovshD3rxm0G-1" vertex="1">
          <mxGeometry x="-40" y="560" width="270" height="130" as="geometry" />
        </mxCell>
        <mxCell id="nQ0N6PzQBZnuPzoT9NxU-5" style="edgeStyle=none;rounded=0;orthogonalLoop=1;jettySize=auto;html=1;dashed=1;entryX=0.592;entryY=1;entryDx=0;entryDy=0;entryPerimeter=0;fontSize=18;strokeWidth=3;exitX=0.5;exitY=0;exitDx=0;exitDy=0;" parent="JP-xn_oP1ovshD3rxm0G-1" source="nQ0N6PzQBZnuPzoT9NxU-7" target="nQ0N6PzQBZnuPzoT9NxU-10" edge="1">
          <mxGeometry relative="1" as="geometry">
            <mxPoint x="199.37581733622346" y="397.3527862278647" as="targetPoint" />
          </mxGeometry>
        </mxCell>
        <mxCell id="nQ0N6PzQBZnuPzoT9NxU-7" value="$$(\xi_j,\delta_j,\beta_j) \sim MVN(\mu_{item},\Sigma_{item})&lt;br&gt;\\&lt;br&gt;q_j$$" style="ellipse;whiteSpace=wrap;html=1;fillColor=#dae8fc;strokeColor=#6c8ebf;fontSize=18;align=center;verticalAlign=bottom;" parent="JP-xn_oP1ovshD3rxm0G-1" vertex="1">
          <mxGeometry x="261.5" y="565" width="305" height="120" as="geometry" />
        </mxCell>
        <mxCell id="nQ0N6PzQBZnuPzoT9NxU-8" value="&lt;font style=&quot;font-size: 18px;&quot;&gt;1&lt;/font&gt;" style="text;html=1;strokeColor=none;fillColor=none;align=center;verticalAlign=middle;whiteSpace=wrap;rounded=0;strokeWidth=0;fontSize=18;" parent="JP-xn_oP1ovshD3rxm0G-1" vertex="1">
          <mxGeometry x="550" y="50" width="60" height="30" as="geometry" />
        </mxCell>
        <mxCell id="nQ0N6PzQBZnuPzoT9NxU-9" value="&lt;font style=&quot;font-size: 18px;&quot;&gt;0&lt;/font&gt;" style="text;html=1;strokeColor=none;fillColor=none;align=center;verticalAlign=middle;whiteSpace=wrap;rounded=0;fontSize=18;" parent="JP-xn_oP1ovshD3rxm0G-1" vertex="1">
          <mxGeometry x="384" y="230" width="60" height="30" as="geometry" />
        </mxCell>
        <mxCell id="nQ0N6PzQBZnuPzoT9NxU-10" value="$$P(Y_{ij})=f(\alpha_{i1},...,\alpha_{ik}&lt;br style=&quot;font-size: 18px&quot;&gt;,q_j,\xi_j,\delta_j)&lt;br style=&quot;font-size: 18px&quot;&gt;\\&lt;br style=&quot;font-size: 18px&quot;&gt;log(T_{ij})\sim N(\beta_j-\tau_i,1/\omega_j^2)&lt;br style=&quot;font-size: 18px&quot;&gt;$$" style="rounded=1;whiteSpace=wrap;html=1;fillColor=#f8cecc;strokeColor=#b85450;fontSize=18;" parent="JP-xn_oP1ovshD3rxm0G-1" vertex="1">
          <mxGeometry x="60" y="380" width="320" height="120" as="geometry" />
        </mxCell>
        <mxCell id="nQ0N6PzQBZnuPzoT9NxU-11" value="$$P(Y_{ij})=d_j&lt;br style=&quot;font-size: 18px&quot;&gt;\\&lt;br style=&quot;font-size: 18px&quot;&gt;log(T_{ij})\sim N(\mu_c,\sigma_c^2)&lt;br style=&quot;font-size: 18px&quot;&gt;$$" style="rounded=1;whiteSpace=wrap;html=1;fillColor=#fad7ac;strokeColor=#b46504;fontSize=18;" parent="JP-xn_oP1ovshD3rxm0G-1" vertex="1">
          <mxGeometry x="460" y="380" width="360" height="120" as="geometry" />
        </mxCell>
        <mxCell id="nQ0N6PzQBZnuPzoT9NxU-12" value="1.\(\Delta_{ij}\)表示是否为异常作答。\(\phi_j\)代表题目妥协状态。&lt;br style=&quot;font-size: 19px;&quot;&gt;2.其中\(i\)代表题目，\(j\)代表学生，\(k\)代表属性。&lt;br style=&quot;font-size: 19px;&quot;&gt;3.\(f(·)\)为重参数DINA模型。&lt;br style=&quot;font-size: 19px;&quot;&gt;&lt;div style=&quot;font-size: 19px;&quot;&gt;&lt;span style=&quot;font-size: 19px;&quot;&gt;4.\(d_j\)代表异常作答学生在\(j\)题的作答正确率。&lt;br style=&quot;font-size: 19px;&quot;&gt;&lt;/span&gt;&lt;/div&gt;" style="text;html=1;align=left;verticalAlign=middle;resizable=0;points=[];autosize=1;strokeColor=none;fillColor=none;fontSize=19;" parent="JP-xn_oP1ovshD3rxm0G-1" vertex="1">
          <mxGeometry x="590" y="530" width="570" height="100" as="geometry" />
        </mxCell>
        <mxCell id="nQ0N6PzQBZnuPzoT9NxU-14" style="edgeStyle=orthogonalEdgeStyle;rounded=0;orthogonalLoop=1;jettySize=auto;html=1;fontSize=19;entryX=0.75;entryY=0;entryDx=0;entryDy=0;strokeWidth=3;" parent="JP-xn_oP1ovshD3rxm0G-1" source="nQ0N6PzQBZnuPzoT9NxU-13" target="nQ0N6PzQBZnuPzoT9NxU-10" edge="1">
          <mxGeometry relative="1" as="geometry" />
        </mxCell>
        <mxCell id="nQ0N6PzQBZnuPzoT9NxU-15" style="edgeStyle=none;rounded=0;orthogonalLoop=1;jettySize=auto;html=1;fontSize=19;strokeWidth=3;" parent="JP-xn_oP1ovshD3rxm0G-1" source="nQ0N6PzQBZnuPzoT9NxU-13" target="nQ0N6PzQBZnuPzoT9NxU-11" edge="1">
          <mxGeometry relative="1" as="geometry">
            <mxPoint x="670" y="370" as="targetPoint" />
          </mxGeometry>
        </mxCell>
        <mxCell id="nQ0N6PzQBZnuPzoT9NxU-13" value="&lt;span style=&quot;font-size: 18px&quot;&gt;$$\Delta_{ij}$$&lt;/span&gt;" style="ellipse;whiteSpace=wrap;html=1;fontSize=19;align=center;fillColor=#bac8d3;strokeColor=#23445d;" parent="JP-xn_oP1ovshD3rxm0G-1" vertex="1">
          <mxGeometry x="580" y="220" width="120" height="80" as="geometry" />
        </mxCell>
        <mxCell id="nQ0N6PzQBZnuPzoT9NxU-18" value="&lt;font style=&quot;font-size: 18px;&quot;&gt;1&lt;/font&gt;" style="text;html=1;strokeColor=none;fillColor=none;align=center;verticalAlign=middle;whiteSpace=wrap;rounded=0;strokeWidth=0;fontSize=18;" parent="JP-xn_oP1ovshD3rxm0G-1" vertex="1">
          <mxGeometry x="600" y="320" width="60" height="30" as="geometry" />
        </mxCell>
        <mxCell id="nQ0N6PzQBZnuPzoT9NxU-20" value="&lt;font style=&quot;font-size: 18px;&quot;&gt;0&lt;/font&gt;" style="text;html=1;strokeColor=none;fillColor=none;align=center;verticalAlign=middle;whiteSpace=wrap;rounded=0;fontSize=18;" parent="JP-xn_oP1ovshD3rxm0G-1" vertex="1">
          <mxGeometry x="260" y="50" width="60" height="30" as="geometry" />
        </mxCell>
      </root>
    </mxGraphModel>
  </diagram>
  <diagram id="RF3AJ6Xfoz24Z_-B199E" name="MMCDM-structure">
    <mxGraphModel dx="2249" dy="706" grid="1" gridSize="10" guides="1" tooltips="1" connect="1" arrows="1" fold="1" page="1" pageScale="1" pageWidth="827" pageHeight="1169" math="1" shadow="0">
      <root>
        <mxCell id="wKqAh3b3vICO6l1XnLXj-0" />
        <mxCell id="wKqAh3b3vICO6l1XnLXj-1" parent="wKqAh3b3vICO6l1XnLXj-0" />
        <mxCell id="wKqAh3b3vICO6l1XnLXj-3" style="edgeStyle=orthogonalEdgeStyle;rounded=0;orthogonalLoop=1;jettySize=auto;html=1;fontSize=18;fontColor=#000000;fontStyle=1" parent="wKqAh3b3vICO6l1XnLXj-1" source="wKqAh3b3vICO6l1XnLXj-2" target="wKqAh3b3vICO6l1XnLXj-4" edge="1">
          <mxGeometry relative="1" as="geometry">
            <mxPoint x="190" y="330" as="targetPoint" />
            <mxPoint x="270" y="190" as="sourcePoint" />
          </mxGeometry>
        </mxCell>
        <mxCell id="wKqAh3b3vICO6l1XnLXj-5" style="edgeStyle=orthogonalEdgeStyle;rounded=0;orthogonalLoop=1;jettySize=auto;html=1;fontSize=18;fontColor=#000000;fontStyle=1" parent="wKqAh3b3vICO6l1XnLXj-1" source="wKqAh3b3vICO6l1XnLXj-2" target="wKqAh3b3vICO6l1XnLXj-6" edge="1">
          <mxGeometry relative="1" as="geometry">
            <mxPoint x="570" y="300" as="targetPoint" />
          </mxGeometry>
        </mxCell>
        <mxCell id="wKqAh3b3vICO6l1XnLXj-2" value="&lt;font style=&quot;font-size: 18px&quot; color=&quot;#000000&quot;&gt;题目是否泄露&lt;br&gt;（节点1\(\phi_i\)）&lt;/font&gt;" style="ellipse;whiteSpace=wrap;html=1;fontSize=18;fontStyle=1;fillColor=#bac8d3;strokeColor=#23445d;" parent="wKqAh3b3vICO6l1XnLXj-1" vertex="1">
          <mxGeometry x="320" y="150" width="160" height="80" as="geometry" />
        </mxCell>
        <mxCell id="wKqAh3b3vICO6l1XnLXj-7" style="edgeStyle=orthogonalEdgeStyle;rounded=0;orthogonalLoop=1;jettySize=auto;html=1;fontSize=18;fontColor=#000000;fontStyle=1" parent="wKqAh3b3vICO6l1XnLXj-1" source="wKqAh3b3vICO6l1XnLXj-4" target="wKqAh3b3vICO6l1XnLXj-8" edge="1">
          <mxGeometry relative="1" as="geometry">
            <mxPoint x="60" y="440" as="targetPoint" />
          </mxGeometry>
        </mxCell>
        <mxCell id="wKqAh3b3vICO6l1XnLXj-9" style="edgeStyle=orthogonalEdgeStyle;rounded=0;orthogonalLoop=1;jettySize=auto;html=1;fontSize=18;fontColor=#000000;fontStyle=1;entryX=0.5;entryY=0;entryDx=0;entryDy=0;" parent="wKqAh3b3vICO6l1XnLXj-1" source="wKqAh3b3vICO6l1XnLXj-4" target="wKqAh3b3vICO6l1XnLXj-20" edge="1">
          <mxGeometry relative="1" as="geometry">
            <mxPoint x="314" y="410" as="targetPoint" />
            <Array as="points">
              <mxPoint x="330" y="330" />
            </Array>
          </mxGeometry>
        </mxCell>
        <mxCell id="wKqAh3b3vICO6l1XnLXj-4" value="是否为快速猜测（节点2\(\Delta_{ni}\)）" style="ellipse;whiteSpace=wrap;html=1;fontSize=18;fontStyle=1;fillColor=#bac8d3;strokeColor=#23445d;" parent="wKqAh3b3vICO6l1XnLXj-1" vertex="1">
          <mxGeometry x="130" y="290" width="140" height="90" as="geometry" />
        </mxCell>
        <mxCell id="wKqAh3b3vICO6l1XnLXj-11" style="edgeStyle=orthogonalEdgeStyle;rounded=0;orthogonalLoop=1;jettySize=auto;html=1;fontSize=18;fontColor=#000000;fontStyle=1;entryX=0.5;entryY=0;entryDx=0;entryDy=0;" parent="wKqAh3b3vICO6l1XnLXj-1" source="wKqAh3b3vICO6l1XnLXj-6" target="wKqAh3b3vICO6l1XnLXj-14" edge="1">
          <mxGeometry relative="1" as="geometry">
            <mxPoint x="490" y="400" as="targetPoint" />
          </mxGeometry>
        </mxCell>
        <mxCell id="wKqAh3b3vICO6l1XnLXj-13" style="edgeStyle=orthogonalEdgeStyle;rounded=0;orthogonalLoop=1;jettySize=auto;html=1;fontSize=18;fontColor=#000000;fontStyle=1;entryX=0.5;entryY=0;entryDx=0;entryDy=0;" parent="wKqAh3b3vICO6l1XnLXj-1" source="wKqAh3b3vICO6l1XnLXj-6" target="wKqAh3b3vICO6l1XnLXj-18" edge="1">
          <mxGeometry relative="1" as="geometry">
            <mxPoint x="850" y="390" as="targetPoint" />
          </mxGeometry>
        </mxCell>
        <mxCell id="wKqAh3b3vICO6l1XnLXj-6" value="学生是否&lt;br&gt;获取题目&lt;br&gt;泄露信息&lt;br&gt;（节点3\(\kappa_{ni}\)）" style="ellipse;whiteSpace=wrap;html=1;fontSize=18;fontStyle=1;fillColor=#bac8d3;strokeColor=#23445d;" parent="wKqAh3b3vICO6l1XnLXj-1" vertex="1">
          <mxGeometry x="640" y="290" width="140" height="110" as="geometry" />
        </mxCell>
        <mxCell id="wKqAh3b3vICO6l1XnLXj-8" value="解题行为" style="ellipse;whiteSpace=wrap;html=1;fontSize=18;fontStyle=1;fillColor=#ffe6cc;strokeColor=#d79b00;" parent="wKqAh3b3vICO6l1XnLXj-1" vertex="1">
          <mxGeometry x="-20" y="400" width="120" height="80" as="geometry" />
        </mxCell>
        <mxCell id="wKqAh3b3vICO6l1XnLXj-12" value="解题行为" style="ellipse;whiteSpace=wrap;html=1;fontSize=18;fontStyle=1;fillColor=#ffe6cc;strokeColor=#d79b00;" parent="wKqAh3b3vICO6l1XnLXj-1" vertex="1">
          <mxGeometry x="374" y="530" width="120" height="80" as="geometry" />
        </mxCell>
        <mxCell id="0P-qUHpmki78FuFSKIDN-0" style="edgeStyle=orthogonalEdgeStyle;rounded=0;orthogonalLoop=1;jettySize=auto;html=1;entryX=0.5;entryY=0;entryDx=0;entryDy=0;" parent="wKqAh3b3vICO6l1XnLXj-1" source="wKqAh3b3vICO6l1XnLXj-14" target="wKqAh3b3vICO6l1XnLXj-12" edge="1">
          <mxGeometry relative="1" as="geometry">
            <Array as="points">
              <mxPoint x="434" y="440" />
            </Array>
          </mxGeometry>
        </mxCell>
        <mxCell id="0P-qUHpmki78FuFSKIDN-1" style="edgeStyle=orthogonalEdgeStyle;rounded=0;orthogonalLoop=1;jettySize=auto;html=1;" parent="wKqAh3b3vICO6l1XnLXj-1" source="wKqAh3b3vICO6l1XnLXj-14" target="wKqAh3b3vICO6l1XnLXj-16" edge="1">
          <mxGeometry relative="1" as="geometry">
            <Array as="points">
              <mxPoint x="690" y="440" />
            </Array>
          </mxGeometry>
        </mxCell>
        <mxCell id="wKqAh3b3vICO6l1XnLXj-14" value="是否为&lt;br&gt;快速猜测&lt;br&gt;（节点4\(\Delta_{ni}\)）" style="ellipse;whiteSpace=wrap;html=1;fontSize=18;fontStyle=1;fillColor=#bac8d3;strokeColor=#23445d;" parent="wKqAh3b3vICO6l1XnLXj-1" vertex="1">
          <mxGeometry x="480" y="400" width="140" height="80" as="geometry" />
        </mxCell>
        <mxCell id="wKqAh3b3vICO6l1XnLXj-16" value="快速猜测" style="ellipse;whiteSpace=wrap;html=1;fontSize=18;fontStyle=1;fillColor=#d5e8d4;strokeColor=#82b366;" parent="wKqAh3b3vICO6l1XnLXj-1" vertex="1">
          <mxGeometry x="630" y="530" width="120" height="80" as="geometry" />
        </mxCell>
        <mxCell id="wKqAh3b3vICO6l1XnLXj-18" value="题目预知" style="ellipse;whiteSpace=wrap;html=1;fontSize=18;fontStyle=1;fillColor=#e1d5e7;strokeColor=#9673a6;" parent="wKqAh3b3vICO6l1XnLXj-1" vertex="1">
          <mxGeometry x="810" y="390" width="120" height="80" as="geometry" />
        </mxCell>
        <mxCell id="wKqAh3b3vICO6l1XnLXj-20" value="快速猜测" style="ellipse;whiteSpace=wrap;html=1;fontSize=18;fontStyle=1;fillColor=#d5e8d4;strokeColor=#82b366;" parent="wKqAh3b3vICO6l1XnLXj-1" vertex="1">
          <mxGeometry x="270" y="400" width="120" height="80" as="geometry" />
        </mxCell>
        <mxCell id="wKqAh3b3vICO6l1XnLXj-21" value="是" style="text;html=1;strokeColor=none;fillColor=none;align=center;verticalAlign=middle;whiteSpace=wrap;rounded=0;fontSize=18;fontColor=#000000;fontStyle=1" parent="wKqAh3b3vICO6l1XnLXj-1" vertex="1">
          <mxGeometry x="520" y="160" width="60" height="30" as="geometry" />
        </mxCell>
        <mxCell id="wKqAh3b3vICO6l1XnLXj-22" value="否" style="text;html=1;strokeColor=none;fillColor=none;align=center;verticalAlign=middle;whiteSpace=wrap;rounded=0;fontSize=18;fontColor=#000000;fontStyle=1" parent="wKqAh3b3vICO6l1XnLXj-1" vertex="1">
          <mxGeometry x="434" y="415" width="60" height="30" as="geometry" />
        </mxCell>
        <mxCell id="wKqAh3b3vICO6l1XnLXj-23" value="是" style="text;html=1;strokeColor=none;fillColor=none;align=center;verticalAlign=middle;whiteSpace=wrap;rounded=0;fontSize=18;fontColor=#000000;fontStyle=1" parent="wKqAh3b3vICO6l1XnLXj-1" vertex="1">
          <mxGeometry x="270" y="300" width="60" height="30" as="geometry" />
        </mxCell>
        <mxCell id="wKqAh3b3vICO6l1XnLXj-24" value="否" style="text;html=1;strokeColor=none;fillColor=none;align=center;verticalAlign=middle;whiteSpace=wrap;rounded=0;fontSize=18;fontColor=#000000;fontStyle=1" parent="wKqAh3b3vICO6l1XnLXj-1" vertex="1">
          <mxGeometry x="220" y="160" width="60" height="30" as="geometry" />
        </mxCell>
        <mxCell id="wKqAh3b3vICO6l1XnLXj-25" value="否" style="text;html=1;strokeColor=none;fillColor=none;align=center;verticalAlign=middle;whiteSpace=wrap;rounded=0;fontSize=18;fontColor=#000000;fontStyle=1" parent="wKqAh3b3vICO6l1XnLXj-1" vertex="1">
          <mxGeometry x="50" y="300" width="60" height="30" as="geometry" />
        </mxCell>
        <mxCell id="wKqAh3b3vICO6l1XnLXj-26" value="否" style="text;html=1;strokeColor=none;fillColor=none;align=center;verticalAlign=middle;whiteSpace=wrap;rounded=0;fontSize=18;fontColor=#000000;fontStyle=1" parent="wKqAh3b3vICO6l1XnLXj-1" vertex="1">
          <mxGeometry x="580" y="310" width="60" height="30" as="geometry" />
        </mxCell>
        <mxCell id="0P-qUHpmki78FuFSKIDN-2" value="是" style="text;html=1;strokeColor=none;fillColor=none;align=center;verticalAlign=middle;whiteSpace=wrap;rounded=0;fontSize=18;fontColor=#000000;fontStyle=1" parent="wKqAh3b3vICO6l1XnLXj-1" vertex="1">
          <mxGeometry x="620" y="415" width="60" height="30" as="geometry" />
        </mxCell>
        <mxCell id="0P-qUHpmki78FuFSKIDN-3" value="是" style="text;html=1;strokeColor=none;fillColor=none;align=center;verticalAlign=middle;whiteSpace=wrap;rounded=0;fontSize=18;fontColor=#000000;fontStyle=1" parent="wKqAh3b3vICO6l1XnLXj-1" vertex="1">
          <mxGeometry x="790" y="310" width="60" height="30" as="geometry" />
        </mxCell>
        <mxCell id="gALpKagC9f9YT7bZQb2z-1" style="rounded=0;orthogonalLoop=1;jettySize=auto;html=1;entryX=1;entryY=0;entryDx=0;entryDy=0;fontSize=18;strokeWidth=2;dashed=1;" parent="wKqAh3b3vICO6l1XnLXj-1" source="gALpKagC9f9YT7bZQb2z-0" target="wKqAh3b3vICO6l1XnLXj-6" edge="1">
          <mxGeometry relative="1" as="geometry" />
        </mxCell>
        <mxCell id="gALpKagC9f9YT7bZQb2z-0" value="题目泄露程度\(\upsilon_i\)" style="ellipse;whiteSpace=wrap;html=1;fontSize=18;fontStyle=1;fillColor=#dae8fc;strokeColor=#6c8ebf;" parent="wKqAh3b3vICO6l1XnLXj-1" vertex="1">
          <mxGeometry x="730" y="180" width="200" height="100" as="geometry" />
        </mxCell>
      </root>
    </mxGraphModel>
  </diagram>
  <diagram id="vX41orqGzxHWf6tVuruA" name="mersure model">
    <mxGraphModel dx="1422" dy="762" grid="1" gridSize="10" guides="1" tooltips="1" connect="1" arrows="1" fold="1" page="1" pageScale="1" pageWidth="827" pageHeight="1169" math="1" shadow="0">
      <root>
        <mxCell id="CHAzs0C8gNUh2aI-VoaO-0" />
        <mxCell id="CHAzs0C8gNUh2aI-VoaO-1" parent="CHAzs0C8gNUh2aI-VoaO-0" />
        <mxCell id="KhFvExZsdSrS-LV7KKnN-3" style="edgeStyle=none;rounded=0;orthogonalLoop=1;jettySize=auto;html=1;entryX=0.368;entryY=1.026;entryDx=0;entryDy=0;entryPerimeter=0;fontSize=18;fontColor=#000000;strokeWidth=3;dashed=1;fontStyle=1" parent="CHAzs0C8gNUh2aI-VoaO-1" source="KhFvExZsdSrS-LV7KKnN-4" target="KhFvExZsdSrS-LV7KKnN-27" edge="1">
          <mxGeometry relative="1" as="geometry" />
        </mxCell>
        <mxCell id="KhFvExZsdSrS-LV7KKnN-4" value="$$&lt;br style=&quot;font-size: 15px&quot;&gt;\begin{pmatrix}\theta_n \\ \tau_n \end{pmatrix}\sim MVN(\mu_{person},\Sigma_{person})&lt;br&gt;\\&lt;br&gt;logit(\alpha_{nk})=\lambda_{0k}+\lambda_k \theta_n&lt;br style=&quot;font-size: 15px&quot;&gt;$$" style="ellipse;whiteSpace=wrap;html=1;fillColor=#dae8fc;strokeColor=#6c8ebf;fontSize=15;fontStyle=1" parent="CHAzs0C8gNUh2aI-VoaO-1" vertex="1">
          <mxGeometry x="134" y="830" width="280" height="130" as="geometry" />
        </mxCell>
        <mxCell id="KhFvExZsdSrS-LV7KKnN-5" style="edgeStyle=none;rounded=0;orthogonalLoop=1;jettySize=auto;html=1;dashed=1;fontSize=18;fontColor=#000000;strokeWidth=3;fontStyle=1" parent="CHAzs0C8gNUh2aI-VoaO-1" target="KhFvExZsdSrS-LV7KKnN-41" edge="1">
          <mxGeometry relative="1" as="geometry">
            <mxPoint x="681" y="750" as="targetPoint" />
            <mxPoint x="622.0932842163224" y="855.1995784018357" as="sourcePoint" />
          </mxGeometry>
        </mxCell>
        <mxCell id="KhFvExZsdSrS-LV7KKnN-6" style="edgeStyle=none;rounded=0;orthogonalLoop=1;jettySize=auto;html=1;entryX=1;entryY=1;entryDx=0;entryDy=0;dashed=1;fontSize=18;fontColor=#000000;strokeWidth=3;fontStyle=1" parent="CHAzs0C8gNUh2aI-VoaO-1" source="KhFvExZsdSrS-LV7KKnN-7" target="KhFvExZsdSrS-LV7KKnN-27" edge="1">
          <mxGeometry relative="1" as="geometry" />
        </mxCell>
        <mxCell id="KhFvExZsdSrS-LV7KKnN-7" value="$$(\xi_i,\delta_i,\beta_i) \sim MVN(\mu_{item&lt;br style=&quot;font-size: 17px&quot;&gt;},\Sigma_{item}),&lt;br style=&quot;font-size: 17px&quot;&gt;\\&lt;br style=&quot;font-size: 17px&quot;&gt;Q&lt;br&gt;$$" style="ellipse;whiteSpace=wrap;html=1;fillColor=#dae8fc;strokeColor=#6c8ebf;fontSize=17;align=center;verticalAlign=middle;fontStyle=1" parent="CHAzs0C8gNUh2aI-VoaO-1" vertex="1">
          <mxGeometry x="460" y="850" width="318.5" height="132.5" as="geometry" />
        </mxCell>
        <mxCell id="KhFvExZsdSrS-LV7KKnN-26" style="edgeStyle=orthogonalEdgeStyle;rounded=0;orthogonalLoop=1;jettySize=auto;html=1;exitX=0.5;exitY=1;exitDx=0;exitDy=0;fontSize=18;fontColor=#000000;fontStyle=1" parent="CHAzs0C8gNUh2aI-VoaO-1" edge="1">
          <mxGeometry relative="1" as="geometry">
            <mxPoint x="778.5" y="380" as="sourcePoint" />
            <mxPoint x="778.5" y="380" as="targetPoint" />
          </mxGeometry>
        </mxCell>
        <mxCell id="KhFvExZsdSrS-LV7KKnN-27" value="$$logit(P(Y_{ni}))= \xi_i+\delta_i \eta_{ni}\\&lt;br&gt;\eta_{ni} = \prod_{k=1}^K  \alpha_{nk}^{q_{ik}}&lt;br style=&quot;font-size: 18px&quot;&gt;\\&lt;br style=&quot;font-size: 18px&quot;&gt;\log(T_{ni})\sim N(\beta_i-\tau_n,1/\omega_i^2)&lt;br style=&quot;font-size: 18px&quot;&gt;$$" style="rounded=1;whiteSpace=wrap;html=1;fillColor=#ffe6cc;strokeColor=#d79b00;fontSize=18;fontStyle=1" parent="CHAzs0C8gNUh2aI-VoaO-1" vertex="1">
          <mxGeometry x="160" y="585" width="320" height="150" as="geometry" />
        </mxCell>
        <mxCell id="KhFvExZsdSrS-LV7KKnN-28" style="rounded=0;orthogonalLoop=1;jettySize=auto;html=1;fontSize=18;fontColor=#000000;strokeWidth=3;fontStyle=1" parent="CHAzs0C8gNUh2aI-VoaO-1" source="KhFvExZsdSrS-LV7KKnN-29" target="KhFvExZsdSrS-LV7KKnN-27" edge="1">
          <mxGeometry relative="1" as="geometry" />
        </mxCell>
        <mxCell id="KhFvExZsdSrS-LV7KKnN-29" value="解答行为&lt;br&gt;\(SB_{ni}\)" style="rounded=0;whiteSpace=wrap;html=1;fontSize=26;fillColor=#ffe6cc;strokeColor=#d79b00;fontStyle=1" parent="CHAzs0C8gNUh2aI-VoaO-1" vertex="1">
          <mxGeometry x="245" y="440" width="150" height="90" as="geometry" />
        </mxCell>
        <mxCell id="KhFvExZsdSrS-LV7KKnN-30" value="$$&lt;br&gt;P(Y_{ni})=d_{gi}&lt;br style=&quot;font-size: 18px&quot;&gt;\\&lt;br&gt;\log(T_{ni}) \sim N(\mu_c,\sigma_c^2)&lt;br style=&quot;font-size: 18px&quot;&gt;$$" style="rounded=1;whiteSpace=wrap;html=1;fillColor=#d5e8d4;strokeColor=#82b366;fontSize=18;fontStyle=1" parent="CHAzs0C8gNUh2aI-VoaO-1" vertex="1">
          <mxGeometry x="601" y="595" width="200" height="70" as="geometry" />
        </mxCell>
        <mxCell id="KhFvExZsdSrS-LV7KKnN-31" style="rounded=0;orthogonalLoop=1;jettySize=auto;html=1;fontSize=18;fontColor=#000000;strokeWidth=3;fontStyle=1" parent="CHAzs0C8gNUh2aI-VoaO-1" source="KhFvExZsdSrS-LV7KKnN-32" target="KhFvExZsdSrS-LV7KKnN-30" edge="1">
          <mxGeometry relative="1" as="geometry" />
        </mxCell>
        <mxCell id="KhFvExZsdSrS-LV7KKnN-32" value="快速猜测&lt;br&gt;\(RG_{ni}\)" style="rounded=0;whiteSpace=wrap;html=1;fontSize=26;fillColor=#d5e8d4;strokeColor=#82b366;fontStyle=1" parent="CHAzs0C8gNUh2aI-VoaO-1" vertex="1">
          <mxGeometry x="626" y="440" width="150" height="90" as="geometry" />
        </mxCell>
        <mxCell id="KhFvExZsdSrS-LV7KKnN-33" style="edgeStyle=none;rounded=0;orthogonalLoop=1;jettySize=auto;html=1;entryX=0.5;entryY=0;entryDx=0;entryDy=0;fontSize=18;fontColor=#000000;strokeWidth=3;fontStyle=1" parent="CHAzs0C8gNUh2aI-VoaO-1" source="KhFvExZsdSrS-LV7KKnN-34" target="KhFvExZsdSrS-LV7KKnN-39" edge="1">
          <mxGeometry relative="1" as="geometry" />
        </mxCell>
        <mxCell id="KhFvExZsdSrS-LV7KKnN-34" value="预知题目&lt;br&gt;\(IP_{ni}\)" style="rounded=0;whiteSpace=wrap;html=1;fontSize=26;fillColor=#e1d5e7;strokeColor=#9673a6;fontStyle=1" parent="CHAzs0C8gNUh2aI-VoaO-1" vertex="1">
          <mxGeometry x="1017.25" y="440" width="150" height="90" as="geometry" />
        </mxCell>
        <mxCell id="KhFvExZsdSrS-LV7KKnN-39" value="$$&lt;br&gt;P(Y_{ni})=d_{ci}&lt;br style=&quot;font-size: 18px&quot;&gt;\\&lt;br&gt;\log(T_{ni}) \sim N(\mu_c,\sigma_c^2)&lt;br style=&quot;font-size: 18px&quot;&gt;$$" style="rounded=1;whiteSpace=wrap;html=1;fontSize=18;fontStyle=1;fillColor=#e1d5e7;strokeColor=#9673a6;" parent="CHAzs0C8gNUh2aI-VoaO-1" vertex="1">
          <mxGeometry x="991" y="595" width="202.5" height="80" as="geometry" />
        </mxCell>
        <mxCell id="KhFvExZsdSrS-LV7KKnN-40" style="edgeStyle=none;rounded=0;orthogonalLoop=1;jettySize=auto;html=1;dashed=1;fontSize=18;fontColor=#000000;strokeWidth=3;fontStyle=1" parent="CHAzs0C8gNUh2aI-VoaO-1" source="KhFvExZsdSrS-LV7KKnN-41" target="KhFvExZsdSrS-LV7KKnN-30" edge="1">
          <mxGeometry relative="1" as="geometry" />
        </mxCell>
        <mxCell id="KhFvExZsdSrS-LV7KKnN-41" value="$$logit(d_{gi})=\xi_i$$" style="ellipse;whiteSpace=wrap;html=1;fontSize=18;fillColor=#dae8fc;verticalAlign=top;strokeColor=#6c8ebf;fontStyle=1" parent="CHAzs0C8gNUh2aI-VoaO-1" vertex="1">
          <mxGeometry x="621" y="740" width="160" height="80" as="geometry" />
        </mxCell>
        <mxCell id="KhFvExZsdSrS-LV7KKnN-43" style="rounded=0;orthogonalLoop=1;jettySize=auto;html=1;dashed=1;fontSize=18;fontColor=#1A1A1A;strokeColor=#000000;strokeWidth=3;fillColor=#d5e8d4;" parent="CHAzs0C8gNUh2aI-VoaO-1" source="KhFvExZsdSrS-LV7KKnN-45" edge="1">
          <mxGeometry relative="1" as="geometry">
            <mxPoint x="801" y="635" as="targetPoint" />
          </mxGeometry>
        </mxCell>
        <mxCell id="KhFvExZsdSrS-LV7KKnN-44" style="rounded=0;orthogonalLoop=1;jettySize=auto;html=1;dashed=1;fontSize=18;fontColor=#1A1A1A;strokeColor=#000000;strokeWidth=3;fillColor=#d5e8d4;" parent="CHAzs0C8gNUh2aI-VoaO-1" source="KhFvExZsdSrS-LV7KKnN-45" target="KhFvExZsdSrS-LV7KKnN-39" edge="1">
          <mxGeometry relative="1" as="geometry" />
        </mxCell>
        <mxCell id="KhFvExZsdSrS-LV7KKnN-45" value="RT分布相同" style="text;html=1;strokeColor=#000000;fillColor=none;align=center;verticalAlign=middle;whiteSpace=wrap;rounded=0;fontSize=18;fontStyle=1" parent="CHAzs0C8gNUh2aI-VoaO-1" vertex="1">
          <mxGeometry x="851" y="615" width="80" height="40" as="geometry" />
        </mxCell>
      </root>
    </mxGraphModel>
  </diagram>
  <diagram id="tQV3lz9dfutiKNVHAWYW" name="MMCDM">
    <mxGraphModel dx="1422" dy="706" grid="1" gridSize="10" guides="1" tooltips="1" connect="1" arrows="1" fold="1" page="1" pageScale="1" pageWidth="827" pageHeight="1169" math="1" shadow="0">
      <root>
        <mxCell id="SVkEslSBeD9RFSSFJrJI-0" />
        <mxCell id="SVkEslSBeD9RFSSFJrJI-1" parent="SVkEslSBeD9RFSSFJrJI-0" />
        <mxCell id="st3x6KQMPUKwyE40HJVv-1" style="rounded=0;orthogonalLoop=1;jettySize=auto;html=1;strokeWidth=3;edgeStyle=orthogonalEdgeStyle;fontStyle=1" parent="SVkEslSBeD9RFSSFJrJI-1" source="_eyZCndIuBNLTlNZf0W5-2" target="st3x6KQMPUKwyE40HJVv-0" edge="1">
          <mxGeometry relative="1" as="geometry" />
        </mxCell>
        <mxCell id="st3x6KQMPUKwyE40HJVv-3" style="edgeStyle=orthogonalEdgeStyle;rounded=0;orthogonalLoop=1;jettySize=auto;html=1;strokeWidth=3;fontStyle=1;entryX=0.5;entryY=0;entryDx=0;entryDy=0;" parent="SVkEslSBeD9RFSSFJrJI-1" source="_eyZCndIuBNLTlNZf0W5-2" target="st3x6KQMPUKwyE40HJVv-12" edge="1">
          <mxGeometry relative="1" as="geometry">
            <mxPoint x="940" y="150" as="targetPoint" />
          </mxGeometry>
        </mxCell>
        <mxCell id="_eyZCndIuBNLTlNZf0W5-2" value="&lt;span style=&quot;font-size: 19px&quot;&gt;\(\phi_i\)&lt;/span&gt;" style="ellipse;whiteSpace=wrap;html=1;fillColor=#bac8d3;strokeColor=#23445d;fontSize=18;fontStyle=1" parent="SVkEslSBeD9RFSSFJrJI-1" vertex="1">
          <mxGeometry x="534" y="50" width="120" height="80" as="geometry" />
        </mxCell>
        <mxCell id="l9nHGYAoljYETAKfmN97-19" style="edgeStyle=none;rounded=0;orthogonalLoop=1;jettySize=auto;html=1;entryX=0.368;entryY=1.026;entryDx=0;entryDy=0;entryPerimeter=0;fontSize=18;fontColor=#000000;strokeWidth=3;dashed=1;fontStyle=1" parent="SVkEslSBeD9RFSSFJrJI-1" source="_eyZCndIuBNLTlNZf0W5-4" target="l9nHGYAoljYETAKfmN97-5" edge="1">
          <mxGeometry relative="1" as="geometry" />
        </mxCell>
        <mxCell id="_eyZCndIuBNLTlNZf0W5-4" value="$$&lt;br style=&quot;font-size: 15px&quot;&gt;\begin{pmatrix}\theta_n \\ \tau_n \end{pmatrix}\sim MVN(\mu_{person},\Sigma_{person})&lt;br&gt;\\&lt;br&gt;logit(\alpha_{nk})=\lambda_{0k}+\lambda_k \theta_n&lt;br style=&quot;font-size: 15px&quot;&gt;$$" style="ellipse;whiteSpace=wrap;html=1;fillColor=#dae8fc;strokeColor=#6c8ebf;fontSize=15;fontStyle=1" parent="SVkEslSBeD9RFSSFJrJI-1" vertex="1">
          <mxGeometry x="134" y="830" width="280" height="130" as="geometry" />
        </mxCell>
        <mxCell id="l9nHGYAoljYETAKfmN97-20" style="edgeStyle=none;rounded=0;orthogonalLoop=1;jettySize=auto;html=1;dashed=1;fontSize=18;fontColor=#000000;strokeWidth=3;fontStyle=1" parent="SVkEslSBeD9RFSSFJrJI-1" source="_eyZCndIuBNLTlNZf0W5-6" target="l9nHGYAoljYETAKfmN97-22" edge="1">
          <mxGeometry relative="1" as="geometry">
            <mxPoint x="740" y="750" as="targetPoint" />
          </mxGeometry>
        </mxCell>
        <mxCell id="l9nHGYAoljYETAKfmN97-21" style="edgeStyle=none;rounded=0;orthogonalLoop=1;jettySize=auto;html=1;entryX=1;entryY=1;entryDx=0;entryDy=0;dashed=1;fontSize=18;fontColor=#000000;strokeWidth=3;fontStyle=1" parent="SVkEslSBeD9RFSSFJrJI-1" source="_eyZCndIuBNLTlNZf0W5-6" target="l9nHGYAoljYETAKfmN97-5" edge="1">
          <mxGeometry relative="1" as="geometry" />
        </mxCell>
        <mxCell id="_eyZCndIuBNLTlNZf0W5-6" value="$$(\xi_i,\delta_i,\beta_i) \sim MVN(\mu_{item&lt;br style=&quot;font-size: 17px&quot;&gt;},\Sigma_{item}),&lt;br style=&quot;font-size: 17px&quot;&gt;\\&lt;br style=&quot;font-size: 17px&quot;&gt;Q&lt;br&gt;$$" style="ellipse;whiteSpace=wrap;html=1;fillColor=#dae8fc;strokeColor=#6c8ebf;fontSize=17;align=center;verticalAlign=middle;fontStyle=1" parent="SVkEslSBeD9RFSSFJrJI-1" vertex="1">
          <mxGeometry x="460" y="850" width="318.5" height="132.5" as="geometry" />
        </mxCell>
        <mxCell id="_eyZCndIuBNLTlNZf0W5-7" value="&lt;font style=&quot;font-size: 18px;&quot;&gt;1&lt;/font&gt;" style="text;html=1;strokeColor=none;fillColor=none;align=center;verticalAlign=middle;whiteSpace=wrap;rounded=0;strokeWidth=0;fontSize=18;fontStyle=1" parent="SVkEslSBeD9RFSSFJrJI-1" vertex="1">
          <mxGeometry x="737.5" y="50" width="60" height="30" as="geometry" />
        </mxCell>
        <mxCell id="_eyZCndIuBNLTlNZf0W5-8" value="&lt;font style=&quot;font-size: 18px;&quot;&gt;0&lt;/font&gt;" style="text;html=1;strokeColor=none;fillColor=none;align=center;verticalAlign=middle;whiteSpace=wrap;rounded=0;fontSize=18;fontStyle=1" parent="SVkEslSBeD9RFSSFJrJI-1" vertex="1">
          <mxGeometry x="370" y="50" width="60" height="30" as="geometry" />
        </mxCell>
        <mxCell id="1qLhiHOZXWEvyHyyPdub-1" style="edgeStyle=orthogonalEdgeStyle;rounded=0;orthogonalLoop=1;jettySize=auto;html=1;strokeWidth=3;entryX=0.5;entryY=0;entryDx=0;entryDy=0;" parent="SVkEslSBeD9RFSSFJrJI-1" source="_eyZCndIuBNLTlNZf0W5-14" target="l9nHGYAoljYETAKfmN97-10" edge="1">
          <mxGeometry relative="1" as="geometry" />
        </mxCell>
        <mxCell id="1qLhiHOZXWEvyHyyPdub-2" style="edgeStyle=orthogonalEdgeStyle;rounded=0;orthogonalLoop=1;jettySize=auto;html=1;strokeWidth=3;" parent="SVkEslSBeD9RFSSFJrJI-1" source="_eyZCndIuBNLTlNZf0W5-14" target="l9nHGYAoljYETAKfmN97-11" edge="1">
          <mxGeometry relative="1" as="geometry" />
        </mxCell>
        <mxCell id="_eyZCndIuBNLTlNZf0W5-14" value="&lt;span style=&quot;font-size: 18px&quot;&gt;$$\Delta_{ni}$$&lt;/span&gt;" style="ellipse;whiteSpace=wrap;html=1;fontSize=19;align=center;fillColor=#bac8d3;strokeColor=#23445d;fontStyle=1" parent="SVkEslSBeD9RFSSFJrJI-1" vertex="1">
          <mxGeometry x="740" y="255" width="120" height="80" as="geometry" />
        </mxCell>
        <mxCell id="st3x6KQMPUKwyE40HJVv-2" style="rounded=0;orthogonalLoop=1;jettySize=auto;html=1;strokeWidth=3;entryX=0.437;entryY=-0.013;entryDx=0;entryDy=0;entryPerimeter=0;fillColor=#ffcc99;strokeColor=#36393d;edgeStyle=orthogonalEdgeStyle;fontStyle=1" parent="SVkEslSBeD9RFSSFJrJI-1" source="st3x6KQMPUKwyE40HJVv-0" target="l9nHGYAoljYETAKfmN97-6" edge="1">
          <mxGeometry relative="1" as="geometry">
            <mxPoint x="164" y="340" as="targetPoint" />
          </mxGeometry>
        </mxCell>
        <mxCell id="st3x6KQMPUKwyE40HJVv-29" style="edgeStyle=orthogonalEdgeStyle;rounded=0;orthogonalLoop=1;jettySize=auto;html=1;fontSize=25;strokeColor=#000000;strokeWidth=3;entryX=0.5;entryY=0;entryDx=0;entryDy=0;fontStyle=1" parent="SVkEslSBeD9RFSSFJrJI-1" source="st3x6KQMPUKwyE40HJVv-0" target="l9nHGYAoljYETAKfmN97-8" edge="1">
          <mxGeometry relative="1" as="geometry">
            <mxPoint x="422.5" y="360" as="targetPoint" />
          </mxGeometry>
        </mxCell>
        <mxCell id="st3x6KQMPUKwyE40HJVv-0" value="&lt;span style=&quot;font-size: 18px&quot;&gt;$$\Delta_{ni}$$&lt;/span&gt;" style="ellipse;whiteSpace=wrap;html=1;fontSize=19;align=center;fillColor=#bac8d3;strokeColor=#23445d;fontStyle=1" parent="SVkEslSBeD9RFSSFJrJI-1" vertex="1">
          <mxGeometry x="210" y="215" width="120" height="80" as="geometry" />
        </mxCell>
        <mxCell id="st3x6KQMPUKwyE40HJVv-8" value="&lt;font style=&quot;font-size: 18px;&quot;&gt;0&lt;/font&gt;" style="text;html=1;strokeColor=none;fillColor=none;align=center;verticalAlign=middle;whiteSpace=wrap;rounded=0;fontSize=18;fontColor=#1A1A1A;fontStyle=1" parent="SVkEslSBeD9RFSSFJrJI-1" vertex="1">
          <mxGeometry x="827" y="150" width="60" height="30" as="geometry" />
        </mxCell>
        <mxCell id="st3x6KQMPUKwyE40HJVv-9" value="&lt;font style=&quot;font-size: 18px;&quot;&gt;0&lt;/font&gt;" style="text;html=1;strokeColor=none;fillColor=none;align=center;verticalAlign=middle;whiteSpace=wrap;rounded=0;fontSize=18;fontStyle=1" parent="SVkEslSBeD9RFSSFJrJI-1" vertex="1">
          <mxGeometry x="130" y="230" width="60" height="30" as="geometry" />
        </mxCell>
        <mxCell id="st3x6KQMPUKwyE40HJVv-10" value="&lt;font style=&quot;font-size: 18px&quot;&gt;1&lt;/font&gt;" style="text;html=1;strokeColor=none;fillColor=none;align=center;verticalAlign=middle;whiteSpace=wrap;rounded=0;fontSize=18;fontStyle=1" parent="SVkEslSBeD9RFSSFJrJI-1" vertex="1">
          <mxGeometry x="350" y="229" width="60" height="30" as="geometry" />
        </mxCell>
        <mxCell id="1qLhiHOZXWEvyHyyPdub-0" style="edgeStyle=orthogonalEdgeStyle;rounded=0;orthogonalLoop=1;jettySize=auto;html=1;strokeWidth=3;" parent="SVkEslSBeD9RFSSFJrJI-1" source="st3x6KQMPUKwyE40HJVv-12" target="_eyZCndIuBNLTlNZf0W5-14" edge="1">
          <mxGeometry relative="1" as="geometry" />
        </mxCell>
        <mxCell id="1qLhiHOZXWEvyHyyPdub-3" style="edgeStyle=orthogonalEdgeStyle;rounded=0;orthogonalLoop=1;jettySize=auto;html=1;strokeWidth=3;entryX=0.5;entryY=0;entryDx=0;entryDy=0;" parent="SVkEslSBeD9RFSSFJrJI-1" source="st3x6KQMPUKwyE40HJVv-12" target="l9nHGYAoljYETAKfmN97-9" edge="1">
          <mxGeometry relative="1" as="geometry" />
        </mxCell>
        <mxCell id="st3x6KQMPUKwyE40HJVv-12" value="&lt;font color=&quot;#000000&quot; style=&quot;font-size: 16px&quot;&gt;$$\kappa_{ni} \sim B(\upsilon_n)$$&lt;br style=&quot;font-size: 16px&quot;&gt;&lt;/font&gt;" style="ellipse;whiteSpace=wrap;html=1;fillColor=#bac8d3;strokeColor=#23445d;fontSize=16;align=center;verticalAlign=top;fontStyle=1" parent="SVkEslSBeD9RFSSFJrJI-1" vertex="1">
          <mxGeometry x="920" y="155" width="120" height="60" as="geometry" />
        </mxCell>
        <mxCell id="st3x6KQMPUKwyE40HJVv-17" value="1" style="text;html=1;strokeColor=none;fillColor=none;align=center;verticalAlign=middle;whiteSpace=wrap;rounded=0;strokeWidth=0;fontSize=18;fontStyle=1;fontColor=#1A1A1A;" parent="SVkEslSBeD9RFSSFJrJI-1" vertex="1">
          <mxGeometry x="870" y="265" width="60" height="30" as="geometry" />
        </mxCell>
        <mxCell id="st3x6KQMPUKwyE40HJVv-19" style="rounded=0;orthogonalLoop=1;jettySize=auto;html=1;strokeColor=#000000;strokeWidth=3;fontStyle=1;dashed=1;" parent="SVkEslSBeD9RFSSFJrJI-1" source="st3x6KQMPUKwyE40HJVv-18" target="st3x6KQMPUKwyE40HJVv-12" edge="1">
          <mxGeometry relative="1" as="geometry" />
        </mxCell>
        <mxCell id="st3x6KQMPUKwyE40HJVv-18" value="$$\upsilon_n&amp;nbsp;&lt;br style=&quot;font-size: 18px&quot;&gt;$$" style="ellipse;whiteSpace=wrap;html=1;fillColor=#dae8fc;strokeColor=#6c8ebf;fontSize=18;fontStyle=1" parent="SVkEslSBeD9RFSSFJrJI-1" vertex="1">
          <mxGeometry x="1040" y="80" width="80" height="50" as="geometry" />
        </mxCell>
        <mxCell id="st3x6KQMPUKwyE40HJVv-20" value="0" style="text;html=1;strokeColor=#FFFFFF;fillColor=none;align=center;verticalAlign=middle;whiteSpace=wrap;rounded=0;strokeWidth=0;fontSize=18;fontStyle=1;fontColor=#1A1A1A;" parent="SVkEslSBeD9RFSSFJrJI-1" vertex="1">
          <mxGeometry x="654" y="260" width="60" height="30" as="geometry" />
        </mxCell>
        <mxCell id="l9nHGYAoljYETAKfmN97-0" style="edgeStyle=orthogonalEdgeStyle;rounded=0;orthogonalLoop=1;jettySize=auto;html=1;exitX=0.5;exitY=1;exitDx=0;exitDy=0;fontSize=18;fontColor=#000000;fontStyle=1" parent="SVkEslSBeD9RFSSFJrJI-1" edge="1">
          <mxGeometry relative="1" as="geometry">
            <mxPoint x="837.5" y="380" as="sourcePoint" />
            <mxPoint x="837.5" y="380" as="targetPoint" />
          </mxGeometry>
        </mxCell>
        <mxCell id="l9nHGYAoljYETAKfmN97-5" value="$$logit(Y_{ni})= \xi_i+\delta_i \eta_{ni}\\&lt;br&gt;\eta_{ni} = \prod_{k=1}^K  \alpha_{nk}^{q_{ik}}&lt;br style=&quot;font-size: 18px&quot;&gt;\\&lt;br style=&quot;font-size: 18px&quot;&gt;\log(T_{ni})\sim N(\beta_i-\tau_n,1/\omega_i^2)&lt;br style=&quot;font-size: 18px&quot;&gt;$$" style="rounded=1;whiteSpace=wrap;html=1;fillColor=#ffe6cc;strokeColor=#d79b00;fontSize=18;fontStyle=1" parent="SVkEslSBeD9RFSSFJrJI-1" vertex="1">
          <mxGeometry x="160" y="585" width="320" height="150" as="geometry" />
        </mxCell>
        <mxCell id="l9nHGYAoljYETAKfmN97-14" style="rounded=0;orthogonalLoop=1;jettySize=auto;html=1;fontSize=18;fontColor=#000000;strokeWidth=3;fontStyle=1" parent="SVkEslSBeD9RFSSFJrJI-1" source="l9nHGYAoljYETAKfmN97-6" target="l9nHGYAoljYETAKfmN97-5" edge="1">
          <mxGeometry relative="1" as="geometry" />
        </mxCell>
        <mxCell id="l9nHGYAoljYETAKfmN97-6" value="解答行为" style="rounded=0;whiteSpace=wrap;html=1;fontSize=18;fillColor=#ffe6cc;strokeColor=#d79b00;fontStyle=1" parent="SVkEslSBeD9RFSSFJrJI-1" vertex="1">
          <mxGeometry x="80" y="370" width="120" height="60" as="geometry" />
        </mxCell>
        <mxCell id="l9nHGYAoljYETAKfmN97-7" value="$$&lt;br&gt;P(Y_{ni})=d_{gi}&lt;br style=&quot;font-size: 18px&quot;&gt;\\&lt;br&gt;\log(T_{ni}) \sim N(\mu_c,\sigma_c^2)&lt;br style=&quot;font-size: 18px&quot;&gt;$$" style="rounded=1;whiteSpace=wrap;html=1;fillColor=#d5e8d4;strokeColor=#82b366;fontSize=18;fontStyle=1" parent="SVkEslSBeD9RFSSFJrJI-1" vertex="1">
          <mxGeometry x="660" y="595" width="200" height="70" as="geometry" />
        </mxCell>
        <mxCell id="l9nHGYAoljYETAKfmN97-16" style="rounded=0;orthogonalLoop=1;jettySize=auto;html=1;fontSize=18;fontColor=#000000;strokeWidth=3;fontStyle=1" parent="SVkEslSBeD9RFSSFJrJI-1" source="l9nHGYAoljYETAKfmN97-8" target="l9nHGYAoljYETAKfmN97-7" edge="1">
          <mxGeometry relative="1" as="geometry" />
        </mxCell>
        <mxCell id="l9nHGYAoljYETAKfmN97-8" value="快速猜测" style="rounded=0;whiteSpace=wrap;html=1;fontSize=18;fillColor=#d5e8d4;strokeColor=#82b366;fontStyle=1" parent="SVkEslSBeD9RFSSFJrJI-1" vertex="1">
          <mxGeometry x="340" y="370" width="120" height="60" as="geometry" />
        </mxCell>
        <mxCell id="l9nHGYAoljYETAKfmN97-18" style="edgeStyle=none;rounded=0;orthogonalLoop=1;jettySize=auto;html=1;entryX=0.5;entryY=0;entryDx=0;entryDy=0;fontSize=18;fontColor=#000000;strokeWidth=3;fontStyle=1" parent="SVkEslSBeD9RFSSFJrJI-1" source="l9nHGYAoljYETAKfmN97-9" target="l9nHGYAoljYETAKfmN97-12" edge="1">
          <mxGeometry relative="1" as="geometry" />
        </mxCell>
        <mxCell id="l9nHGYAoljYETAKfmN97-9" value="预知题目" style="rounded=0;whiteSpace=wrap;html=1;fontSize=18;fillColor=#e1d5e7;strokeColor=#9673a6;fontStyle=1" parent="SVkEslSBeD9RFSSFJrJI-1" vertex="1">
          <mxGeometry x="1091.25" y="370" width="120" height="60" as="geometry" />
        </mxCell>
        <mxCell id="l9nHGYAoljYETAKfmN97-15" style="edgeStyle=none;rounded=0;orthogonalLoop=1;jettySize=auto;html=1;fontSize=18;fontColor=#000000;strokeWidth=3;fontStyle=1;entryX=0.626;entryY=-0.006;entryDx=0;entryDy=0;entryPerimeter=0;" parent="SVkEslSBeD9RFSSFJrJI-1" source="l9nHGYAoljYETAKfmN97-10" target="l9nHGYAoljYETAKfmN97-5" edge="1">
          <mxGeometry relative="1" as="geometry" />
        </mxCell>
        <mxCell id="l9nHGYAoljYETAKfmN97-10" value="解答行为" style="rounded=0;whiteSpace=wrap;html=1;fontSize=18;fillColor=#ffe6cc;strokeColor=#d79b00;fontStyle=1" parent="SVkEslSBeD9RFSSFJrJI-1" vertex="1">
          <mxGeometry x="600" y="370" width="120" height="60" as="geometry" />
        </mxCell>
        <mxCell id="l9nHGYAoljYETAKfmN97-17" style="edgeStyle=none;rounded=0;orthogonalLoop=1;jettySize=auto;html=1;entryX=0.75;entryY=0;entryDx=0;entryDy=0;fontSize=18;fontColor=#000000;strokeWidth=3;fontStyle=1" parent="SVkEslSBeD9RFSSFJrJI-1" source="l9nHGYAoljYETAKfmN97-11" target="l9nHGYAoljYETAKfmN97-7" edge="1">
          <mxGeometry relative="1" as="geometry" />
        </mxCell>
        <mxCell id="l9nHGYAoljYETAKfmN97-11" value="快速猜测" style="rounded=0;whiteSpace=wrap;html=1;fontSize=18;fillColor=#d5e8d4;strokeColor=#82b366;fontStyle=1" parent="SVkEslSBeD9RFSSFJrJI-1" vertex="1">
          <mxGeometry x="880" y="370" width="120" height="60" as="geometry" />
        </mxCell>
        <mxCell id="l9nHGYAoljYETAKfmN97-12" value="$$&lt;br&gt;P(Y_{ni})=d_{ci}&lt;br style=&quot;font-size: 18px&quot;&gt;\\&lt;br&gt;\log(T_{ni}) \sim N(\mu_c,\sigma_c^2)&lt;br style=&quot;font-size: 18px&quot;&gt;$$" style="rounded=1;whiteSpace=wrap;html=1;fillColor=#e1d5e7;strokeColor=#9673a6;fontSize=18;fontStyle=1" parent="SVkEslSBeD9RFSSFJrJI-1" vertex="1">
          <mxGeometry x="1050" y="595" width="202.5" height="80" as="geometry" />
        </mxCell>
        <mxCell id="l9nHGYAoljYETAKfmN97-25" style="edgeStyle=none;rounded=0;orthogonalLoop=1;jettySize=auto;html=1;dashed=1;fontSize=18;fontColor=#000000;strokeWidth=3;fontStyle=1" parent="SVkEslSBeD9RFSSFJrJI-1" source="l9nHGYAoljYETAKfmN97-22" target="l9nHGYAoljYETAKfmN97-7" edge="1">
          <mxGeometry relative="1" as="geometry" />
        </mxCell>
        <mxCell id="l9nHGYAoljYETAKfmN97-22" value="$$logit(d_{gi})=\xi_i$$" style="ellipse;whiteSpace=wrap;html=1;fontSize=18;fillColor=#dae8fc;verticalAlign=top;strokeColor=#6c8ebf;fontStyle=1" parent="SVkEslSBeD9RFSSFJrJI-1" vertex="1">
          <mxGeometry x="687.5" y="730" width="160" height="80" as="geometry" />
        </mxCell>
        <mxCell id="l9nHGYAoljYETAKfmN97-30" value="1" style="text;html=1;strokeColor=none;fillColor=none;align=center;verticalAlign=middle;whiteSpace=wrap;rounded=0;strokeWidth=0;fontSize=18;fontStyle=1;fontColor=#1A1A1A;" parent="SVkEslSBeD9RFSSFJrJI-1" vertex="1">
          <mxGeometry x="1070" y="155" width="60" height="30" as="geometry" />
        </mxCell>
        <mxCell id="l9nHGYAoljYETAKfmN97-32" style="rounded=0;orthogonalLoop=1;jettySize=auto;html=1;dashed=1;fontSize=18;fontColor=#1A1A1A;strokeColor=#000000;strokeWidth=3;fillColor=#d5e8d4;" parent="SVkEslSBeD9RFSSFJrJI-1" source="l9nHGYAoljYETAKfmN97-31" edge="1">
          <mxGeometry relative="1" as="geometry">
            <mxPoint x="860" y="635" as="targetPoint" />
          </mxGeometry>
        </mxCell>
        <mxCell id="l9nHGYAoljYETAKfmN97-33" style="rounded=0;orthogonalLoop=1;jettySize=auto;html=1;dashed=1;fontSize=18;fontColor=#1A1A1A;strokeColor=#1A1A1A;strokeWidth=3;fillColor=#d5e8d4;" parent="SVkEslSBeD9RFSSFJrJI-1" source="l9nHGYAoljYETAKfmN97-31" target="l9nHGYAoljYETAKfmN97-12" edge="1">
          <mxGeometry relative="1" as="geometry" />
        </mxCell>
        <mxCell id="l9nHGYAoljYETAKfmN97-31" value="RT分布相同" style="text;html=1;strokeColor=#000000;fillColor=none;align=center;verticalAlign=middle;whiteSpace=wrap;rounded=0;fontSize=18;fontStyle=1" parent="SVkEslSBeD9RFSSFJrJI-1" vertex="1">
          <mxGeometry x="910" y="615" width="80" height="40" as="geometry" />
        </mxCell>
      </root>
    </mxGraphModel>
  </diagram>
  <diagram id="TZ__T18CQbzGviP5F4p5" name="MMCDM-RG">
    <mxGraphModel dx="2249" dy="762" grid="1" gridSize="10" guides="1" tooltips="1" connect="1" arrows="1" fold="1" page="1" pageScale="1" pageWidth="827" pageHeight="1169" math="1" shadow="0">
      <root>
        <mxCell id="Ng6jZMpRb74rzdQvAZCZ-0" />
        <mxCell id="Ng6jZMpRb74rzdQvAZCZ-1" parent="Ng6jZMpRb74rzdQvAZCZ-0" />
        <mxCell id="0MRBozEXPnc6nI37t5p_-3" style="edgeStyle=none;rounded=0;orthogonalLoop=1;jettySize=auto;html=1;entryX=0.368;entryY=1.026;entryDx=0;entryDy=0;entryPerimeter=0;fontSize=18;fontColor=#000000;strokeWidth=3;dashed=1;fontStyle=1" parent="Ng6jZMpRb74rzdQvAZCZ-1" source="0MRBozEXPnc6nI37t5p_-4" target="0MRBozEXPnc6nI37t5p_-27" edge="1">
          <mxGeometry relative="1" as="geometry" />
        </mxCell>
        <mxCell id="0MRBozEXPnc6nI37t5p_-4" value="$$&lt;br style=&quot;font-size: 15px&quot;&gt;\begin{pmatrix}\theta_n \\ \tau_n \end{pmatrix}\sim MVN(\mu_{person},\Sigma_{person})&lt;br&gt;\\&lt;br&gt;logit(\alpha_{nk})=\lambda_{0k}+\lambda_k \theta_n&lt;br style=&quot;font-size: 15px&quot;&gt;$$" style="ellipse;whiteSpace=wrap;html=1;fillColor=#dae8fc;strokeColor=#6c8ebf;fontSize=15;fontStyle=1" parent="Ng6jZMpRb74rzdQvAZCZ-1" vertex="1">
          <mxGeometry y="620" width="280" height="130" as="geometry" />
        </mxCell>
        <mxCell id="0MRBozEXPnc6nI37t5p_-5" style="edgeStyle=none;rounded=0;orthogonalLoop=1;jettySize=auto;html=1;dashed=1;fontSize=18;fontColor=#000000;strokeWidth=3;fontStyle=1" parent="Ng6jZMpRb74rzdQvAZCZ-1" source="0MRBozEXPnc6nI37t5p_-7" target="0MRBozEXPnc6nI37t5p_-41" edge="1">
          <mxGeometry relative="1" as="geometry">
            <mxPoint x="740" y="750" as="targetPoint" />
          </mxGeometry>
        </mxCell>
        <mxCell id="0MRBozEXPnc6nI37t5p_-6" style="edgeStyle=none;rounded=0;orthogonalLoop=1;jettySize=auto;html=1;entryX=1;entryY=1;entryDx=0;entryDy=0;dashed=1;fontSize=18;fontColor=#000000;strokeWidth=3;fontStyle=1" parent="Ng6jZMpRb74rzdQvAZCZ-1" source="0MRBozEXPnc6nI37t5p_-7" target="0MRBozEXPnc6nI37t5p_-27" edge="1">
          <mxGeometry relative="1" as="geometry" />
        </mxCell>
        <mxCell id="0MRBozEXPnc6nI37t5p_-7" value="$$(\xi_i,\delta_i,\beta_i) \sim MVN(\mu_{item&lt;br style=&quot;font-size: 17px&quot;&gt;},\Sigma_{item}),&lt;br style=&quot;font-size: 17px&quot;&gt;\\&lt;br style=&quot;font-size: 17px&quot;&gt;Q&lt;br&gt;$$" style="ellipse;whiteSpace=wrap;html=1;fillColor=#dae8fc;strokeColor=#6c8ebf;fontSize=17;align=center;verticalAlign=middle;fontStyle=1" parent="Ng6jZMpRb74rzdQvAZCZ-1" vertex="1">
          <mxGeometry x="311.5" y="660" width="318.5" height="132.5" as="geometry" />
        </mxCell>
        <mxCell id="0MRBozEXPnc6nI37t5p_-13" style="rounded=0;orthogonalLoop=1;jettySize=auto;html=1;strokeWidth=3;entryX=0.437;entryY=-0.013;entryDx=0;entryDy=0;entryPerimeter=0;fillColor=#ffcc99;strokeColor=#36393d;edgeStyle=orthogonalEdgeStyle;fontStyle=1" parent="Ng6jZMpRb74rzdQvAZCZ-1" source="0MRBozEXPnc6nI37t5p_-15" target="0MRBozEXPnc6nI37t5p_-29" edge="1">
          <mxGeometry relative="1" as="geometry">
            <mxPoint x="164" y="340" as="targetPoint" />
          </mxGeometry>
        </mxCell>
        <mxCell id="0MRBozEXPnc6nI37t5p_-14" style="edgeStyle=orthogonalEdgeStyle;rounded=0;orthogonalLoop=1;jettySize=auto;html=1;fontSize=25;strokeColor=#000000;strokeWidth=3;entryX=0.5;entryY=0;entryDx=0;entryDy=0;fontStyle=1" parent="Ng6jZMpRb74rzdQvAZCZ-1" source="0MRBozEXPnc6nI37t5p_-15" target="0MRBozEXPnc6nI37t5p_-32" edge="1">
          <mxGeometry relative="1" as="geometry">
            <mxPoint x="422.5" y="360" as="targetPoint" />
          </mxGeometry>
        </mxCell>
        <mxCell id="0MRBozEXPnc6nI37t5p_-15" value="&lt;span style=&quot;font-size: 18px&quot;&gt;$$\Delta_{ni}$$&lt;/span&gt;" style="ellipse;whiteSpace=wrap;html=1;fontSize=19;align=center;fillColor=#bac8d3;strokeColor=#23445d;fontStyle=1" parent="Ng6jZMpRb74rzdQvAZCZ-1" vertex="1">
          <mxGeometry x="310" y="180" width="120" height="80" as="geometry" />
        </mxCell>
        <mxCell id="0MRBozEXPnc6nI37t5p_-17" value="&lt;font style=&quot;font-size: 18px;&quot;&gt;0&lt;/font&gt;" style="text;html=1;strokeColor=none;fillColor=none;align=center;verticalAlign=middle;whiteSpace=wrap;rounded=0;fontSize=18;fontStyle=1" parent="Ng6jZMpRb74rzdQvAZCZ-1" vertex="1">
          <mxGeometry x="220" y="180" width="60" height="30" as="geometry" />
        </mxCell>
        <mxCell id="0MRBozEXPnc6nI37t5p_-18" value="&lt;font style=&quot;font-size: 18px&quot;&gt;1&lt;/font&gt;" style="text;html=1;strokeColor=none;fillColor=none;align=center;verticalAlign=middle;whiteSpace=wrap;rounded=0;fontSize=18;fontStyle=1" parent="Ng6jZMpRb74rzdQvAZCZ-1" vertex="1">
          <mxGeometry x="470" y="180" width="60" height="30" as="geometry" />
        </mxCell>
        <mxCell id="0MRBozEXPnc6nI37t5p_-26" style="edgeStyle=orthogonalEdgeStyle;rounded=0;orthogonalLoop=1;jettySize=auto;html=1;exitX=0.5;exitY=1;exitDx=0;exitDy=0;fontSize=18;fontColor=#000000;fontStyle=1" parent="Ng6jZMpRb74rzdQvAZCZ-1" edge="1">
          <mxGeometry relative="1" as="geometry">
            <mxPoint x="837.5" y="380" as="sourcePoint" />
            <mxPoint x="837.5" y="380" as="targetPoint" />
          </mxGeometry>
        </mxCell>
        <mxCell id="0MRBozEXPnc6nI37t5p_-27" value="$$logit(P(Y_{ni}))= \xi_i+\delta_i \eta_{ni}\\&lt;br&gt;\eta_{ni} = \prod_{k=1}^K  \alpha_{nk}^{q_{ik}}&lt;br style=&quot;font-size: 18px&quot;&gt;\\&lt;br style=&quot;font-size: 18px&quot;&gt;\log(T_{ni})\sim N(\beta_i-\tau_n,1/\omega_i^2)&lt;br style=&quot;font-size: 18px&quot;&gt;$$" style="rounded=1;whiteSpace=wrap;html=1;fillColor=#ffe6cc;strokeColor=#d79b00;fontSize=18;fontStyle=1" parent="Ng6jZMpRb74rzdQvAZCZ-1" vertex="1">
          <mxGeometry x="30" y="420" width="320" height="150" as="geometry" />
        </mxCell>
        <mxCell id="0MRBozEXPnc6nI37t5p_-28" style="rounded=0;orthogonalLoop=1;jettySize=auto;html=1;fontSize=18;fontColor=#000000;strokeWidth=3;fontStyle=1" parent="Ng6jZMpRb74rzdQvAZCZ-1" source="0MRBozEXPnc6nI37t5p_-29" target="0MRBozEXPnc6nI37t5p_-27" edge="1">
          <mxGeometry relative="1" as="geometry" />
        </mxCell>
        <mxCell id="0MRBozEXPnc6nI37t5p_-29" value="解答行为" style="rounded=0;whiteSpace=wrap;html=1;fontSize=18;fillColor=#ffe6cc;strokeColor=#d79b00;fontStyle=1" parent="Ng6jZMpRb74rzdQvAZCZ-1" vertex="1">
          <mxGeometry x="130" y="300" width="120" height="60" as="geometry" />
        </mxCell>
        <mxCell id="0MRBozEXPnc6nI37t5p_-30" value="$$&lt;br&gt;P(Y_{ni})=d_{gi}&lt;br style=&quot;font-size: 18px&quot;&gt;\\&lt;br&gt;\log(T_{ni}) \sim N(\mu_c,\sigma_c^2)&lt;br style=&quot;font-size: 18px&quot;&gt;$$" style="rounded=1;whiteSpace=wrap;html=1;fillColor=#d5e8d4;strokeColor=#82b366;fontSize=18;fontStyle=1" parent="Ng6jZMpRb74rzdQvAZCZ-1" vertex="1">
          <mxGeometry x="458.5" y="420" width="200" height="70" as="geometry" />
        </mxCell>
        <mxCell id="0MRBozEXPnc6nI37t5p_-31" style="rounded=0;orthogonalLoop=1;jettySize=auto;html=1;fontSize=18;fontColor=#000000;strokeWidth=3;fontStyle=1" parent="Ng6jZMpRb74rzdQvAZCZ-1" source="0MRBozEXPnc6nI37t5p_-32" target="0MRBozEXPnc6nI37t5p_-30" edge="1">
          <mxGeometry relative="1" as="geometry" />
        </mxCell>
        <mxCell id="0MRBozEXPnc6nI37t5p_-32" value="快速猜测" style="rounded=0;whiteSpace=wrap;html=1;fontSize=18;fillColor=#d5e8d4;strokeColor=#82b366;fontStyle=1" parent="Ng6jZMpRb74rzdQvAZCZ-1" vertex="1">
          <mxGeometry x="498.5" y="300" width="120" height="60" as="geometry" />
        </mxCell>
        <mxCell id="0MRBozEXPnc6nI37t5p_-40" style="edgeStyle=none;rounded=0;orthogonalLoop=1;jettySize=auto;html=1;dashed=1;fontSize=18;fontColor=#000000;strokeWidth=3;fontStyle=1" parent="Ng6jZMpRb74rzdQvAZCZ-1" source="0MRBozEXPnc6nI37t5p_-41" target="0MRBozEXPnc6nI37t5p_-30" edge="1">
          <mxGeometry relative="1" as="geometry" />
        </mxCell>
        <mxCell id="0MRBozEXPnc6nI37t5p_-41" value="$$logit(d_{gi})=\xi_i$$" style="ellipse;whiteSpace=wrap;html=1;fontSize=18;fillColor=#dae8fc;verticalAlign=top;strokeColor=#6c8ebf;fontStyle=1" parent="Ng6jZMpRb74rzdQvAZCZ-1" vertex="1">
          <mxGeometry x="470" y="550" width="160" height="80" as="geometry" />
        </mxCell>
      </root>
    </mxGraphModel>
  </diagram>
  <diagram id="1JhiE0-54L0CuQCdMGMv" name="MMCDM-IP">
    <mxGraphModel dx="1422" dy="706" grid="1" gridSize="10" guides="1" tooltips="1" connect="1" arrows="1" fold="1" page="1" pageScale="1" pageWidth="827" pageHeight="1169" math="1" shadow="0">
      <root>
        <mxCell id="gDwmZqPfWlkh8LFQUxSG-0" />
        <mxCell id="gDwmZqPfWlkh8LFQUxSG-1" parent="gDwmZqPfWlkh8LFQUxSG-0" />
        <mxCell id="gDwmZqPfWlkh8LFQUxSG-2" style="rounded=0;orthogonalLoop=1;jettySize=auto;html=1;strokeWidth=3;edgeStyle=orthogonalEdgeStyle;fontStyle=1;entryX=0.5;entryY=0;entryDx=0;entryDy=0;" parent="gDwmZqPfWlkh8LFQUxSG-1" source="gDwmZqPfWlkh8LFQUxSG-4" target="gDwmZqPfWlkh8LFQUxSG-31" edge="1">
          <mxGeometry relative="1" as="geometry">
            <mxPoint x="270" y="215" as="targetPoint" />
          </mxGeometry>
        </mxCell>
        <mxCell id="gDwmZqPfWlkh8LFQUxSG-3" style="edgeStyle=orthogonalEdgeStyle;rounded=0;orthogonalLoop=1;jettySize=auto;html=1;strokeWidth=3;fontStyle=1;entryX=0.5;entryY=0;entryDx=0;entryDy=0;" parent="gDwmZqPfWlkh8LFQUxSG-1" source="gDwmZqPfWlkh8LFQUxSG-4" target="gDwmZqPfWlkh8LFQUxSG-23" edge="1">
          <mxGeometry relative="1" as="geometry">
            <mxPoint x="940" y="150" as="targetPoint" />
          </mxGeometry>
        </mxCell>
        <mxCell id="gDwmZqPfWlkh8LFQUxSG-4" value="&lt;span style=&quot;font-size: 19px&quot;&gt;\(\phi_i\)&lt;/span&gt;" style="ellipse;whiteSpace=wrap;html=1;fillColor=#bac8d3;strokeColor=#23445d;fontSize=18;fontStyle=1" parent="gDwmZqPfWlkh8LFQUxSG-1" vertex="1">
          <mxGeometry x="534" y="50" width="120" height="80" as="geometry" />
        </mxCell>
        <mxCell id="gDwmZqPfWlkh8LFQUxSG-5" style="edgeStyle=none;rounded=0;orthogonalLoop=1;jettySize=auto;html=1;entryX=0.368;entryY=1.026;entryDx=0;entryDy=0;entryPerimeter=0;fontSize=18;fontColor=#000000;strokeWidth=3;dashed=1;fontStyle=1" parent="gDwmZqPfWlkh8LFQUxSG-1" source="gDwmZqPfWlkh8LFQUxSG-6" target="gDwmZqPfWlkh8LFQUxSG-29" edge="1">
          <mxGeometry relative="1" as="geometry" />
        </mxCell>
        <mxCell id="gDwmZqPfWlkh8LFQUxSG-6" value="$$&lt;br style=&quot;font-size: 15px&quot;&gt;\begin{pmatrix}\theta_n \\ \tau_n \end{pmatrix}\sim MVN(\mu_{person},\Sigma_{person})&lt;br&gt;\\&lt;br&gt;logit(\alpha_{nk})=\lambda_{0k}+\lambda_k \theta_n&lt;br style=&quot;font-size: 15px&quot;&gt;$$" style="ellipse;whiteSpace=wrap;html=1;fillColor=#dae8fc;strokeColor=#6c8ebf;fontSize=15;fontStyle=1" parent="gDwmZqPfWlkh8LFQUxSG-1" vertex="1">
          <mxGeometry x="160" y="542.5" width="280" height="130" as="geometry" />
        </mxCell>
        <mxCell id="gDwmZqPfWlkh8LFQUxSG-8" style="edgeStyle=none;rounded=0;orthogonalLoop=1;jettySize=auto;html=1;entryX=0.75;entryY=1;entryDx=0;entryDy=0;dashed=1;fontSize=18;fontColor=#000000;strokeWidth=3;fontStyle=1" parent="gDwmZqPfWlkh8LFQUxSG-1" source="gDwmZqPfWlkh8LFQUxSG-9" target="gDwmZqPfWlkh8LFQUxSG-29" edge="1">
          <mxGeometry relative="1" as="geometry" />
        </mxCell>
        <mxCell id="gDwmZqPfWlkh8LFQUxSG-9" value="$$(\xi_i,\delta_i,\beta_i) \sim MVN(\mu_{item&lt;br style=&quot;font-size: 17px&quot;&gt;},\Sigma_{item}),&lt;br style=&quot;font-size: 17px&quot;&gt;\\&lt;br style=&quot;font-size: 17px&quot;&gt;Q&lt;br&gt;$$" style="ellipse;whiteSpace=wrap;html=1;fillColor=#dae8fc;strokeColor=#6c8ebf;fontSize=17;align=center;verticalAlign=middle;fontStyle=1" parent="gDwmZqPfWlkh8LFQUxSG-1" vertex="1">
          <mxGeometry x="460" y="542.5" width="318.5" height="132.5" as="geometry" />
        </mxCell>
        <mxCell id="gDwmZqPfWlkh8LFQUxSG-10" value="&lt;font style=&quot;font-size: 18px;&quot;&gt;1&lt;/font&gt;" style="text;html=1;strokeColor=none;fillColor=none;align=center;verticalAlign=middle;whiteSpace=wrap;rounded=0;strokeWidth=0;fontSize=18;fontStyle=1" parent="gDwmZqPfWlkh8LFQUxSG-1" vertex="1">
          <mxGeometry x="737.5" y="50" width="60" height="30" as="geometry" />
        </mxCell>
        <mxCell id="gDwmZqPfWlkh8LFQUxSG-11" value="&lt;font style=&quot;font-size: 18px;&quot;&gt;0&lt;/font&gt;" style="text;html=1;strokeColor=none;fillColor=none;align=center;verticalAlign=middle;whiteSpace=wrap;rounded=0;fontSize=18;fontStyle=1" parent="gDwmZqPfWlkh8LFQUxSG-1" vertex="1">
          <mxGeometry x="370" y="50" width="60" height="30" as="geometry" />
        </mxCell>
        <mxCell id="gDwmZqPfWlkh8LFQUxSG-18" value="&lt;font style=&quot;font-size: 18px;&quot;&gt;0&lt;/font&gt;" style="text;html=1;strokeColor=none;fillColor=none;align=center;verticalAlign=middle;whiteSpace=wrap;rounded=0;fontSize=18;fontColor=#1A1A1A;fontStyle=1" parent="gDwmZqPfWlkh8LFQUxSG-1" vertex="1">
          <mxGeometry x="690" y="160" width="60" height="30" as="geometry" />
        </mxCell>
        <mxCell id="gDwmZqPfWlkh8LFQUxSG-21" style="edgeStyle=orthogonalEdgeStyle;rounded=0;orthogonalLoop=1;jettySize=auto;html=1;strokeWidth=3;entryX=0.567;entryY=0;entryDx=0;entryDy=0;entryPerimeter=0;" parent="gDwmZqPfWlkh8LFQUxSG-1" source="gDwmZqPfWlkh8LFQUxSG-23" target="gDwmZqPfWlkh8LFQUxSG-38" edge="1">
          <mxGeometry relative="1" as="geometry">
            <mxPoint x="800" y="255" as="targetPoint" />
          </mxGeometry>
        </mxCell>
        <mxCell id="gDwmZqPfWlkh8LFQUxSG-22" style="edgeStyle=orthogonalEdgeStyle;rounded=0;orthogonalLoop=1;jettySize=auto;html=1;strokeWidth=3;entryX=0.5;entryY=0;entryDx=0;entryDy=0;" parent="gDwmZqPfWlkh8LFQUxSG-1" source="gDwmZqPfWlkh8LFQUxSG-23" target="gDwmZqPfWlkh8LFQUxSG-36" edge="1">
          <mxGeometry relative="1" as="geometry" />
        </mxCell>
        <mxCell id="gDwmZqPfWlkh8LFQUxSG-23" value="&lt;font color=&quot;#000000&quot; style=&quot;font-size: 16px&quot;&gt;$$\kappa_{ni} \sim B(\upsilon_n)$$&lt;br style=&quot;font-size: 16px&quot;&gt;&lt;/font&gt;" style="ellipse;whiteSpace=wrap;html=1;fillColor=#bac8d3;strokeColor=#23445d;fontSize=16;align=center;verticalAlign=top;fontStyle=1" parent="gDwmZqPfWlkh8LFQUxSG-1" vertex="1">
          <mxGeometry x="740" y="170" width="120" height="60" as="geometry" />
        </mxCell>
        <mxCell id="gDwmZqPfWlkh8LFQUxSG-25" style="rounded=0;orthogonalLoop=1;jettySize=auto;html=1;strokeColor=#000000;strokeWidth=3;fontStyle=1;dashed=1;" parent="gDwmZqPfWlkh8LFQUxSG-1" source="gDwmZqPfWlkh8LFQUxSG-26" target="gDwmZqPfWlkh8LFQUxSG-23" edge="1">
          <mxGeometry relative="1" as="geometry" />
        </mxCell>
        <mxCell id="gDwmZqPfWlkh8LFQUxSG-26" value="$$\upsilon_n&amp;nbsp;&lt;br style=&quot;font-size: 18px&quot;&gt;$$" style="ellipse;whiteSpace=wrap;html=1;fillColor=#dae8fc;strokeColor=#6c8ebf;fontSize=18;fontStyle=1" parent="gDwmZqPfWlkh8LFQUxSG-1" vertex="1">
          <mxGeometry x="950" y="110" width="80" height="50" as="geometry" />
        </mxCell>
        <mxCell id="gDwmZqPfWlkh8LFQUxSG-28" style="edgeStyle=orthogonalEdgeStyle;rounded=0;orthogonalLoop=1;jettySize=auto;html=1;exitX=0.5;exitY=1;exitDx=0;exitDy=0;fontSize=18;fontColor=#000000;fontStyle=1" parent="gDwmZqPfWlkh8LFQUxSG-1" edge="1">
          <mxGeometry relative="1" as="geometry">
            <mxPoint x="837.5" y="380" as="sourcePoint" />
            <mxPoint x="837.5" y="380" as="targetPoint" />
          </mxGeometry>
        </mxCell>
        <mxCell id="gDwmZqPfWlkh8LFQUxSG-29" value="$$logit(P(Y_{ni}))= \xi_i+\delta_i \eta_{ni}\\&lt;br&gt;\eta_{ni} = \prod_{k=1}^K  \alpha_{nk}^{q_{ik}}&lt;br style=&quot;font-size: 18px&quot;&gt;\\&lt;br style=&quot;font-size: 18px&quot;&gt;\log(T_{ni})\sim N(\beta_i-\tau_n,1/\omega_i^2)&lt;br style=&quot;font-size: 18px&quot;&gt;$$" style="rounded=1;whiteSpace=wrap;html=1;fillColor=#ffe6cc;strokeColor=#d79b00;fontSize=18;fontStyle=1" parent="gDwmZqPfWlkh8LFQUxSG-1" vertex="1">
          <mxGeometry x="290" y="350" width="320" height="150" as="geometry" />
        </mxCell>
        <mxCell id="gDwmZqPfWlkh8LFQUxSG-30" style="rounded=0;orthogonalLoop=1;jettySize=auto;html=1;fontSize=18;fontColor=#000000;strokeWidth=3;fontStyle=1" parent="gDwmZqPfWlkh8LFQUxSG-1" source="gDwmZqPfWlkh8LFQUxSG-31" target="gDwmZqPfWlkh8LFQUxSG-29" edge="1">
          <mxGeometry relative="1" as="geometry" />
        </mxCell>
        <mxCell id="gDwmZqPfWlkh8LFQUxSG-31" value="解答行为" style="rounded=0;whiteSpace=wrap;html=1;fontSize=18;fillColor=#ffe6cc;strokeColor=#d79b00;fontStyle=1" parent="gDwmZqPfWlkh8LFQUxSG-1" vertex="1">
          <mxGeometry x="200" y="240" width="120" height="60" as="geometry" />
        </mxCell>
        <mxCell id="gDwmZqPfWlkh8LFQUxSG-35" style="edgeStyle=none;rounded=0;orthogonalLoop=1;jettySize=auto;html=1;entryX=0.5;entryY=0;entryDx=0;entryDy=0;fontSize=18;fontColor=#000000;strokeWidth=3;fontStyle=1" parent="gDwmZqPfWlkh8LFQUxSG-1" source="gDwmZqPfWlkh8LFQUxSG-36" target="gDwmZqPfWlkh8LFQUxSG-41" edge="1">
          <mxGeometry relative="1" as="geometry" />
        </mxCell>
        <mxCell id="gDwmZqPfWlkh8LFQUxSG-36" value="预知题目" style="rounded=0;whiteSpace=wrap;html=1;fontSize=18;fillColor=#e1d5e7;strokeColor=#9673a6;fontStyle=1" parent="gDwmZqPfWlkh8LFQUxSG-1" vertex="1">
          <mxGeometry x="890" y="350" width="120" height="60" as="geometry" />
        </mxCell>
        <mxCell id="gDwmZqPfWlkh8LFQUxSG-37" style="edgeStyle=none;rounded=0;orthogonalLoop=1;jettySize=auto;html=1;fontSize=18;fontColor=#000000;strokeWidth=3;fontStyle=1;entryX=0.626;entryY=-0.006;entryDx=0;entryDy=0;entryPerimeter=0;" parent="gDwmZqPfWlkh8LFQUxSG-1" source="gDwmZqPfWlkh8LFQUxSG-38" target="gDwmZqPfWlkh8LFQUxSG-29" edge="1">
          <mxGeometry relative="1" as="geometry" />
        </mxCell>
        <mxCell id="gDwmZqPfWlkh8LFQUxSG-38" value="解答行为" style="rounded=0;whiteSpace=wrap;html=1;fontSize=18;fillColor=#ffe6cc;strokeColor=#d79b00;fontStyle=1" parent="gDwmZqPfWlkh8LFQUxSG-1" vertex="1">
          <mxGeometry x="600" y="240" width="120" height="60" as="geometry" />
        </mxCell>
        <mxCell id="gDwmZqPfWlkh8LFQUxSG-41" value="$$&lt;br&gt;P(Y_{ni})=d_{ci}&lt;br style=&quot;font-size: 18px&quot;&gt;\\&lt;br&gt;\log(T_{ni}) \sim N(\mu_c,\sigma_c^2)&lt;br style=&quot;font-size: 18px&quot;&gt;$$" style="rounded=1;whiteSpace=wrap;html=1;fillColor=#e1d5e7;strokeColor=#9673a6;fontSize=18;fontStyle=1" parent="gDwmZqPfWlkh8LFQUxSG-1" vertex="1">
          <mxGeometry x="848.75" y="490" width="202.5" height="80" as="geometry" />
        </mxCell>
        <mxCell id="gDwmZqPfWlkh8LFQUxSG-44" value="1" style="text;html=1;strokeColor=none;fillColor=none;align=center;verticalAlign=middle;whiteSpace=wrap;rounded=0;strokeWidth=0;fontSize=18;fontStyle=1;fontColor=#1A1A1A;" parent="gDwmZqPfWlkh8LFQUxSG-1" vertex="1">
          <mxGeometry x="880" y="170" width="60" height="30" as="geometry" />
        </mxCell>
      </root>
    </mxGraphModel>
  </diagram>
  <diagram id="4U3r_PuPg_Dw5-ceh4Sm" name="P(2016)">
    <mxGraphModel dx="1422" dy="706" grid="1" gridSize="10" guides="1" tooltips="1" connect="1" arrows="1" fold="1" page="1" pageScale="1" pageWidth="827" pageHeight="1169" math="1" shadow="0">
      <root>
        <mxCell id="l37UWStU9EIzYD9e6Q26-0" />
        <mxCell id="l37UWStU9EIzYD9e6Q26-1" parent="l37UWStU9EIzYD9e6Q26-0" />
        <mxCell id="hDOINf5i47YHEttu0anf-14" value="" style="edgeStyle=orthogonalEdgeStyle;rounded=0;orthogonalLoop=1;jettySize=auto;html=1;fontSize=26;strokeWidth=3;" parent="l37UWStU9EIzYD9e6Q26-1" source="hDOINf5i47YHEttu0anf-12" target="vR1Md2MOravfLJ67DapI-0" edge="1">
          <mxGeometry relative="1" as="geometry">
            <mxPoint x="1000" y="230" as="targetPoint" />
          </mxGeometry>
        </mxCell>
        <mxCell id="hDOINf5i47YHEttu0anf-12" value="$$time_{ni}$$" style="rounded=1;whiteSpace=wrap;html=1;fontSize=20;" parent="l37UWStU9EIzYD9e6Q26-1" vertex="1">
          <mxGeometry x="940" y="35" width="120" height="60" as="geometry" />
        </mxCell>
        <mxCell id="hDOINf5i47YHEttu0anf-16" value="" style="edgeStyle=orthogonalEdgeStyle;rounded=0;orthogonalLoop=1;jettySize=auto;html=1;fontSize=20;strokeWidth=3;exitX=0.5;exitY=1;exitDx=0;exitDy=0;" parent="l37UWStU9EIzYD9e6Q26-1" source="vR1Md2MOravfLJ67DapI-0" target="hDOINf5i47YHEttu0anf-15" edge="1">
          <mxGeometry relative="1" as="geometry">
            <mxPoint x="1000" y="290" as="sourcePoint" />
          </mxGeometry>
        </mxCell>
        <mxCell id="hDOINf5i47YHEttu0anf-15" value="$$P(Y_{ni}=1)=\pi_{ni|Z}+(1-\pi_{ni|Z}) \frac{exp(\theta_n-\beta_i)}{1+exp(&lt;br&gt;\theta_n-\beta_i])&lt;br&gt;}&lt;br&gt;$$" style="whiteSpace=wrap;html=1;fontSize=20;rounded=1;" parent="l37UWStU9EIzYD9e6Q26-1" vertex="1">
          <mxGeometry x="727.8199999999999" y="400" width="544.37" height="130" as="geometry" />
        </mxCell>
        <mxCell id="vR1Md2MOravfLJ67DapI-0" value="&lt;span&gt;$$logit(\pi_{ni|Z})=a+b·time_{ni}$$&lt;/span&gt;" style="ellipse;whiteSpace=wrap;html=1;fontSize=20;" parent="l37UWStU9EIzYD9e6Q26-1" vertex="1">
          <mxGeometry x="835" y="220" width="330" height="80" as="geometry" />
        </mxCell>
      </root>
    </mxGraphModel>
  </diagram>
  <diagram id="L8Cq4padf4Fs0A9TIjZe" name="Page-10">
    <mxGraphModel dx="1422" dy="706" grid="1" gridSize="10" guides="1" tooltips="1" connect="1" arrows="1" fold="1" page="1" pageScale="1" pageWidth="827" pageHeight="1169" math="1" shadow="0">
      <root>
        <mxCell id="D2Gihe0I1U_pXjFZQ_eV-0" />
        <mxCell id="D2Gihe0I1U_pXjFZQ_eV-1" parent="D2Gihe0I1U_pXjFZQ_eV-0" />
        <mxCell id="YhXmYBd457wFcF0yNt2_-0" value="" style="rounded=0;orthogonalLoop=1;jettySize=auto;html=1;fontSize=26;strokeWidth=3;" parent="D2Gihe0I1U_pXjFZQ_eV-1" source="YhXmYBd457wFcF0yNt2_-1" target="YhXmYBd457wFcF0yNt2_-4" edge="1">
          <mxGeometry relative="1" as="geometry">
            <mxPoint x="1000" y="230" as="targetPoint" />
          </mxGeometry>
        </mxCell>
        <mxCell id="YhXmYBd457wFcF0yNt2_-1" value="$$\log (T_{ni})$$" style="rounded=1;whiteSpace=wrap;html=1;fontSize=20;" parent="D2Gihe0I1U_pXjFZQ_eV-1" vertex="1">
          <mxGeometry x="870" y="50" width="120" height="60" as="geometry" />
        </mxCell>
        <mxCell id="YhXmYBd457wFcF0yNt2_-2" value="" style="edgeStyle=orthogonalEdgeStyle;rounded=0;orthogonalLoop=1;jettySize=auto;html=1;fontSize=20;strokeWidth=3;exitX=0.5;exitY=1;exitDx=0;exitDy=0;" parent="D2Gihe0I1U_pXjFZQ_eV-1" source="YhXmYBd457wFcF0yNt2_-4" target="YhXmYBd457wFcF0yNt2_-3" edge="1">
          <mxGeometry relative="1" as="geometry">
            <mxPoint x="1000" y="290" as="sourcePoint" />
          </mxGeometry>
        </mxCell>
        <mxCell id="YhXmYBd457wFcF0yNt2_-3" value="$$P(Y_{ni}=1)=\pi_{ni}P(Y_{ni}|\theta_n,a_0,b_0)+(1-\pi_{ni}&lt;br&gt;)P(Y_{ni}|\theta_n,a_1,b_1)&lt;br&gt;$$" style="whiteSpace=wrap;html=1;fontSize=20;rounded=1;" parent="D2Gihe0I1U_pXjFZQ_eV-1" vertex="1">
          <mxGeometry x="716.4100000000001" y="420" width="657.18" height="130" as="geometry" />
        </mxCell>
        <mxCell id="YhXmYBd457wFcF0yNt2_-4" value="$$logit(P(\pi_{ni}=0)=\zeta_1\left(\frac{\log(T_{ni})&lt;br&gt;-(\beta_i-\tau_n)}{\omega_{i}}-\zeta_0\right&lt;br&gt;)$$" style="ellipse;whiteSpace=wrap;html=1;fontSize=20;" parent="D2Gihe0I1U_pXjFZQ_eV-1" vertex="1">
          <mxGeometry x="710" y="200" width="670" height="130" as="geometry" />
        </mxCell>
        <mxCell id="YhXmYBd457wFcF0yNt2_-6" style="edgeStyle=none;rounded=0;orthogonalLoop=1;jettySize=auto;html=1;fontSize=20;strokeWidth=3;" parent="D2Gihe0I1U_pXjFZQ_eV-1" source="YhXmYBd457wFcF0yNt2_-5" target="YhXmYBd457wFcF0yNt2_-4" edge="1">
          <mxGeometry relative="1" as="geometry" />
        </mxCell>
        <mxCell id="YhXmYBd457wFcF0yNt2_-5" value="$$\beta_i\\ \omega_i$$" style="ellipse;whiteSpace=wrap;html=1;fontSize=20;" parent="D2Gihe0I1U_pXjFZQ_eV-1" vertex="1">
          <mxGeometry x="1020" y="30" width="120" height="80" as="geometry" />
        </mxCell>
        <mxCell id="YhXmYBd457wFcF0yNt2_-8" style="edgeStyle=none;rounded=0;orthogonalLoop=1;jettySize=auto;html=1;fontSize=20;strokeWidth=3;" parent="D2Gihe0I1U_pXjFZQ_eV-1" source="YhXmYBd457wFcF0yNt2_-7" target="YhXmYBd457wFcF0yNt2_-4" edge="1">
          <mxGeometry relative="1" as="geometry" />
        </mxCell>
        <mxCell id="YhXmYBd457wFcF0yNt2_-7" value="$$\tau_n$$" style="ellipse;whiteSpace=wrap;html=1;fontSize=20;" parent="D2Gihe0I1U_pXjFZQ_eV-1" vertex="1">
          <mxGeometry x="1152.19" y="30" width="120" height="80" as="geometry" />
        </mxCell>
      </root>
    </mxGraphModel>
  </diagram>
  <diagram id="JVxXbUKNk9eqv1aZEjJ6" name="Hsu（2020）">
    <mxGraphModel dx="1422" dy="706" grid="1" gridSize="10" guides="1" tooltips="1" connect="1" arrows="1" fold="1" page="1" pageScale="1" pageWidth="827" pageHeight="1169" math="1" shadow="0">
      <root>
        <mxCell id="xfTD9bkNNBq5h0dDa1ho-0" />
        <mxCell id="xfTD9bkNNBq5h0dDa1ho-1" parent="xfTD9bkNNBq5h0dDa1ho-0" />
        <mxCell id="xfTD9bkNNBq5h0dDa1ho-2" style="edgeStyle=none;rounded=0;orthogonalLoop=1;jettySize=auto;html=1;entryX=0.368;entryY=1.026;entryDx=0;entryDy=0;entryPerimeter=0;fontSize=18;fontColor=#000000;strokeWidth=3;dashed=1;fontStyle=1" parent="xfTD9bkNNBq5h0dDa1ho-1" source="xfTD9bkNNBq5h0dDa1ho-3" target="xfTD9bkNNBq5h0dDa1ho-13" edge="1">
          <mxGeometry relative="1" as="geometry" />
        </mxCell>
        <mxCell id="xfTD9bkNNBq5h0dDa1ho-3" value="$$&lt;br style=&quot;font-size: 15px&quot;&gt;\alpha_{ni}\\ \ \\ \tau_n&lt;br style=&quot;font-size: 15px&quot;&gt;$$" style="ellipse;whiteSpace=wrap;html=1;fillColor=#dae8fc;strokeColor=#6c8ebf;fontSize=15;fontStyle=1" parent="xfTD9bkNNBq5h0dDa1ho-1" vertex="1">
          <mxGeometry y="640" width="280" height="120" as="geometry" />
        </mxCell>
        <mxCell id="xfTD9bkNNBq5h0dDa1ho-4" style="edgeStyle=none;rounded=0;orthogonalLoop=1;jettySize=auto;html=1;dashed=1;fontSize=18;fontColor=#000000;strokeWidth=3;fontStyle=1" parent="xfTD9bkNNBq5h0dDa1ho-1" source="xfTD9bkNNBq5h0dDa1ho-6" target="xfTD9bkNNBq5h0dDa1ho-20" edge="1">
          <mxGeometry relative="1" as="geometry">
            <mxPoint x="740" y="750" as="targetPoint" />
          </mxGeometry>
        </mxCell>
        <mxCell id="xfTD9bkNNBq5h0dDa1ho-5" style="edgeStyle=none;rounded=0;orthogonalLoop=1;jettySize=auto;html=1;entryX=1;entryY=1;entryDx=0;entryDy=0;dashed=1;fontSize=18;fontColor=#000000;strokeWidth=3;fontStyle=1" parent="xfTD9bkNNBq5h0dDa1ho-1" source="xfTD9bkNNBq5h0dDa1ho-6" target="xfTD9bkNNBq5h0dDa1ho-13" edge="1">
          <mxGeometry relative="1" as="geometry" />
        </mxCell>
        <mxCell id="xfTD9bkNNBq5h0dDa1ho-6" value="$$\xi_i\\ s_i\\ g_i&lt;br style=&quot;font-size: 17px&quot;&gt;\\&lt;br style=&quot;font-size: 17px&quot;&gt;Q&lt;br&gt;$$" style="ellipse;whiteSpace=wrap;html=1;fillColor=#dae8fc;strokeColor=#6c8ebf;fontSize=17;align=center;verticalAlign=middle;fontStyle=1" parent="xfTD9bkNNBq5h0dDa1ho-1" vertex="1">
          <mxGeometry x="311.5" y="660" width="318.5" height="132.5" as="geometry" />
        </mxCell>
        <mxCell id="xfTD9bkNNBq5h0dDa1ho-7" style="rounded=0;orthogonalLoop=1;jettySize=auto;html=1;strokeWidth=3;entryX=0.437;entryY=-0.013;entryDx=0;entryDy=0;entryPerimeter=0;fillColor=#ffcc99;strokeColor=#36393d;edgeStyle=orthogonalEdgeStyle;fontStyle=1" parent="xfTD9bkNNBq5h0dDa1ho-1" source="xfTD9bkNNBq5h0dDa1ho-9" target="xfTD9bkNNBq5h0dDa1ho-15" edge="1">
          <mxGeometry relative="1" as="geometry">
            <mxPoint x="164" y="340" as="targetPoint" />
          </mxGeometry>
        </mxCell>
        <mxCell id="xfTD9bkNNBq5h0dDa1ho-8" style="edgeStyle=orthogonalEdgeStyle;rounded=0;orthogonalLoop=1;jettySize=auto;html=1;fontSize=25;strokeColor=#000000;strokeWidth=3;entryX=0.5;entryY=0;entryDx=0;entryDy=0;fontStyle=1" parent="xfTD9bkNNBq5h0dDa1ho-1" source="xfTD9bkNNBq5h0dDa1ho-9" target="xfTD9bkNNBq5h0dDa1ho-18" edge="1">
          <mxGeometry relative="1" as="geometry">
            <mxPoint x="422.5" y="360" as="targetPoint" />
          </mxGeometry>
        </mxCell>
        <mxCell id="xfTD9bkNNBq5h0dDa1ho-9" value="&lt;span style=&quot;font-size: 18px&quot;&gt;$$\Delta_{ni}$$&lt;/span&gt;" style="ellipse;whiteSpace=wrap;html=1;fontSize=19;align=center;fillColor=#bac8d3;strokeColor=#23445d;fontStyle=1" parent="xfTD9bkNNBq5h0dDa1ho-1" vertex="1">
          <mxGeometry x="310" y="180" width="120" height="80" as="geometry" />
        </mxCell>
        <mxCell id="xfTD9bkNNBq5h0dDa1ho-10" value="&lt;font style=&quot;font-size: 18px;&quot;&gt;0&lt;/font&gt;" style="text;html=1;strokeColor=none;fillColor=none;align=center;verticalAlign=middle;whiteSpace=wrap;rounded=0;fontSize=18;fontStyle=1" parent="xfTD9bkNNBq5h0dDa1ho-1" vertex="1">
          <mxGeometry x="220" y="180" width="60" height="30" as="geometry" />
        </mxCell>
        <mxCell id="xfTD9bkNNBq5h0dDa1ho-11" value="&lt;font style=&quot;font-size: 18px&quot;&gt;1&lt;/font&gt;" style="text;html=1;strokeColor=none;fillColor=none;align=center;verticalAlign=middle;whiteSpace=wrap;rounded=0;fontSize=18;fontStyle=1" parent="xfTD9bkNNBq5h0dDa1ho-1" vertex="1">
          <mxGeometry x="470" y="180" width="60" height="30" as="geometry" />
        </mxCell>
        <mxCell id="xfTD9bkNNBq5h0dDa1ho-12" style="edgeStyle=orthogonalEdgeStyle;rounded=0;orthogonalLoop=1;jettySize=auto;html=1;exitX=0.5;exitY=1;exitDx=0;exitDy=0;fontSize=18;fontColor=#000000;fontStyle=1" parent="xfTD9bkNNBq5h0dDa1ho-1" edge="1">
          <mxGeometry relative="1" as="geometry">
            <mxPoint x="837.5" y="380" as="sourcePoint" />
            <mxPoint x="837.5" y="380" as="targetPoint" />
          </mxGeometry>
        </mxCell>
        <mxCell id="xfTD9bkNNBq5h0dDa1ho-13" value="$$P(Y_{ni})= g_i+(1-s_i-g_i) \eta_{ni}$$$$\eta_{ni} = \prod_{k=1}^K  \alpha_{nk}^{q_{ik}}$$$$\log(T_{ni})\sim N(\beta_i-\tau_n,1/\omega_i^2)&lt;br style=&quot;font-size: 18px&quot;&gt;$$" style="rounded=1;whiteSpace=wrap;html=1;fillColor=#ffe6cc;strokeColor=#d79b00;fontSize=18;fontStyle=1" parent="xfTD9bkNNBq5h0dDa1ho-1" vertex="1">
          <mxGeometry x="10" y="420" width="360" height="150" as="geometry" />
        </mxCell>
        <mxCell id="xfTD9bkNNBq5h0dDa1ho-14" style="rounded=0;orthogonalLoop=1;jettySize=auto;html=1;fontSize=18;fontColor=#000000;strokeWidth=3;fontStyle=1" parent="xfTD9bkNNBq5h0dDa1ho-1" source="xfTD9bkNNBq5h0dDa1ho-15" target="xfTD9bkNNBq5h0dDa1ho-13" edge="1">
          <mxGeometry relative="1" as="geometry" />
        </mxCell>
        <mxCell id="xfTD9bkNNBq5h0dDa1ho-15" value="解答行为" style="rounded=0;whiteSpace=wrap;html=1;fontSize=18;fillColor=#ffe6cc;strokeColor=#d79b00;fontStyle=1" parent="xfTD9bkNNBq5h0dDa1ho-1" vertex="1">
          <mxGeometry x="130" y="300" width="120" height="60" as="geometry" />
        </mxCell>
        <mxCell id="xfTD9bkNNBq5h0dDa1ho-16" value="$$&lt;br&gt;P(Y_{ni})=d_{gi}&lt;br style=&quot;font-size: 18px&quot;&gt;$$$$\log(T_{ni}) \sim N(\mu_c,\sigma_c^2)&lt;br style=&quot;font-size: 18px&quot;&gt;$$" style="rounded=1;whiteSpace=wrap;html=1;fillColor=#d5e8d4;strokeColor=#82b366;fontSize=18;fontStyle=1" parent="xfTD9bkNNBq5h0dDa1ho-1" vertex="1">
          <mxGeometry x="458.5" y="420" width="200" height="70" as="geometry" />
        </mxCell>
        <mxCell id="xfTD9bkNNBq5h0dDa1ho-17" style="rounded=0;orthogonalLoop=1;jettySize=auto;html=1;fontSize=18;fontColor=#000000;strokeWidth=3;fontStyle=1" parent="xfTD9bkNNBq5h0dDa1ho-1" source="xfTD9bkNNBq5h0dDa1ho-18" target="xfTD9bkNNBq5h0dDa1ho-16" edge="1">
          <mxGeometry relative="1" as="geometry" />
        </mxCell>
        <mxCell id="xfTD9bkNNBq5h0dDa1ho-18" value="快速猜测" style="rounded=0;whiteSpace=wrap;html=1;fontSize=18;fillColor=#d5e8d4;strokeColor=#82b366;fontStyle=1" parent="xfTD9bkNNBq5h0dDa1ho-1" vertex="1">
          <mxGeometry x="498.5" y="300" width="120" height="60" as="geometry" />
        </mxCell>
        <mxCell id="xfTD9bkNNBq5h0dDa1ho-19" style="edgeStyle=none;rounded=0;orthogonalLoop=1;jettySize=auto;html=1;dashed=1;fontSize=18;fontColor=#000000;strokeWidth=3;fontStyle=1" parent="xfTD9bkNNBq5h0dDa1ho-1" source="xfTD9bkNNBq5h0dDa1ho-20" target="xfTD9bkNNBq5h0dDa1ho-16" edge="1">
          <mxGeometry relative="1" as="geometry" />
        </mxCell>
        <mxCell id="xfTD9bkNNBq5h0dDa1ho-20" value="$$logit(d_{gi})=g_i$$" style="ellipse;whiteSpace=wrap;html=1;fontSize=18;fillColor=#dae8fc;verticalAlign=top;strokeColor=#6c8ebf;fontStyle=1" parent="xfTD9bkNNBq5h0dDa1ho-1" vertex="1">
          <mxGeometry x="470" y="550" width="160" height="80" as="geometry" />
        </mxCell>
      </root>
    </mxGraphModel>
  </diagram>
  <diagram id="FFRRrMSrd70dw9kUXnUI" name="PPT Hsu 2020">
    <mxGraphModel dx="1422" dy="706" grid="1" gridSize="10" guides="1" tooltips="1" connect="1" arrows="1" fold="1" page="1" pageScale="1" pageWidth="827" pageHeight="1169" math="1" shadow="0">
      <root>
        <mxCell id="fc8GvQguqPCrbs50yepB-0" />
        <mxCell id="fc8GvQguqPCrbs50yepB-1" parent="fc8GvQguqPCrbs50yepB-0" />
        <mxCell id="fc8GvQguqPCrbs50yepB-2" style="edgeStyle=none;rounded=0;orthogonalLoop=1;jettySize=auto;html=1;entryX=0.368;entryY=1.026;entryDx=0;entryDy=0;entryPerimeter=0;fontSize=18;fontColor=#000000;strokeWidth=3;dashed=1;fontStyle=1" parent="fc8GvQguqPCrbs50yepB-1" source="fc8GvQguqPCrbs50yepB-3" target="fc8GvQguqPCrbs50yepB-13" edge="1">
          <mxGeometry relative="1" as="geometry" />
        </mxCell>
        <mxCell id="fc8GvQguqPCrbs50yepB-3" value="$$&lt;br style=&quot;font-size: 26px;&quot;&gt;\alpha_{ni}\\ \ \\ \tau_n&lt;br style=&quot;font-size: 26px;&quot;&gt;$$" style="ellipse;whiteSpace=wrap;html=1;fillColor=#dae8fc;strokeColor=#6c8ebf;fontSize=26;fontStyle=1" parent="fc8GvQguqPCrbs50yepB-1" vertex="1">
          <mxGeometry y="640" width="280" height="120" as="geometry" />
        </mxCell>
        <mxCell id="fc8GvQguqPCrbs50yepB-4" style="edgeStyle=none;rounded=0;orthogonalLoop=1;jettySize=auto;html=1;dashed=1;fontSize=18;fontColor=#000000;strokeWidth=3;fontStyle=1" parent="fc8GvQguqPCrbs50yepB-1" source="fc8GvQguqPCrbs50yepB-6" target="fc8GvQguqPCrbs50yepB-20" edge="1">
          <mxGeometry relative="1" as="geometry">
            <mxPoint x="740" y="750" as="targetPoint" />
          </mxGeometry>
        </mxCell>
        <mxCell id="fc8GvQguqPCrbs50yepB-5" style="edgeStyle=none;rounded=0;orthogonalLoop=1;jettySize=auto;html=1;entryX=1;entryY=1;entryDx=0;entryDy=0;dashed=1;fontSize=18;fontColor=#000000;strokeWidth=3;fontStyle=1" parent="fc8GvQguqPCrbs50yepB-1" source="fc8GvQguqPCrbs50yepB-6" target="fc8GvQguqPCrbs50yepB-13" edge="1">
          <mxGeometry relative="1" as="geometry" />
        </mxCell>
        <mxCell id="fc8GvQguqPCrbs50yepB-6" value="$$\xi_i\\ \delta_i\\ \beta_i&lt;br style=&quot;font-size: 21px;&quot;&gt;\\&lt;br style=&quot;font-size: 21px;&quot;&gt;Q&lt;br style=&quot;font-size: 21px;&quot;&gt;$$" style="ellipse;whiteSpace=wrap;html=1;fillColor=#dae8fc;strokeColor=#6c8ebf;fontSize=21;align=center;verticalAlign=middle;fontStyle=1" parent="fc8GvQguqPCrbs50yepB-1" vertex="1">
          <mxGeometry x="311.5" y="660" width="318.5" height="132.5" as="geometry" />
        </mxCell>
        <mxCell id="fc8GvQguqPCrbs50yepB-7" style="rounded=0;orthogonalLoop=1;jettySize=auto;html=1;strokeWidth=3;entryX=0.437;entryY=-0.013;entryDx=0;entryDy=0;entryPerimeter=0;fillColor=#ffcc99;strokeColor=#36393d;edgeStyle=orthogonalEdgeStyle;fontStyle=1" parent="fc8GvQguqPCrbs50yepB-1" source="fc8GvQguqPCrbs50yepB-9" target="fc8GvQguqPCrbs50yepB-15" edge="1">
          <mxGeometry relative="1" as="geometry">
            <mxPoint x="164" y="340" as="targetPoint" />
          </mxGeometry>
        </mxCell>
        <mxCell id="fc8GvQguqPCrbs50yepB-8" style="edgeStyle=orthogonalEdgeStyle;rounded=0;orthogonalLoop=1;jettySize=auto;html=1;fontSize=25;strokeColor=#000000;strokeWidth=3;entryX=0.5;entryY=0;entryDx=0;entryDy=0;fontStyle=1" parent="fc8GvQguqPCrbs50yepB-1" source="fc8GvQguqPCrbs50yepB-9" target="fc8GvQguqPCrbs50yepB-18" edge="1">
          <mxGeometry relative="1" as="geometry">
            <mxPoint x="422.5" y="360" as="targetPoint" />
          </mxGeometry>
        </mxCell>
        <mxCell id="fc8GvQguqPCrbs50yepB-9" value="&lt;span style=&quot;font-size: 18px&quot;&gt;$$\Delta_{ni}$$&lt;/span&gt;" style="ellipse;whiteSpace=wrap;html=1;fontSize=19;align=center;fillColor=#bac8d3;strokeColor=#23445d;fontStyle=1" parent="fc8GvQguqPCrbs50yepB-1" vertex="1">
          <mxGeometry x="310" y="180" width="120" height="80" as="geometry" />
        </mxCell>
        <mxCell id="fc8GvQguqPCrbs50yepB-10" value="&lt;font style=&quot;font-size: 18px;&quot;&gt;0&lt;/font&gt;" style="text;html=1;strokeColor=none;fillColor=none;align=center;verticalAlign=middle;whiteSpace=wrap;rounded=0;fontSize=18;fontStyle=1" parent="fc8GvQguqPCrbs50yepB-1" vertex="1">
          <mxGeometry x="220" y="180" width="60" height="30" as="geometry" />
        </mxCell>
        <mxCell id="fc8GvQguqPCrbs50yepB-11" value="&lt;font style=&quot;font-size: 18px&quot;&gt;1&lt;/font&gt;" style="text;html=1;strokeColor=none;fillColor=none;align=center;verticalAlign=middle;whiteSpace=wrap;rounded=0;fontSize=18;fontStyle=1" parent="fc8GvQguqPCrbs50yepB-1" vertex="1">
          <mxGeometry x="470" y="180" width="60" height="30" as="geometry" />
        </mxCell>
        <mxCell id="fc8GvQguqPCrbs50yepB-12" style="edgeStyle=orthogonalEdgeStyle;rounded=0;orthogonalLoop=1;jettySize=auto;html=1;exitX=0.5;exitY=1;exitDx=0;exitDy=0;fontSize=18;fontColor=#000000;fontStyle=1" parent="fc8GvQguqPCrbs50yepB-1" edge="1">
          <mxGeometry relative="1" as="geometry">
            <mxPoint x="837.5" y="380" as="sourcePoint" />
            <mxPoint x="837.5" y="380" as="targetPoint" />
          </mxGeometry>
        </mxCell>
        <mxCell id="fc8GvQguqPCrbs50yepB-13" value="$$logit(P(Y_{ni}))= \xi_i+\delta_i \eta_{ni}\\&lt;br&gt;\eta_{ni} = \prod_{k=1}^K  \alpha_{nk}^{q_{ik}}&lt;br style=&quot;font-size: 18px&quot;&gt;\\&lt;br style=&quot;font-size: 18px&quot;&gt;\log(T_{ni})\sim N(\beta_i-\tau_n,1/\omega_i^2)&lt;br style=&quot;font-size: 18px&quot;&gt;$$" style="rounded=1;whiteSpace=wrap;html=1;fillColor=#ffe6cc;strokeColor=#d79b00;fontSize=18;fontStyle=1" parent="fc8GvQguqPCrbs50yepB-1" vertex="1">
          <mxGeometry x="30" y="420" width="320" height="150" as="geometry" />
        </mxCell>
        <mxCell id="fc8GvQguqPCrbs50yepB-14" style="rounded=0;orthogonalLoop=1;jettySize=auto;html=1;fontSize=18;fontColor=#000000;strokeWidth=3;fontStyle=1" parent="fc8GvQguqPCrbs50yepB-1" source="fc8GvQguqPCrbs50yepB-15" target="fc8GvQguqPCrbs50yepB-13" edge="1">
          <mxGeometry relative="1" as="geometry" />
        </mxCell>
        <mxCell id="fc8GvQguqPCrbs50yepB-15" value="解答行为" style="rounded=0;whiteSpace=wrap;html=1;fontSize=18;fillColor=#ffe6cc;strokeColor=#d79b00;fontStyle=1" parent="fc8GvQguqPCrbs50yepB-1" vertex="1">
          <mxGeometry x="130" y="300" width="120" height="60" as="geometry" />
        </mxCell>
        <mxCell id="fc8GvQguqPCrbs50yepB-16" value="$$&lt;br&gt;P(Y_{ni})=d_{gi}&lt;br style=&quot;font-size: 18px&quot;&gt;\\&lt;br&gt;\log(T_{ni}) \sim N(\mu_c,\sigma_c^2)&lt;br style=&quot;font-size: 18px&quot;&gt;$$" style="rounded=1;whiteSpace=wrap;html=1;fillColor=#d5e8d4;strokeColor=#82b366;fontSize=18;fontStyle=1" parent="fc8GvQguqPCrbs50yepB-1" vertex="1">
          <mxGeometry x="458.5" y="420" width="200" height="70" as="geometry" />
        </mxCell>
        <mxCell id="fc8GvQguqPCrbs50yepB-17" style="rounded=0;orthogonalLoop=1;jettySize=auto;html=1;fontSize=18;fontColor=#000000;strokeWidth=3;fontStyle=1" parent="fc8GvQguqPCrbs50yepB-1" source="fc8GvQguqPCrbs50yepB-18" target="fc8GvQguqPCrbs50yepB-16" edge="1">
          <mxGeometry relative="1" as="geometry" />
        </mxCell>
        <mxCell id="fc8GvQguqPCrbs50yepB-18" value="快速猜测" style="rounded=0;whiteSpace=wrap;html=1;fontSize=18;fillColor=#d5e8d4;strokeColor=#82b366;fontStyle=1" parent="fc8GvQguqPCrbs50yepB-1" vertex="1">
          <mxGeometry x="498.5" y="300" width="120" height="60" as="geometry" />
        </mxCell>
        <mxCell id="fc8GvQguqPCrbs50yepB-19" style="edgeStyle=none;rounded=0;orthogonalLoop=1;jettySize=auto;html=1;dashed=1;fontSize=18;fontColor=#000000;strokeWidth=3;fontStyle=1" parent="fc8GvQguqPCrbs50yepB-1" source="fc8GvQguqPCrbs50yepB-20" target="fc8GvQguqPCrbs50yepB-16" edge="1">
          <mxGeometry relative="1" as="geometry" />
        </mxCell>
        <mxCell id="fc8GvQguqPCrbs50yepB-20" value="$$logit(d_{gi})=\xi_i$$" style="ellipse;whiteSpace=wrap;html=1;fontSize=18;fillColor=#dae8fc;verticalAlign=top;strokeColor=#6c8ebf;fontStyle=1" parent="fc8GvQguqPCrbs50yepB-1" vertex="1">
          <mxGeometry x="470" y="550" width="160" height="80" as="geometry" />
        </mxCell>
      </root>
    </mxGraphModel>
  </diagram>
  <diagram id="mlECtPO0y9WK5JwLvxLy" name="PPT MA structure">
    <mxGraphModel dx="2249" dy="762" grid="1" gridSize="10" guides="1" tooltips="1" connect="1" arrows="1" fold="1" page="1" pageScale="1" pageWidth="827" pageHeight="1169" math="1" shadow="0">
      <root>
        <mxCell id="IImlJRdM4ZFC-RLVY_hn-0" />
        <mxCell id="IImlJRdM4ZFC-RLVY_hn-1" parent="IImlJRdM4ZFC-RLVY_hn-0" />
        <mxCell id="IImlJRdM4ZFC-RLVY_hn-2" style="edgeStyle=orthogonalEdgeStyle;rounded=0;orthogonalLoop=1;jettySize=auto;html=1;fontSize=18;fontColor=#000000;fontStyle=1" parent="IImlJRdM4ZFC-RLVY_hn-1" source="IImlJRdM4ZFC-RLVY_hn-4" target="IImlJRdM4ZFC-RLVY_hn-7" edge="1">
          <mxGeometry relative="1" as="geometry">
            <mxPoint x="190" y="330" as="targetPoint" />
            <mxPoint x="270" y="190" as="sourcePoint" />
          </mxGeometry>
        </mxCell>
        <mxCell id="IImlJRdM4ZFC-RLVY_hn-3" style="edgeStyle=orthogonalEdgeStyle;rounded=0;orthogonalLoop=1;jettySize=auto;html=1;fontSize=18;fontColor=#000000;fontStyle=1" parent="IImlJRdM4ZFC-RLVY_hn-1" source="IImlJRdM4ZFC-RLVY_hn-4" target="IImlJRdM4ZFC-RLVY_hn-10" edge="1">
          <mxGeometry relative="1" as="geometry">
            <mxPoint x="570" y="300" as="targetPoint" />
          </mxGeometry>
        </mxCell>
        <mxCell id="IImlJRdM4ZFC-RLVY_hn-4" value="&lt;font style=&quot;font-size: 18px&quot; color=&quot;#000000&quot;&gt;题目是否泄露&lt;br&gt;（节点1\(\phi_i\)）&lt;/font&gt;" style="ellipse;whiteSpace=wrap;html=1;fontSize=18;fontStyle=1;fillColor=#bac8d3;strokeColor=#23445d;" parent="IImlJRdM4ZFC-RLVY_hn-1" vertex="1">
          <mxGeometry x="320" y="150" width="160" height="80" as="geometry" />
        </mxCell>
        <mxCell id="IImlJRdM4ZFC-RLVY_hn-5" style="edgeStyle=orthogonalEdgeStyle;rounded=0;orthogonalLoop=1;jettySize=auto;html=1;fontSize=18;fontColor=#000000;fontStyle=1" parent="IImlJRdM4ZFC-RLVY_hn-1" source="IImlJRdM4ZFC-RLVY_hn-7" target="IImlJRdM4ZFC-RLVY_hn-11" edge="1">
          <mxGeometry relative="1" as="geometry">
            <mxPoint x="60" y="440" as="targetPoint" />
          </mxGeometry>
        </mxCell>
        <mxCell id="IImlJRdM4ZFC-RLVY_hn-6" style="edgeStyle=orthogonalEdgeStyle;rounded=0;orthogonalLoop=1;jettySize=auto;html=1;fontSize=18;fontColor=#000000;fontStyle=1;entryX=0.5;entryY=0;entryDx=0;entryDy=0;" parent="IImlJRdM4ZFC-RLVY_hn-1" source="IImlJRdM4ZFC-RLVY_hn-7" target="IImlJRdM4ZFC-RLVY_hn-18" edge="1">
          <mxGeometry relative="1" as="geometry">
            <mxPoint x="314" y="410" as="targetPoint" />
            <Array as="points">
              <mxPoint x="330" y="330" />
            </Array>
          </mxGeometry>
        </mxCell>
        <mxCell id="IImlJRdM4ZFC-RLVY_hn-7" value="是否为快速猜测（节点2\(\Delta_{ni}\)）" style="ellipse;whiteSpace=wrap;html=1;fontSize=18;fontStyle=1;fillColor=#bac8d3;strokeColor=#23445d;" parent="IImlJRdM4ZFC-RLVY_hn-1" vertex="1">
          <mxGeometry x="130" y="290" width="140" height="90" as="geometry" />
        </mxCell>
        <mxCell id="IImlJRdM4ZFC-RLVY_hn-8" style="edgeStyle=orthogonalEdgeStyle;rounded=0;orthogonalLoop=1;jettySize=auto;html=1;fontSize=18;fontColor=#000000;fontStyle=1;entryX=0.5;entryY=0;entryDx=0;entryDy=0;" parent="IImlJRdM4ZFC-RLVY_hn-1" source="IImlJRdM4ZFC-RLVY_hn-10" target="IImlJRdM4ZFC-RLVY_hn-15" edge="1">
          <mxGeometry relative="1" as="geometry">
            <mxPoint x="490" y="400" as="targetPoint" />
          </mxGeometry>
        </mxCell>
        <mxCell id="IImlJRdM4ZFC-RLVY_hn-9" style="edgeStyle=orthogonalEdgeStyle;rounded=0;orthogonalLoop=1;jettySize=auto;html=1;fontSize=18;fontColor=#000000;fontStyle=1;entryX=0.5;entryY=0;entryDx=0;entryDy=0;" parent="IImlJRdM4ZFC-RLVY_hn-1" source="IImlJRdM4ZFC-RLVY_hn-10" target="IImlJRdM4ZFC-RLVY_hn-17" edge="1">
          <mxGeometry relative="1" as="geometry">
            <mxPoint x="850" y="390" as="targetPoint" />
          </mxGeometry>
        </mxCell>
        <mxCell id="IImlJRdM4ZFC-RLVY_hn-10" value="学生是否&lt;br&gt;获取题目&lt;br&gt;泄露信息&lt;br&gt;（节点3\(\kappa_{ni}\)）" style="ellipse;whiteSpace=wrap;html=1;fontSize=18;fontStyle=1;fillColor=#bac8d3;strokeColor=#23445d;" parent="IImlJRdM4ZFC-RLVY_hn-1" vertex="1">
          <mxGeometry x="640" y="290" width="140" height="110" as="geometry" />
        </mxCell>
        <mxCell id="IImlJRdM4ZFC-RLVY_hn-11" value="解题行为" style="ellipse;whiteSpace=wrap;html=1;fontSize=18;fontStyle=1;fillColor=#ffe6cc;strokeColor=#d79b00;" parent="IImlJRdM4ZFC-RLVY_hn-1" vertex="1">
          <mxGeometry x="-20" y="400" width="120" height="80" as="geometry" />
        </mxCell>
        <mxCell id="IImlJRdM4ZFC-RLVY_hn-12" value="解题行为" style="ellipse;whiteSpace=wrap;html=1;fontSize=18;fontStyle=1;fillColor=#ffe6cc;strokeColor=#d79b00;" parent="IImlJRdM4ZFC-RLVY_hn-1" vertex="1">
          <mxGeometry x="374" y="530" width="120" height="80" as="geometry" />
        </mxCell>
        <mxCell id="IImlJRdM4ZFC-RLVY_hn-13" style="edgeStyle=orthogonalEdgeStyle;rounded=0;orthogonalLoop=1;jettySize=auto;html=1;entryX=0.5;entryY=0;entryDx=0;entryDy=0;" parent="IImlJRdM4ZFC-RLVY_hn-1" source="IImlJRdM4ZFC-RLVY_hn-15" target="IImlJRdM4ZFC-RLVY_hn-12" edge="1">
          <mxGeometry relative="1" as="geometry">
            <Array as="points">
              <mxPoint x="434" y="440" />
            </Array>
          </mxGeometry>
        </mxCell>
        <mxCell id="IImlJRdM4ZFC-RLVY_hn-14" style="edgeStyle=orthogonalEdgeStyle;rounded=0;orthogonalLoop=1;jettySize=auto;html=1;" parent="IImlJRdM4ZFC-RLVY_hn-1" source="IImlJRdM4ZFC-RLVY_hn-15" target="IImlJRdM4ZFC-RLVY_hn-16" edge="1">
          <mxGeometry relative="1" as="geometry">
            <Array as="points">
              <mxPoint x="690" y="440" />
            </Array>
          </mxGeometry>
        </mxCell>
        <mxCell id="IImlJRdM4ZFC-RLVY_hn-15" value="是否为&lt;br&gt;快速猜测&lt;br&gt;（节点4\(\Delta_{ni}\)）" style="ellipse;whiteSpace=wrap;html=1;fontSize=18;fontStyle=1;fillColor=#bac8d3;strokeColor=#23445d;" parent="IImlJRdM4ZFC-RLVY_hn-1" vertex="1">
          <mxGeometry x="480" y="400" width="140" height="80" as="geometry" />
        </mxCell>
        <mxCell id="IImlJRdM4ZFC-RLVY_hn-16" value="快速猜测" style="ellipse;whiteSpace=wrap;html=1;fontSize=18;fontStyle=1;fillColor=#d5e8d4;strokeColor=#82b366;" parent="IImlJRdM4ZFC-RLVY_hn-1" vertex="1">
          <mxGeometry x="630" y="530" width="120" height="80" as="geometry" />
        </mxCell>
        <mxCell id="IImlJRdM4ZFC-RLVY_hn-17" value="题目预知" style="ellipse;whiteSpace=wrap;html=1;fontSize=18;fontStyle=1;fillColor=#e1d5e7;strokeColor=#9673a6;" parent="IImlJRdM4ZFC-RLVY_hn-1" vertex="1">
          <mxGeometry x="810" y="390" width="120" height="80" as="geometry" />
        </mxCell>
        <mxCell id="IImlJRdM4ZFC-RLVY_hn-18" value="快速猜测" style="ellipse;whiteSpace=wrap;html=1;fontSize=18;fontStyle=1;fillColor=#d5e8d4;strokeColor=#82b366;" parent="IImlJRdM4ZFC-RLVY_hn-1" vertex="1">
          <mxGeometry x="270" y="400" width="120" height="80" as="geometry" />
        </mxCell>
        <mxCell id="IImlJRdM4ZFC-RLVY_hn-19" value="是" style="text;html=1;strokeColor=none;fillColor=none;align=center;verticalAlign=middle;whiteSpace=wrap;rounded=0;fontSize=18;fontColor=#000000;fontStyle=1" parent="IImlJRdM4ZFC-RLVY_hn-1" vertex="1">
          <mxGeometry x="520" y="160" width="60" height="30" as="geometry" />
        </mxCell>
        <mxCell id="IImlJRdM4ZFC-RLVY_hn-20" value="否" style="text;html=1;strokeColor=none;fillColor=none;align=center;verticalAlign=middle;whiteSpace=wrap;rounded=0;fontSize=18;fontColor=#000000;fontStyle=1" parent="IImlJRdM4ZFC-RLVY_hn-1" vertex="1">
          <mxGeometry x="434" y="415" width="60" height="30" as="geometry" />
        </mxCell>
        <mxCell id="IImlJRdM4ZFC-RLVY_hn-21" value="是" style="text;html=1;strokeColor=none;fillColor=none;align=center;verticalAlign=middle;whiteSpace=wrap;rounded=0;fontSize=18;fontColor=#000000;fontStyle=1" parent="IImlJRdM4ZFC-RLVY_hn-1" vertex="1">
          <mxGeometry x="270" y="300" width="60" height="30" as="geometry" />
        </mxCell>
        <mxCell id="IImlJRdM4ZFC-RLVY_hn-22" value="否" style="text;html=1;strokeColor=none;fillColor=none;align=center;verticalAlign=middle;whiteSpace=wrap;rounded=0;fontSize=18;fontColor=#000000;fontStyle=1" parent="IImlJRdM4ZFC-RLVY_hn-1" vertex="1">
          <mxGeometry x="220" y="160" width="60" height="30" as="geometry" />
        </mxCell>
        <mxCell id="IImlJRdM4ZFC-RLVY_hn-23" value="否" style="text;html=1;strokeColor=none;fillColor=none;align=center;verticalAlign=middle;whiteSpace=wrap;rounded=0;fontSize=18;fontColor=#000000;fontStyle=1" parent="IImlJRdM4ZFC-RLVY_hn-1" vertex="1">
          <mxGeometry x="50" y="300" width="60" height="30" as="geometry" />
        </mxCell>
        <mxCell id="IImlJRdM4ZFC-RLVY_hn-24" value="否" style="text;html=1;strokeColor=none;fillColor=none;align=center;verticalAlign=middle;whiteSpace=wrap;rounded=0;fontSize=18;fontColor=#000000;fontStyle=1" parent="IImlJRdM4ZFC-RLVY_hn-1" vertex="1">
          <mxGeometry x="580" y="310" width="60" height="30" as="geometry" />
        </mxCell>
        <mxCell id="IImlJRdM4ZFC-RLVY_hn-25" value="是" style="text;html=1;strokeColor=none;fillColor=none;align=center;verticalAlign=middle;whiteSpace=wrap;rounded=0;fontSize=18;fontColor=#000000;fontStyle=1" parent="IImlJRdM4ZFC-RLVY_hn-1" vertex="1">
          <mxGeometry x="620" y="415" width="60" height="30" as="geometry" />
        </mxCell>
        <mxCell id="IImlJRdM4ZFC-RLVY_hn-26" value="是" style="text;html=1;strokeColor=none;fillColor=none;align=center;verticalAlign=middle;whiteSpace=wrap;rounded=0;fontSize=18;fontColor=#000000;fontStyle=1" parent="IImlJRdM4ZFC-RLVY_hn-1" vertex="1">
          <mxGeometry x="790" y="310" width="60" height="30" as="geometry" />
        </mxCell>
      </root>
    </mxGraphModel>
  </diagram>
  <diagram id="vwZusNMrgAMytNc0IvpC" name="题目遗漏MIRT">
    <mxGraphModel dx="1422" dy="706" grid="0" gridSize="10" guides="1" tooltips="1" connect="1" arrows="1" fold="1" page="0" pageScale="1" pageWidth="827" pageHeight="1169" math="1" shadow="0">
      <root>
        <mxCell id="0" />
        <mxCell id="1" parent="0" />
        <mxCell id="n8kRIfvh61HZ0-8OSBJK-17" style="rounded=0;orthogonalLoop=1;jettySize=auto;html=1;fontSize=20;entryX=0.5;entryY=0;entryDx=0;entryDy=0;" parent="1" source="n8kRIfvh61HZ0-8OSBJK-1" target="n8kRIfvh61HZ0-8OSBJK-18" edge="1">
          <mxGeometry relative="1" as="geometry">
            <mxPoint x="200" y="390" as="targetPoint" />
          </mxGeometry>
        </mxCell>
        <mxCell id="n8kRIfvh61HZ0-8OSBJK-1" value="$$\theta_n$$" style="ellipse;whiteSpace=wrap;html=1;fontSize=20;fillColor=#ffe6cc;strokeColor=#d79b00;" parent="1" vertex="1">
          <mxGeometry x="140" y="240" width="120" height="80" as="geometry" />
        </mxCell>
        <mxCell id="n8kRIfvh61HZ0-8OSBJK-19" style="edgeStyle=none;rounded=0;orthogonalLoop=1;jettySize=auto;html=1;fontSize=20;" parent="1" source="n8kRIfvh61HZ0-8OSBJK-2" target="n8kRIfvh61HZ0-8OSBJK-20" edge="1">
          <mxGeometry relative="1" as="geometry">
            <mxPoint x="520" y="400" as="targetPoint" />
          </mxGeometry>
        </mxCell>
        <mxCell id="n8kRIfvh61HZ0-8OSBJK-2" value="$$\upsilon_n$$" style="ellipse;whiteSpace=wrap;html=1;fontSize=20;fillColor=#f8cecc;strokeColor=#b85450;" parent="1" vertex="1">
          <mxGeometry x="460" y="240" width="120" height="80" as="geometry" />
        </mxCell>
        <mxCell id="n8kRIfvh61HZ0-8OSBJK-16" value="" style="endArrow=classic;startArrow=classic;html=1;rounded=0;curved=1;entryX=0.5;entryY=0;entryDx=0;entryDy=0;exitX=0.5;exitY=0;exitDx=0;exitDy=0;" parent="1" source="n8kRIfvh61HZ0-8OSBJK-1" target="n8kRIfvh61HZ0-8OSBJK-2" edge="1">
          <mxGeometry width="50" height="50" relative="1" as="geometry">
            <mxPoint x="390" y="246" as="sourcePoint" />
            <mxPoint x="440" y="246" as="targetPoint" />
            <Array as="points">
              <mxPoint x="360" y="170" />
            </Array>
          </mxGeometry>
        </mxCell>
        <mxCell id="n8kRIfvh61HZ0-8OSBJK-18" value="$$logit(P(Y_{ni}))=\theta_n-b^p_i$$" style="rounded=0;whiteSpace=wrap;html=1;fontSize=20;fillColor=#f5f5f5;fontColor=#333333;strokeColor=#666666;" parent="1" vertex="1">
          <mxGeometry x="80" y="390" width="240" height="60" as="geometry" />
        </mxCell>
        <mxCell id="n8kRIfvh61HZ0-8OSBJK-20" value="$$logit(P(d_{ni}))=\upsilon_n-b^o_i$$" style="rounded=0;whiteSpace=wrap;html=1;fontSize=20;fillColor=#f5f5f5;fontColor=#333333;strokeColor=#666666;" parent="1" vertex="1">
          <mxGeometry x="400" y="390" width="240" height="60" as="geometry" />
        </mxCell>
        <mxCell id="n8kRIfvh61HZ0-8OSBJK-22" style="edgeStyle=none;rounded=0;orthogonalLoop=1;jettySize=auto;html=1;entryX=0.5;entryY=1;entryDx=0;entryDy=0;fontSize=20;" parent="1" source="n8kRIfvh61HZ0-8OSBJK-21" target="n8kRIfvh61HZ0-8OSBJK-18" edge="1">
          <mxGeometry relative="1" as="geometry" />
        </mxCell>
        <mxCell id="n8kRIfvh61HZ0-8OSBJK-21" value="$$b^p_i$$" style="ellipse;whiteSpace=wrap;html=1;fontSize=20;fillColor=#ffe6cc;strokeColor=#d79b00;" parent="1" vertex="1">
          <mxGeometry x="140" y="505" width="120" height="80" as="geometry" />
        </mxCell>
        <mxCell id="n8kRIfvh61HZ0-8OSBJK-24" style="edgeStyle=none;rounded=0;orthogonalLoop=1;jettySize=auto;html=1;entryX=0.5;entryY=1;entryDx=0;entryDy=0;fontSize=20;" parent="1" source="n8kRIfvh61HZ0-8OSBJK-23" target="n8kRIfvh61HZ0-8OSBJK-20" edge="1">
          <mxGeometry relative="1" as="geometry" />
        </mxCell>
        <mxCell id="n8kRIfvh61HZ0-8OSBJK-23" value="$$b^o_i$$" style="ellipse;whiteSpace=wrap;html=1;fontSize=20;fillColor=#f8cecc;strokeColor=#b85450;" parent="1" vertex="1">
          <mxGeometry x="460" y="505" width="120" height="80" as="geometry" />
        </mxCell>
      </root>
    </mxGraphModel>
  </diagram>
  <diagram id="sdevUBWGpcDj0j6dmCu3" name="J_DINA_RG">
    <mxGraphModel dx="2222" dy="706" grid="0" gridSize="10" guides="1" tooltips="1" connect="1" arrows="1" fold="1" page="0" pageScale="1" pageWidth="827" pageHeight="1169" math="1" shadow="0">
      <root>
        <mxCell id="0" />
        <mxCell id="1" parent="0" />
        <mxCell id="vH8y9-hSrOBIe_VPAZ3w-1" style="edgeStyle=none;rounded=0;orthogonalLoop=1;jettySize=auto;html=1;entryX=0;entryY=0.5;entryDx=0;entryDy=0;fontSize=18;fontColor=#000000;strokeWidth=3;dashed=1;fontStyle=1" parent="1" source="vH8y9-hSrOBIe_VPAZ3w-2" target="vH8y9-hSrOBIe_VPAZ3w-11" edge="1">
          <mxGeometry relative="1" as="geometry" />
        </mxCell>
        <mxCell id="vH8y9-hSrOBIe_VPAZ3w-2" value="$$&lt;br style=&quot;font-size: 17px;&quot;&gt;\begin{pmatrix}\theta_n \\ \tau_n \\ \upsilon^g_n \\\upsilon^o_n&lt;br style=&quot;font-size: 17px;&quot;&gt;\end{pmatrix}\sim MVN(\mu_{person},\Sigma_{person})&lt;br style=&quot;font-size: 17px;&quot;&gt;$$$$&lt;br style=&quot;font-size: 17px;&quot;&gt;logit(P(\alpha_{nk}))=\lambda_{0k}+\lambda_{1k}&lt;br style=&quot;font-size: 17px;&quot;&gt;\theta_n&lt;br style=&quot;font-size: 17px;&quot;&gt;$$" style="ellipse;whiteSpace=wrap;html=1;fillColor=#dae8fc;strokeColor=#6c8ebf;fontSize=17;fontStyle=1" parent="1" vertex="1">
          <mxGeometry x="-429" y="398" width="357" height="195" as="geometry" />
        </mxCell>
        <mxCell id="vH8y9-hSrOBIe_VPAZ3w-3" style="edgeStyle=none;rounded=0;orthogonalLoop=1;jettySize=auto;html=1;dashed=1;fontSize=18;fontColor=#000000;strokeWidth=3;fontStyle=1" parent="1" source="vH8y9-hSrOBIe_VPAZ3w-5" target="vH8y9-hSrOBIe_VPAZ3w-18" edge="1">
          <mxGeometry relative="1" as="geometry">
            <mxPoint x="740" y="750" as="targetPoint" />
          </mxGeometry>
        </mxCell>
        <mxCell id="vH8y9-hSrOBIe_VPAZ3w-4" style="edgeStyle=none;rounded=0;orthogonalLoop=1;jettySize=auto;html=1;entryX=1;entryY=1;entryDx=0;entryDy=0;dashed=1;fontSize=18;fontColor=#000000;strokeWidth=3;fontStyle=1" parent="1" source="vH8y9-hSrOBIe_VPAZ3w-5" target="vH8y9-hSrOBIe_VPAZ3w-11" edge="1">
          <mxGeometry relative="1" as="geometry" />
        </mxCell>
        <mxCell id="vH8y9-hSrOBIe_VPAZ3w-5" value="$$\beta_i\\ s_i\\ g_i&lt;br style=&quot;font-size: 17px&quot;&gt;\\&lt;br style=&quot;font-size: 17px&quot;&gt;Q&lt;br&gt;$$" style="ellipse;whiteSpace=wrap;html=1;fillColor=#dae8fc;strokeColor=#6c8ebf;fontSize=17;align=center;verticalAlign=middle;fontStyle=1" parent="1" vertex="1">
          <mxGeometry x="463" y="520" width="163" height="81.5" as="geometry" />
        </mxCell>
        <mxCell id="vH8y9-hSrOBIe_VPAZ3w-6" style="rounded=0;orthogonalLoop=1;jettySize=auto;html=1;strokeWidth=3;entryX=0.437;entryY=-0.013;entryDx=0;entryDy=0;entryPerimeter=0;fillColor=#ffcc99;strokeColor=#36393d;edgeStyle=orthogonalEdgeStyle;fontStyle=1" parent="1" source="vH8y9-hSrOBIe_VPAZ3w-8" target="vH8y9-hSrOBIe_VPAZ3w-13" edge="1">
          <mxGeometry relative="1" as="geometry">
            <mxPoint x="164" y="340" as="targetPoint" />
          </mxGeometry>
        </mxCell>
        <mxCell id="vH8y9-hSrOBIe_VPAZ3w-7" style="edgeStyle=orthogonalEdgeStyle;rounded=0;orthogonalLoop=1;jettySize=auto;html=1;fontSize=25;strokeColor=#000000;strokeWidth=3;entryX=0.5;entryY=0;entryDx=0;entryDy=0;fontStyle=1" parent="1" source="vH8y9-hSrOBIe_VPAZ3w-8" target="vH8y9-hSrOBIe_VPAZ3w-16" edge="1">
          <mxGeometry relative="1" as="geometry">
            <mxPoint x="422.5" y="360" as="targetPoint" />
          </mxGeometry>
        </mxCell>
        <mxCell id="vH8y9-hSrOBIe_VPAZ3w-8" value="&lt;span style=&quot;font-size: 21px;&quot;&gt;$$\Delta_{ni}$$&lt;/span&gt;" style="ellipse;whiteSpace=wrap;html=1;fontSize=21;align=center;fillColor=#bac8d3;strokeColor=#23445d;fontStyle=1" parent="1" vertex="1">
          <mxGeometry x="310" y="180" width="120" height="80" as="geometry" />
        </mxCell>
        <mxCell id="vH8y9-hSrOBIe_VPAZ3w-11" value="$$P(Y_{ni})= g_i+(1-s_i-g_i) \eta_{ni}$$$$\eta_{ni} = \prod_{k=1}^K  \alpha_{nk}^{q_{ik}}$$$$\log(T_{ni})\sim N(\beta_i-\tau_n,1/\omega_i^2)&lt;br style=&quot;font-size: 18px&quot;&gt;$$" style="rounded=1;whiteSpace=wrap;html=1;fillColor=#ffe6cc;strokeColor=#d79b00;fontSize=18;fontStyle=1" parent="1" vertex="1">
          <mxGeometry x="10" y="420" width="360" height="150" as="geometry" />
        </mxCell>
        <mxCell id="vH8y9-hSrOBIe_VPAZ3w-12" style="rounded=0;orthogonalLoop=1;jettySize=auto;html=1;fontSize=18;fontColor=#000000;strokeWidth=3;fontStyle=1" parent="1" source="vH8y9-hSrOBIe_VPAZ3w-13" target="vH8y9-hSrOBIe_VPAZ3w-11" edge="1">
          <mxGeometry relative="1" as="geometry" />
        </mxCell>
        <mxCell id="vH8y9-hSrOBIe_VPAZ3w-13" value="解答行为" style="rounded=0;whiteSpace=wrap;html=1;fontSize=18;fillColor=#ffe6cc;strokeColor=#d79b00;fontStyle=1" parent="1" vertex="1">
          <mxGeometry x="130" y="300" width="120" height="60" as="geometry" />
        </mxCell>
        <mxCell id="vH8y9-hSrOBIe_VPAZ3w-14" value="$$&lt;br&gt;P(Y_{ni})=d_{gi}&lt;br style=&quot;font-size: 18px&quot;&gt;$$$$\log(T_{ni}) \sim N(\mu_c,\sigma_c^2)&lt;br style=&quot;font-size: 18px&quot;&gt;$$" style="rounded=1;whiteSpace=wrap;html=1;fillColor=#d5e8d4;strokeColor=#82b366;fontSize=18;fontStyle=1" parent="1" vertex="1">
          <mxGeometry x="458.5" y="420" width="200" height="70" as="geometry" />
        </mxCell>
        <mxCell id="vH8y9-hSrOBIe_VPAZ3w-15" style="rounded=0;orthogonalLoop=1;jettySize=auto;html=1;fontSize=18;fontColor=#000000;strokeWidth=3;fontStyle=1" parent="1" source="vH8y9-hSrOBIe_VPAZ3w-16" target="vH8y9-hSrOBIe_VPAZ3w-14" edge="1">
          <mxGeometry relative="1" as="geometry" />
        </mxCell>
        <mxCell id="vH8y9-hSrOBIe_VPAZ3w-16" value="快速猜测" style="rounded=0;whiteSpace=wrap;html=1;fontSize=18;fillColor=#d5e8d4;strokeColor=#82b366;fontStyle=1" parent="1" vertex="1">
          <mxGeometry x="498.5" y="300" width="120" height="60" as="geometry" />
        </mxCell>
        <mxCell id="vH8y9-hSrOBIe_VPAZ3w-17" style="edgeStyle=none;rounded=0;orthogonalLoop=1;jettySize=auto;html=1;dashed=1;fontSize=18;fontColor=#000000;strokeWidth=3;fontStyle=1" parent="1" source="vH8y9-hSrOBIe_VPAZ3w-18" target="vH8y9-hSrOBIe_VPAZ3w-14" edge="1">
          <mxGeometry relative="1" as="geometry" />
        </mxCell>
        <mxCell id="vH8y9-hSrOBIe_VPAZ3w-18" value="$$d_{gi}=g_i$$" style="ellipse;whiteSpace=wrap;html=1;fontSize=18;fillColor=#dae8fc;verticalAlign=top;strokeColor=#6c8ebf;fontStyle=1" parent="1" vertex="1">
          <mxGeometry x="705" y="420" width="160" height="80" as="geometry" />
        </mxCell>
        <mxCell id="vH8y9-hSrOBIe_VPAZ3w-23" value="" style="edgeStyle=orthogonalEdgeStyle;rounded=0;orthogonalLoop=1;jettySize=auto;html=1;fontSize=20;strokeWidth=3;" parent="1" source="vH8y9-hSrOBIe_VPAZ3w-19" target="vH8y9-hSrOBIe_VPAZ3w-22" edge="1">
          <mxGeometry relative="1" as="geometry" />
        </mxCell>
        <mxCell id="vH8y9-hSrOBIe_VPAZ3w-19" value="&lt;span style=&quot;font-size: 22px;&quot;&gt;$$o_{ni}$$&lt;/span&gt;" style="ellipse;whiteSpace=wrap;html=1;fontSize=22;align=center;fillColor=#bac8d3;strokeColor=#23445d;fontStyle=1" parent="1" vertex="1">
          <mxGeometry x="-90" y="80" width="120" height="80" as="geometry" />
        </mxCell>
        <mxCell id="vH8y9-hSrOBIe_VPAZ3w-21" style="edgeStyle=orthogonalEdgeStyle;rounded=0;orthogonalLoop=1;jettySize=auto;html=1;fontSize=25;strokeColor=#000000;strokeWidth=3;entryX=0.5;entryY=0;entryDx=0;entryDy=0;fontStyle=1" parent="1" source="vH8y9-hSrOBIe_VPAZ3w-19" target="vH8y9-hSrOBIe_VPAZ3w-8" edge="1">
          <mxGeometry relative="1" as="geometry">
            <mxPoint x="158.5" y="130" as="targetPoint" />
            <mxPoint x="30" y="50" as="sourcePoint" />
          </mxGeometry>
        </mxCell>
        <mxCell id="vH8y9-hSrOBIe_VPAZ3w-22" value="&lt;span style=&quot;font-size: 18px;&quot;&gt;题目遗漏&lt;/span&gt;" style="whiteSpace=wrap;html=1;fontSize=19;fillColor=#f8cecc;strokeColor=#b85450;fontStyle=1;" parent="1" vertex="1">
          <mxGeometry x="-360" y="300" width="120" height="60" as="geometry" />
        </mxCell>
        <mxCell id="fNkSVBqr-Tr24NbnHeGW-3" style="rounded=0;orthogonalLoop=1;jettySize=auto;html=1;strokeWidth=3;fontSize=21;" parent="1" source="fNkSVBqr-Tr24NbnHeGW-1" target="vH8y9-hSrOBIe_VPAZ3w-19" edge="1">
          <mxGeometry relative="1" as="geometry" />
        </mxCell>
        <mxCell id="fNkSVBqr-Tr24NbnHeGW-1" value="$$logit(&lt;br&gt;P&lt;br&gt;(O_{n,i}) )= \upsilon_n^o - b_i^o$$" style="rounded=0;whiteSpace=wrap;html=1;fontSize=20;" parent="1" vertex="1">
          <mxGeometry x="-178" y="208" width="280" height="60" as="geometry" />
        </mxCell>
        <mxCell id="fNkSVBqr-Tr24NbnHeGW-4" style="edgeStyle=none;rounded=0;orthogonalLoop=1;jettySize=auto;html=1;strokeWidth=3;fontSize=20;" parent="1" source="fNkSVBqr-Tr24NbnHeGW-2" target="vH8y9-hSrOBIe_VPAZ3w-8" edge="1">
          <mxGeometry relative="1" as="geometry" />
        </mxCell>
        <mxCell id="fNkSVBqr-Tr24NbnHeGW-2" value="$$logit(P&lt;br&gt;(\Delta_{n,i}) )= \upsilon_n^g - b_i^g$$" style="rounded=0;whiteSpace=wrap;html=1;fontSize=20;" parent="1" vertex="1">
          <mxGeometry x="400" y="110" width="280" height="60" as="geometry" />
        </mxCell>
      </root>
    </mxGraphModel>
  </diagram>
  <diagram id="9_NtaPCiTSK4gIPQ0g_h" name="J_DINA_RG">
    <mxGraphModel dx="1822" dy="706" grid="0" gridSize="10" guides="1" tooltips="1" connect="1" arrows="1" fold="1" page="0" pageScale="1" pageWidth="827" pageHeight="1169" math="1" shadow="0">
      <root>
        <mxCell id="0" />
        <mxCell id="1" parent="0" />
        <mxCell id="6EwuM5NDcuIRyNsII24Q-1" style="edgeStyle=none;rounded=0;orthogonalLoop=1;jettySize=auto;html=1;fontSize=18;fontColor=#000000;strokeWidth=3;dashed=1;fontStyle=1;entryX=0;entryY=0.5;entryDx=0;entryDy=0;" parent="1" source="6EwuM5NDcuIRyNsII24Q-2" target="6EwuM5NDcuIRyNsII24Q-11" edge="1">
          <mxGeometry relative="1" as="geometry">
            <mxPoint x="127" y="574" as="targetPoint" />
          </mxGeometry>
        </mxCell>
        <mxCell id="6EwuM5NDcuIRyNsII24Q-2" value="$$&lt;br style=&quot;font-size: 17px;&quot;&gt;\begin{pmatrix}\theta_n \\ \tau_n \\ \upsilon^g_n\end{pmatrix}\sim MVN(\mu_{person},\Sigma_{person})&lt;br style=&quot;font-size: 17px;&quot;&gt;$$$$&lt;br style=&quot;font-size: 17px;&quot;&gt;logit(P(\alpha_{nk}))=\lambda_{0k}+\lambda_{1k}&lt;br style=&quot;font-size: 17px;&quot;&gt;\theta_n&lt;br style=&quot;font-size: 17px;&quot;&gt;$$" style="ellipse;whiteSpace=wrap;html=1;fillColor=#dae8fc;strokeColor=#6c8ebf;fontSize=17;fontStyle=1" parent="1" vertex="1">
          <mxGeometry x="-332" y="395.5" width="304" height="199" as="geometry" />
        </mxCell>
        <mxCell id="6EwuM5NDcuIRyNsII24Q-3" style="edgeStyle=none;rounded=0;orthogonalLoop=1;jettySize=auto;html=1;dashed=1;fontSize=18;fontColor=#000000;strokeWidth=3;fontStyle=1" parent="1" source="6EwuM5NDcuIRyNsII24Q-5" target="6EwuM5NDcuIRyNsII24Q-18" edge="1">
          <mxGeometry relative="1" as="geometry">
            <mxPoint x="740" y="750" as="targetPoint" />
          </mxGeometry>
        </mxCell>
        <mxCell id="6EwuM5NDcuIRyNsII24Q-4" style="edgeStyle=none;rounded=0;orthogonalLoop=1;jettySize=auto;html=1;entryX=1;entryY=1;entryDx=0;entryDy=0;dashed=1;fontSize=18;fontColor=#000000;strokeWidth=3;fontStyle=1" parent="1" source="6EwuM5NDcuIRyNsII24Q-5" target="6EwuM5NDcuIRyNsII24Q-11" edge="1">
          <mxGeometry relative="1" as="geometry" />
        </mxCell>
        <mxCell id="6EwuM5NDcuIRyNsII24Q-5" value="$$\beta_i\\ s_i\\ g_i&lt;br style=&quot;font-size: 18px;&quot;&gt;\\&lt;br style=&quot;font-size: 18px;&quot;&gt;Q&lt;br style=&quot;font-size: 18px;&quot;&gt;$$" style="ellipse;whiteSpace=wrap;html=1;fillColor=#dae8fc;strokeColor=#6c8ebf;fontSize=18;align=center;verticalAlign=middle;fontStyle=1" parent="1" vertex="1">
          <mxGeometry x="452" y="521" width="180" height="76.5" as="geometry" />
        </mxCell>
        <mxCell id="6EwuM5NDcuIRyNsII24Q-6" style="rounded=0;orthogonalLoop=1;jettySize=auto;html=1;strokeWidth=3;entryX=0.437;entryY=-0.013;entryDx=0;entryDy=0;entryPerimeter=0;fillColor=#ffcc99;strokeColor=#36393d;edgeStyle=orthogonalEdgeStyle;fontStyle=1" parent="1" source="6EwuM5NDcuIRyNsII24Q-8" target="6EwuM5NDcuIRyNsII24Q-13" edge="1">
          <mxGeometry relative="1" as="geometry">
            <mxPoint x="164" y="340" as="targetPoint" />
          </mxGeometry>
        </mxCell>
        <mxCell id="6EwuM5NDcuIRyNsII24Q-7" style="edgeStyle=orthogonalEdgeStyle;rounded=0;orthogonalLoop=1;jettySize=auto;html=1;fontSize=25;strokeColor=#000000;strokeWidth=3;entryX=0.5;entryY=0;entryDx=0;entryDy=0;fontStyle=1" parent="1" source="6EwuM5NDcuIRyNsII24Q-8" target="6EwuM5NDcuIRyNsII24Q-16" edge="1">
          <mxGeometry relative="1" as="geometry">
            <mxPoint x="422.5" y="360" as="targetPoint" />
          </mxGeometry>
        </mxCell>
        <mxCell id="6EwuM5NDcuIRyNsII24Q-8" value="&lt;span style=&quot;font-size: 18px&quot;&gt;$$\Delta_{ni}$$&lt;/span&gt;" style="ellipse;whiteSpace=wrap;html=1;fontSize=19;align=center;fillColor=#bac8d3;strokeColor=#23445d;fontStyle=1" parent="1" vertex="1">
          <mxGeometry x="310" y="180" width="120" height="80" as="geometry" />
        </mxCell>
        <mxCell id="6EwuM5NDcuIRyNsII24Q-11" value="$$P(Y_{ni})= g_i+(1-s_i-g_i) \eta_{ni}$$$$\eta_{ni} = \prod_{k=1}^K  \alpha_{nk}^{q_{ik}}$$$$\log(T_{ni})\sim N(\beta_i-\tau_n,1/\omega_i^2)&lt;br style=&quot;font-size: 18px&quot;&gt;$$" style="rounded=1;whiteSpace=wrap;html=1;fillColor=#ffe6cc;strokeColor=#d79b00;fontSize=18;fontStyle=1" parent="1" vertex="1">
          <mxGeometry x="10" y="420" width="360" height="150" as="geometry" />
        </mxCell>
        <mxCell id="6EwuM5NDcuIRyNsII24Q-12" style="rounded=0;orthogonalLoop=1;jettySize=auto;html=1;fontSize=18;fontColor=#000000;strokeWidth=3;fontStyle=1" parent="1" source="6EwuM5NDcuIRyNsII24Q-13" target="6EwuM5NDcuIRyNsII24Q-11" edge="1">
          <mxGeometry relative="1" as="geometry" />
        </mxCell>
        <mxCell id="6EwuM5NDcuIRyNsII24Q-13" value="解答行为" style="rounded=0;whiteSpace=wrap;html=1;fontSize=18;fillColor=#ffe6cc;strokeColor=#d79b00;fontStyle=1" parent="1" vertex="1">
          <mxGeometry x="130" y="300" width="120" height="60" as="geometry" />
        </mxCell>
        <mxCell id="6EwuM5NDcuIRyNsII24Q-14" value="$$&lt;br&gt;P(Y_{ni})=d_{gi}&lt;br style=&quot;font-size: 18px&quot;&gt;$$$$\log(T_{ni}) \sim N(\mu_c,\sigma_c^2)&lt;br style=&quot;font-size: 18px&quot;&gt;$$" style="rounded=1;whiteSpace=wrap;html=1;fillColor=#d5e8d4;strokeColor=#82b366;fontSize=18;fontStyle=1" parent="1" vertex="1">
          <mxGeometry x="458.5" y="420" width="200" height="70" as="geometry" />
        </mxCell>
        <mxCell id="6EwuM5NDcuIRyNsII24Q-15" style="rounded=0;orthogonalLoop=1;jettySize=auto;html=1;fontSize=18;fontColor=#000000;strokeWidth=3;fontStyle=1" parent="1" source="6EwuM5NDcuIRyNsII24Q-16" target="6EwuM5NDcuIRyNsII24Q-14" edge="1">
          <mxGeometry relative="1" as="geometry" />
        </mxCell>
        <mxCell id="6EwuM5NDcuIRyNsII24Q-16" value="快速猜测" style="rounded=0;whiteSpace=wrap;html=1;fontSize=18;fillColor=#d5e8d4;strokeColor=#82b366;fontStyle=1" parent="1" vertex="1">
          <mxGeometry x="498.5" y="300" width="120" height="60" as="geometry" />
        </mxCell>
        <mxCell id="6EwuM5NDcuIRyNsII24Q-17" style="edgeStyle=none;rounded=0;orthogonalLoop=1;jettySize=auto;html=1;dashed=1;fontSize=18;fontColor=#000000;strokeWidth=3;fontStyle=1" parent="1" source="6EwuM5NDcuIRyNsII24Q-18" target="6EwuM5NDcuIRyNsII24Q-14" edge="1">
          <mxGeometry relative="1" as="geometry" />
        </mxCell>
        <mxCell id="6EwuM5NDcuIRyNsII24Q-18" value="$$d_{gi}=g_i$$" style="ellipse;whiteSpace=wrap;html=1;fontSize=18;fillColor=#dae8fc;verticalAlign=top;strokeColor=#6c8ebf;fontStyle=1" parent="1" vertex="1">
          <mxGeometry x="674" y="415" width="160" height="80" as="geometry" />
        </mxCell>
        <mxCell id="ytvZDshoV6ivYTfIC094-2" style="edgeStyle=none;rounded=0;orthogonalLoop=1;jettySize=auto;html=1;strokeWidth=3;fontSize=20;" parent="1" source="ytvZDshoV6ivYTfIC094-1" target="6EwuM5NDcuIRyNsII24Q-8" edge="1">
          <mxGeometry relative="1" as="geometry" />
        </mxCell>
        <mxCell id="ytvZDshoV6ivYTfIC094-1" value="$$logit(P&lt;br&gt;(\Delta_{n,i}) )= \upsilon_n^g - b_i^g$$" style="rounded=0;whiteSpace=wrap;html=1;fontSize=20;" parent="1" vertex="1">
          <mxGeometry x="230" y="90" width="280" height="60" as="geometry" />
        </mxCell>
      </root>
    </mxGraphModel>
  </diagram>
  <diagram id="kEnbsayZLm1I9uQUsOn3" name="RT_DINA_RG">
    <mxGraphModel dx="1822" dy="706" grid="0" gridSize="10" guides="0" tooltips="1" connect="0" arrows="0" fold="1" page="0" pageScale="1" pageWidth="827" pageHeight="1169" math="1" shadow="0">
      <root>
        <mxCell id="0" />
        <mxCell id="1" parent="0" />
        <mxCell id="oEY1mmsQtWd34RChTHsl-1" style="edgeStyle=none;rounded=0;orthogonalLoop=1;jettySize=auto;html=1;entryX=0.368;entryY=1.026;entryDx=0;entryDy=0;entryPerimeter=0;fontSize=18;fontColor=#000000;strokeWidth=3;dashed=1;fontStyle=1" parent="1" source="cxqiHXTqV8WqiIM_zO7h-1" target="oEY1mmsQtWd34RChTHsl-11" edge="1">
          <mxGeometry relative="1" as="geometry">
            <mxPoint x="140.8219036440944" y="660.0010339811124" as="sourcePoint" />
          </mxGeometry>
        </mxCell>
        <mxCell id="oEY1mmsQtWd34RChTHsl-3" style="edgeStyle=none;rounded=0;orthogonalLoop=1;jettySize=auto;html=1;dashed=1;fontSize=18;fontColor=#000000;strokeWidth=3;fontStyle=1" parent="1" source="oEY1mmsQtWd34RChTHsl-5" target="oEY1mmsQtWd34RChTHsl-18" edge="1">
          <mxGeometry relative="1" as="geometry">
            <mxPoint x="740" y="750" as="targetPoint" />
          </mxGeometry>
        </mxCell>
        <mxCell id="oEY1mmsQtWd34RChTHsl-4" style="edgeStyle=none;rounded=0;orthogonalLoop=1;jettySize=auto;html=1;entryX=1;entryY=1;entryDx=0;entryDy=0;dashed=1;fontSize=18;fontColor=#000000;strokeWidth=3;fontStyle=1" parent="1" source="oEY1mmsQtWd34RChTHsl-5" target="oEY1mmsQtWd34RChTHsl-11" edge="1">
          <mxGeometry relative="1" as="geometry" />
        </mxCell>
        <mxCell id="oEY1mmsQtWd34RChTHsl-5" value="$$\beta_i\\ s_i\\ g_i&lt;br style=&quot;font-size: 17px&quot;&gt;\\&lt;br style=&quot;font-size: 17px&quot;&gt;Q&lt;br&gt;$$" style="ellipse;whiteSpace=wrap;html=1;fillColor=#dae8fc;strokeColor=#6c8ebf;fontSize=17;align=center;verticalAlign=middle;fontStyle=1" parent="1" vertex="1">
          <mxGeometry x="280" y="590" width="180" height="132.5" as="geometry" />
        </mxCell>
        <mxCell id="oEY1mmsQtWd34RChTHsl-6" style="rounded=0;orthogonalLoop=1;jettySize=auto;html=1;strokeWidth=3;entryX=0.437;entryY=-0.013;entryDx=0;entryDy=0;entryPerimeter=0;fillColor=#ffcc99;strokeColor=#36393d;edgeStyle=orthogonalEdgeStyle;fontStyle=1" parent="1" source="oEY1mmsQtWd34RChTHsl-8" target="oEY1mmsQtWd34RChTHsl-13" edge="1">
          <mxGeometry relative="1" as="geometry">
            <mxPoint x="164" y="340" as="targetPoint" />
          </mxGeometry>
        </mxCell>
        <mxCell id="oEY1mmsQtWd34RChTHsl-7" style="edgeStyle=orthogonalEdgeStyle;rounded=0;orthogonalLoop=1;jettySize=auto;html=1;fontSize=25;strokeColor=#000000;strokeWidth=3;entryX=0.5;entryY=0;entryDx=0;entryDy=0;fontStyle=1" parent="1" source="oEY1mmsQtWd34RChTHsl-8" target="oEY1mmsQtWd34RChTHsl-16" edge="1">
          <mxGeometry relative="1" as="geometry">
            <mxPoint x="422.5" y="360" as="targetPoint" />
          </mxGeometry>
        </mxCell>
        <mxCell id="oEY1mmsQtWd34RChTHsl-8" value="&lt;span style=&quot;font-size: 18px&quot;&gt;$$\Delta_{ni}$$&lt;/span&gt;" style="ellipse;whiteSpace=wrap;html=1;fontSize=19;align=center;fillColor=#bac8d3;strokeColor=#23445d;fontStyle=1" parent="1" vertex="1">
          <mxGeometry x="310" y="180" width="120" height="80" as="geometry" />
        </mxCell>
        <mxCell id="oEY1mmsQtWd34RChTHsl-11" value="$$P(Y_{ni})= g_i+(1-s_i-g_i) \eta_{ni}$$$$\eta_{ni} = \prod_{k=1}^K  \alpha_{nk}^{q_{ik}}$$$$\log(T_{ni})\sim N(\beta_i-\tau_n,1/\omega_i^2)&lt;br style=&quot;font-size: 18px&quot;&gt;$$" style="rounded=1;whiteSpace=wrap;html=1;fillColor=#ffe6cc;strokeColor=#d79b00;fontSize=18;fontStyle=1" parent="1" vertex="1">
          <mxGeometry x="10" y="420" width="360" height="150" as="geometry" />
        </mxCell>
        <mxCell id="oEY1mmsQtWd34RChTHsl-12" style="rounded=0;orthogonalLoop=1;jettySize=auto;html=1;fontSize=18;fontColor=#000000;strokeWidth=3;fontStyle=1" parent="1" source="oEY1mmsQtWd34RChTHsl-13" target="oEY1mmsQtWd34RChTHsl-11" edge="1">
          <mxGeometry relative="1" as="geometry" />
        </mxCell>
        <mxCell id="oEY1mmsQtWd34RChTHsl-13" value="解答行为" style="rounded=0;whiteSpace=wrap;html=1;fontSize=18;fillColor=#ffe6cc;strokeColor=#d79b00;fontStyle=1" parent="1" vertex="1">
          <mxGeometry x="130" y="300" width="120" height="60" as="geometry" />
        </mxCell>
        <mxCell id="oEY1mmsQtWd34RChTHsl-14" value="$$&lt;br&gt;P(Y_{ni})=d_{gi}&lt;br style=&quot;font-size: 18px&quot;&gt;$$$$\log(T_{ni}) \sim N(\mu_c,\sigma_c^2)&lt;br style=&quot;font-size: 18px&quot;&gt;$$" style="rounded=1;whiteSpace=wrap;html=1;fillColor=#d5e8d4;strokeColor=#82b366;fontSize=18;fontStyle=1" parent="1" vertex="1">
          <mxGeometry x="458.5" y="420" width="200" height="70" as="geometry" />
        </mxCell>
        <mxCell id="oEY1mmsQtWd34RChTHsl-15" style="rounded=0;orthogonalLoop=1;jettySize=auto;html=1;fontSize=18;fontColor=#000000;strokeWidth=3;fontStyle=1" parent="1" source="oEY1mmsQtWd34RChTHsl-16" target="oEY1mmsQtWd34RChTHsl-14" edge="1">
          <mxGeometry relative="1" as="geometry" />
        </mxCell>
        <mxCell id="oEY1mmsQtWd34RChTHsl-16" value="快速猜测" style="rounded=0;whiteSpace=wrap;html=1;fontSize=18;fillColor=#d5e8d4;strokeColor=#82b366;fontStyle=1" parent="1" vertex="1">
          <mxGeometry x="498.5" y="300" width="120" height="60" as="geometry" />
        </mxCell>
        <mxCell id="oEY1mmsQtWd34RChTHsl-17" style="edgeStyle=none;rounded=0;orthogonalLoop=1;jettySize=auto;html=1;dashed=1;fontSize=18;fontColor=#000000;strokeWidth=3;fontStyle=1" parent="1" source="oEY1mmsQtWd34RChTHsl-18" target="oEY1mmsQtWd34RChTHsl-14" edge="1">
          <mxGeometry relative="1" as="geometry" />
        </mxCell>
        <mxCell id="oEY1mmsQtWd34RChTHsl-18" value="$$d_{gi}=g_i\\$$$$\mu_c,\sigma_c^2$$" style="ellipse;whiteSpace=wrap;html=1;fontSize=18;fillColor=#dae8fc;verticalAlign=top;strokeColor=#6c8ebf;fontStyle=1" parent="1" vertex="1">
          <mxGeometry x="470" y="520" width="170" height="100" as="geometry" />
        </mxCell>
        <mxCell id="cxqiHXTqV8WqiIM_zO7h-1" value="$$&lt;br&gt;logit(P(\alpha_{nk}))=\lambda_{0k}+\lambda_{1k}&lt;br&gt;\theta_n&lt;br style=&quot;font-size: 15px&quot;&gt;$$$$\tau_n$$" style="ellipse;whiteSpace=wrap;html=1;fillColor=#dae8fc;strokeColor=#6c8ebf;fontSize=15;fontStyle=1" parent="1" vertex="1">
          <mxGeometry x="10" y="602" width="260" height="100" as="geometry" />
        </mxCell>
      </root>
    </mxGraphModel>
  </diagram>
  <diagram id="ABaVwX1wen98PksfJ1XM" name="JRT_DINA">
    <mxGraphModel dx="1422" dy="706" grid="0" gridSize="10" guides="1" tooltips="1" connect="1" arrows="1" fold="1" page="1" pageScale="1" pageWidth="827" pageHeight="1169" math="1" shadow="0">
      <root>
        <mxCell id="0" />
        <mxCell id="1" parent="0" />
        <mxCell id="HG5ELQdyboU8gNuSXK94-1" style="edgeStyle=none;rounded=0;orthogonalLoop=1;jettySize=auto;html=1;fontSize=18;fontColor=#000000;strokeWidth=3;dashed=1;fontStyle=1;entryX=0.158;entryY=1;entryDx=0;entryDy=0;entryPerimeter=0;exitX=0.5;exitY=0;exitDx=0;exitDy=0;" parent="1" source="yKlUzIXzXeLyTyN-Ehq6-1" target="HG5ELQdyboU8gNuSXK94-5" edge="1">
          <mxGeometry relative="1" as="geometry">
            <mxPoint x="262.4346570633563" y="527.5351088559546" as="sourcePoint" />
          </mxGeometry>
        </mxCell>
        <mxCell id="HG5ELQdyboU8gNuSXK94-3" style="edgeStyle=none;rounded=0;orthogonalLoop=1;jettySize=auto;html=1;entryX=0.75;entryY=1;entryDx=0;entryDy=0;dashed=1;fontSize=18;fontColor=#000000;strokeWidth=3;fontStyle=1" parent="1" source="HG5ELQdyboU8gNuSXK94-4" edge="1">
          <mxGeometry relative="1" as="geometry">
            <mxPoint x="490" y="400" as="targetPoint" />
          </mxGeometry>
        </mxCell>
        <mxCell id="HG5ELQdyboU8gNuSXK94-4" value="$$\beta_i\\ s_i\\ g_i&lt;br style=&quot;font-size: 17px&quot;&gt;\\&lt;br style=&quot;font-size: 17px&quot;&gt;Q&lt;br&gt;$$" style="ellipse;whiteSpace=wrap;html=1;fillColor=#dae8fc;strokeColor=#6c8ebf;fontSize=17;align=center;verticalAlign=middle;fontStyle=1" parent="1" vertex="1">
          <mxGeometry x="414" y="437" width="160" height="100" as="geometry" />
        </mxCell>
        <mxCell id="HG5ELQdyboU8gNuSXK94-5" value="$$P(Y_{ni})= g_i+(1-s_i-g_i) \eta_{ni}$$$$\eta_{ni} = \prod_{k=1}^K  \alpha_{nk}^{q_{ik}}$$$$\log(T_{ni})\sim N(\beta_i-\tau_n,1/\omega_i^2)&lt;br style=&quot;font-size: 18px&quot;&gt;$$" style="rounded=1;whiteSpace=wrap;html=1;fillColor=#ffe6cc;strokeColor=#d79b00;fontSize=18;fontStyle=1" parent="1" vertex="1">
          <mxGeometry x="200" y="250" width="360" height="150" as="geometry" />
        </mxCell>
        <mxCell id="yKlUzIXzXeLyTyN-Ehq6-1" value="$$&lt;br style=&quot;font-size: 15px&quot;&gt;\begin{pmatrix}\theta_n \\ \tau_n \end{pmatrix}\sim MVN(\mu_{person},\Sigma_{person})&lt;br&gt;$$$$&lt;br&gt;logit(P(\alpha_{nk}))=\lambda_{0k}+\lambda_{1k}&lt;br&gt;\theta_n&lt;br style=&quot;font-size: 15px&quot;&gt;$$" style="ellipse;whiteSpace=wrap;html=1;fillColor=#dae8fc;strokeColor=#6c8ebf;fontSize=15;fontStyle=1" parent="1" vertex="1">
          <mxGeometry x="114" y="433" width="280" height="130" as="geometry" />
        </mxCell>
      </root>
    </mxGraphModel>
  </diagram>
  <diagram id="WG4stwzaATRFqSYxMt0G" name="RT_DINA">
    <mxGraphModel dx="1422" dy="306" grid="0" gridSize="10" guides="1" tooltips="1" connect="1" arrows="1" fold="1" page="0" pageScale="1" pageWidth="827" pageHeight="1169" background="#CCCCCC" math="1" shadow="0">
      <root>
        <mxCell id="0" />
        <mxCell id="1" parent="0" />
        <mxCell id="_cMoc2zHU2JA7WyT3KEL-1" style="edgeStyle=none;rounded=0;orthogonalLoop=1;jettySize=auto;html=1;fontSize=18;fontColor=#000000;strokeWidth=3;dashed=1;fontStyle=1;entryX=0.158;entryY=1;entryDx=0;entryDy=0;entryPerimeter=0;" parent="1" source="8iA72CrLXzsjgRWBnSTQ-1" target="_cMoc2zHU2JA7WyT3KEL-11" edge="1">
          <mxGeometry relative="1" as="geometry">
            <mxPoint x="182.43465706335633" y="697.5351088559546" as="sourcePoint" />
          </mxGeometry>
        </mxCell>
        <mxCell id="_cMoc2zHU2JA7WyT3KEL-4" style="edgeStyle=none;rounded=0;orthogonalLoop=1;jettySize=auto;html=1;entryX=0.75;entryY=1;entryDx=0;entryDy=0;dashed=1;fontSize=18;fontColor=#000000;strokeWidth=3;fontStyle=1" parent="1" source="_cMoc2zHU2JA7WyT3KEL-5" target="_cMoc2zHU2JA7WyT3KEL-11" edge="1">
          <mxGeometry relative="1" as="geometry" />
        </mxCell>
        <mxCell id="_cMoc2zHU2JA7WyT3KEL-5" value="$$\beta_i\\ s_i\\ g_i&lt;br style=&quot;font-size: 17px&quot;&gt;\\&lt;br style=&quot;font-size: 17px&quot;&gt;Q&lt;br&gt;$$" style="ellipse;whiteSpace=wrap;html=1;fillColor=#dae8fc;strokeColor=#6c8ebf;fontSize=17;align=center;verticalAlign=middle;fontStyle=1" parent="1" vertex="1">
          <mxGeometry x="306" y="598.5" width="170" height="116" as="geometry" />
        </mxCell>
        <mxCell id="_cMoc2zHU2JA7WyT3KEL-11" value="$$P(Y_{ni})= g_i+(1-s_i-g_i) \eta_{ni}$$$$\eta_{ni} = \prod_{k=1}^K  \alpha_{nk}^{q_{ik}}$$$$\log(T_{ni})\sim N(\beta_i-\tau_n,1/\omega_i^2)&lt;br style=&quot;font-size: 18px&quot;&gt;$$" style="rounded=1;whiteSpace=wrap;html=1;fillColor=#ffe6cc;strokeColor=#d79b00;fontSize=18;fontStyle=1" parent="1" vertex="1">
          <mxGeometry x="120" y="420" width="360" height="150" as="geometry" />
        </mxCell>
        <mxCell id="8iA72CrLXzsjgRWBnSTQ-1" value="$$&lt;br&gt;logit(P(\alpha_{nk}))=\lambda_{0k}+\lambda_{1k}&lt;br&gt;\theta_n&lt;br style=&quot;font-size: 15px&quot;&gt;$$$$\tau_n$$" style="ellipse;whiteSpace=wrap;html=1;fillColor=#dae8fc;strokeColor=#6c8ebf;fontSize=15;fontStyle=1" parent="1" vertex="1">
          <mxGeometry x="58" y="602" width="238" height="112.5" as="geometry" />
        </mxCell>
      </root>
    </mxGraphModel>
  </diagram>
  <diagram id="G8qrXCv4ies8MOnVXHdf" name="第 20 页">
    <mxGraphModel dx="1822" dy="706" grid="0" gridSize="10" guides="1" tooltips="1" connect="1" arrows="1" fold="1" page="0" pageScale="1" pageWidth="827" pageHeight="1169" math="1" shadow="0">
      <root>
        <mxCell id="0" />
        <mxCell id="1" parent="0" />
        <mxCell id="b2csBW0OP_nS-Z9sW7CX-21" value="" style="rounded=0;whiteSpace=wrap;html=1;strokeWidth=4;fontFamily=Helvetica;fontSize=24;dashed=1;fillColor=#f5f5f5;fontColor=#333333;strokeColor=#666666;" parent="1" vertex="1">
          <mxGeometry x="-130" y="477" width="347" height="474" as="geometry" />
        </mxCell>
        <mxCell id="b2csBW0OP_nS-Z9sW7CX-20" value="" style="rounded=0;whiteSpace=wrap;html=1;strokeWidth=4;fontFamily=Helvetica;fontSize=24;dashed=1;" parent="1" vertex="1">
          <mxGeometry x="210" y="479" width="354" height="474" as="geometry" />
        </mxCell>
        <mxCell id="b2csBW0OP_nS-Z9sW7CX-3" value="" style="edgeStyle=orthogonalEdgeStyle;rounded=0;orthogonalLoop=1;jettySize=auto;html=1;fontSize=17;strokeWidth=2;" parent="1" source="b2csBW0OP_nS-Z9sW7CX-1" target="b2csBW0OP_nS-Z9sW7CX-2" edge="1">
          <mxGeometry relative="1" as="geometry" />
        </mxCell>
        <mxCell id="b2csBW0OP_nS-Z9sW7CX-1" value="作答结果" style="rounded=0;whiteSpace=wrap;html=1;fontSize=17;strokeWidth=2;fontStyle=1;fillColor=#f5f5f5;fontColor=#333333;strokeColor=#666666;" parent="1" vertex="1">
          <mxGeometry x="70" y="260" width="120" height="60" as="geometry" />
        </mxCell>
        <mxCell id="b2csBW0OP_nS-Z9sW7CX-5" value="" style="edgeStyle=orthogonalEdgeStyle;rounded=0;orthogonalLoop=1;jettySize=auto;html=1;fontSize=17;strokeWidth=2;" parent="1" source="b2csBW0OP_nS-Z9sW7CX-2" target="b2csBW0OP_nS-Z9sW7CX-4" edge="1">
          <mxGeometry relative="1" as="geometry" />
        </mxCell>
        <mxCell id="b2csBW0OP_nS-Z9sW7CX-2" value="诊断分类模型" style="rounded=0;whiteSpace=wrap;html=1;fontSize=17;strokeWidth=2;fontStyle=1;fillColor=#dae8fc;strokeColor=#6c8ebf;" parent="1" vertex="1">
          <mxGeometry x="270" y="260" width="120" height="60" as="geometry" />
        </mxCell>
        <mxCell id="b2csBW0OP_nS-Z9sW7CX-7" value="" style="edgeStyle=orthogonalEdgeStyle;rounded=0;orthogonalLoop=1;jettySize=auto;html=1;fontSize=17;strokeWidth=2;" parent="1" source="b2csBW0OP_nS-Z9sW7CX-4" target="b2csBW0OP_nS-Z9sW7CX-6" edge="1">
          <mxGeometry relative="1" as="geometry" />
        </mxCell>
        <mxCell id="b2csBW0OP_nS-Z9sW7CX-4" value="分类结果" style="whiteSpace=wrap;html=1;fontSize=17;rounded=0;strokeWidth=2;fontStyle=1;fillColor=#fff2cc;strokeColor=#d6b656;" parent="1" vertex="1">
          <mxGeometry x="476" y="260" width="120" height="60" as="geometry" />
        </mxCell>
        <mxCell id="b2csBW0OP_nS-Z9sW7CX-6" value="个性化学习" style="whiteSpace=wrap;html=1;fontSize=17;rounded=0;strokeWidth=2;fontStyle=1;fillColor=#f8cecc;strokeColor=#b85450;" parent="1" vertex="1">
          <mxGeometry x="690" y="260" width="120" height="60" as="geometry" />
        </mxCell>
        <mxCell id="b2csBW0OP_nS-Z9sW7CX-11" value="" style="edgeStyle=orthogonalEdgeStyle;rounded=0;orthogonalLoop=1;jettySize=auto;html=1;strokeWidth=2;fontSize=24;" parent="1" source="b2csBW0OP_nS-Z9sW7CX-9" target="b2csBW0OP_nS-Z9sW7CX-10" edge="1">
          <mxGeometry relative="1" as="geometry" />
        </mxCell>
        <mxCell id="b2csBW0OP_nS-Z9sW7CX-9" value="&lt;p style=&quot;font-size: 24px;&quot;&gt;&lt;span style=&quot;&quot;&gt;在快速猜测中，学生不对题目和每个选项进行充分的加工&lt;/span&gt;&lt;span style=&quot;&quot;&gt;&amp;nbsp;&lt;/span&gt;&lt;span style=&quot;&quot;&gt;(Wise&amp;amp; Kong, 2005)&amp;nbsp;&lt;/span&gt;&lt;/p&gt;" style="rounded=0;whiteSpace=wrap;html=1;fontSize=17;strokeWidth=2;fontStyle=1;fontFamily=Helvetica;fillColor=#f5f5f5;fontColor=#333333;strokeColor=#666666;" parent="1" vertex="1">
          <mxGeometry x="-95" y="505" width="260" height="152" as="geometry" />
        </mxCell>
        <mxCell id="b2csBW0OP_nS-Z9sW7CX-13" value="" style="edgeStyle=orthogonalEdgeStyle;rounded=0;orthogonalLoop=1;jettySize=auto;html=1;strokeWidth=2;fontSize=24;" parent="1" source="b2csBW0OP_nS-Z9sW7CX-10" target="b2csBW0OP_nS-Z9sW7CX-12" edge="1">
          <mxGeometry relative="1" as="geometry" />
        </mxCell>
        <mxCell id="b2csBW0OP_nS-Z9sW7CX-10" value="作答不能反映真实能力" style="whiteSpace=wrap;html=1;fontSize=24;rounded=0;strokeWidth=2;fontStyle=1;fillColor=#fff2cc;strokeColor=#d6b656;" parent="1" vertex="1">
          <mxGeometry x="-49.5" y="720" width="169" height="60" as="geometry" />
        </mxCell>
        <mxCell id="b2csBW0OP_nS-Z9sW7CX-12" value="&lt;span style=&quot;font-size: 24px;&quot;&gt;参数估计精度下降&lt;/span&gt;" style="whiteSpace=wrap;html=1;fontSize=17;rounded=0;strokeWidth=2;fontStyle=1;fillColor=#f8cecc;strokeColor=#b85450;" parent="1" vertex="1">
          <mxGeometry x="-65" y="852" width="200" height="60" as="geometry" />
        </mxCell>
        <mxCell id="b2csBW0OP_nS-Z9sW7CX-14" value="" style="edgeStyle=orthogonalEdgeStyle;rounded=0;orthogonalLoop=1;jettySize=auto;html=1;strokeWidth=2;fontSize=24;" parent="1" source="b2csBW0OP_nS-Z9sW7CX-15" target="b2csBW0OP_nS-Z9sW7CX-17" edge="1">
          <mxGeometry relative="1" as="geometry" />
        </mxCell>
        <mxCell id="b2csBW0OP_nS-Z9sW7CX-15" value="&lt;h4 style=&quot;font-size: 24px;&quot;&gt;&lt;span style=&quot;line-height: 150%; font-size: 24px;&quot;&gt;在题目遗漏中，学生选择不对当前题目进行作答，而是跳过题目。&lt;br&gt;&lt;/span&gt;&lt;span style=&quot;&quot;&gt;&amp;nbsp;&lt;/span&gt;&lt;/h4&gt;" style="rounded=0;whiteSpace=wrap;html=1;fontSize=17;strokeWidth=2;fontStyle=1;fontFamily=Helvetica;fillColor=#f5f5f5;fontColor=#333333;strokeColor=#666666;align=center;" parent="1" vertex="1">
          <mxGeometry x="270" y="505" width="260" height="152" as="geometry" />
        </mxCell>
        <mxCell id="b2csBW0OP_nS-Z9sW7CX-16" value="" style="edgeStyle=orthogonalEdgeStyle;rounded=0;orthogonalLoop=1;jettySize=auto;html=1;strokeWidth=2;fontSize=24;" parent="1" source="b2csBW0OP_nS-Z9sW7CX-17" target="b2csBW0OP_nS-Z9sW7CX-18" edge="1">
          <mxGeometry relative="1" as="geometry" />
        </mxCell>
        <mxCell id="b2csBW0OP_nS-Z9sW7CX-17" value="非随机缺失" style="whiteSpace=wrap;html=1;fontSize=24;rounded=0;strokeWidth=2;fontStyle=1;fillColor=#fff2cc;strokeColor=#d6b656;" parent="1" vertex="1">
          <mxGeometry x="315.5" y="720" width="169" height="60" as="geometry" />
        </mxCell>
        <mxCell id="b2csBW0OP_nS-Z9sW7CX-18" value="&lt;font style=&quot;font-size: 24px;&quot;&gt;参数估计精度下降&lt;/font&gt;" style="whiteSpace=wrap;html=1;fontSize=17;rounded=0;strokeWidth=2;fontStyle=1;fillColor=#f8cecc;strokeColor=#b85450;" parent="1" vertex="1">
          <mxGeometry x="300" y="852" width="200" height="60" as="geometry" />
        </mxCell>
      </root>
    </mxGraphModel>
  </diagram>
  <diagram id="touJUlXgk-vlMwn5TMBb" name="Mirt方法">
    <mxGraphModel dx="1422" dy="706" grid="1" gridSize="10" guides="1" tooltips="1" connect="1" arrows="1" fold="1" page="1" pageScale="1" pageWidth="827" pageHeight="1169" math="1" shadow="0">
      <root>
        <mxCell id="0" />
        <mxCell id="1" parent="0" />
        <mxCell id="jQJNhtaY1WHgpIUxZPe3-1" style="rounded=0;orthogonalLoop=1;jettySize=auto;html=1;fontSize=20;entryX=0.5;entryY=0;entryDx=0;entryDy=0;exitX=0.5;exitY=1;exitDx=0;exitDy=0;" edge="1" parent="1" source="jQJNhtaY1WHgpIUxZPe3-2" target="KTme4jY6_BbVO6t4tggh-2">
          <mxGeometry relative="1" as="geometry">
            <mxPoint x="200" y="390" as="targetPoint" />
          </mxGeometry>
        </mxCell>
        <mxCell id="KTme4jY6_BbVO6t4tggh-8" style="edgeStyle=none;rounded=0;orthogonalLoop=1;jettySize=auto;html=1;entryX=0.5;entryY=0;entryDx=0;entryDy=0;exitX=0.5;exitY=1;exitDx=0;exitDy=0;" edge="1" parent="1" source="jQJNhtaY1WHgpIUxZPe3-2" target="KTme4jY6_BbVO6t4tggh-5">
          <mxGeometry relative="1" as="geometry" />
        </mxCell>
        <mxCell id="KTme4jY6_BbVO6t4tggh-9" style="edgeStyle=none;rounded=0;orthogonalLoop=1;jettySize=auto;html=1;entryX=0.5;entryY=0;entryDx=0;entryDy=0;" edge="1" parent="1" source="jQJNhtaY1WHgpIUxZPe3-2" target="KTme4jY6_BbVO6t4tggh-3">
          <mxGeometry relative="1" as="geometry" />
        </mxCell>
        <mxCell id="KTme4jY6_BbVO6t4tggh-10" style="edgeStyle=none;rounded=0;orthogonalLoop=1;jettySize=auto;html=1;entryX=0.5;entryY=0;entryDx=0;entryDy=0;exitX=0.5;exitY=1;exitDx=0;exitDy=0;" edge="1" parent="1" source="jQJNhtaY1WHgpIUxZPe3-2" target="KTme4jY6_BbVO6t4tggh-6">
          <mxGeometry relative="1" as="geometry" />
        </mxCell>
        <mxCell id="KTme4jY6_BbVO6t4tggh-11" style="edgeStyle=none;rounded=0;orthogonalLoop=1;jettySize=auto;html=1;entryX=0.5;entryY=0;entryDx=0;entryDy=0;exitX=0.5;exitY=1;exitDx=0;exitDy=0;" edge="1" parent="1" source="jQJNhtaY1WHgpIUxZPe3-2" target="KTme4jY6_BbVO6t4tggh-4">
          <mxGeometry relative="1" as="geometry" />
        </mxCell>
        <mxCell id="jQJNhtaY1WHgpIUxZPe3-2" value="$$\theta_n$$" style="ellipse;whiteSpace=wrap;html=1;fontSize=20;fillColor=#ffe6cc;strokeColor=#d79b00;" vertex="1" parent="1">
          <mxGeometry x="140" y="240" width="120" height="80" as="geometry" />
        </mxCell>
        <mxCell id="jQJNhtaY1WHgpIUxZPe3-3" style="edgeStyle=none;rounded=0;orthogonalLoop=1;jettySize=auto;html=1;fontSize=20;entryX=0.5;entryY=0;entryDx=0;entryDy=0;exitX=0.5;exitY=1;exitDx=0;exitDy=0;" edge="1" parent="1" source="jQJNhtaY1WHgpIUxZPe3-4" target="KTme4jY6_BbVO6t4tggh-12">
          <mxGeometry relative="1" as="geometry">
            <mxPoint x="520" y="390" as="targetPoint" />
          </mxGeometry>
        </mxCell>
        <mxCell id="KTme4jY6_BbVO6t4tggh-18" style="edgeStyle=none;rounded=0;orthogonalLoop=1;jettySize=auto;html=1;entryX=0.5;entryY=0;entryDx=0;entryDy=0;exitX=0.5;exitY=1;exitDx=0;exitDy=0;" edge="1" parent="1" source="jQJNhtaY1WHgpIUxZPe3-4" target="KTme4jY6_BbVO6t4tggh-13">
          <mxGeometry relative="1" as="geometry" />
        </mxCell>
        <mxCell id="KTme4jY6_BbVO6t4tggh-19" style="edgeStyle=none;rounded=0;orthogonalLoop=1;jettySize=auto;html=1;exitX=0.5;exitY=1;exitDx=0;exitDy=0;" edge="1" parent="1" source="jQJNhtaY1WHgpIUxZPe3-4" target="KTme4jY6_BbVO6t4tggh-16">
          <mxGeometry relative="1" as="geometry" />
        </mxCell>
        <mxCell id="KTme4jY6_BbVO6t4tggh-20" style="edgeStyle=none;rounded=0;orthogonalLoop=1;jettySize=auto;html=1;entryX=0.5;entryY=0;entryDx=0;entryDy=0;exitX=0.5;exitY=1;exitDx=0;exitDy=0;" edge="1" parent="1" source="jQJNhtaY1WHgpIUxZPe3-4" target="KTme4jY6_BbVO6t4tggh-15">
          <mxGeometry relative="1" as="geometry" />
        </mxCell>
        <mxCell id="KTme4jY6_BbVO6t4tggh-21" style="edgeStyle=none;rounded=0;orthogonalLoop=1;jettySize=auto;html=1;entryX=0.5;entryY=0;entryDx=0;entryDy=0;exitX=0.5;exitY=1;exitDx=0;exitDy=0;" edge="1" parent="1" source="jQJNhtaY1WHgpIUxZPe3-4" target="KTme4jY6_BbVO6t4tggh-17">
          <mxGeometry relative="1" as="geometry" />
        </mxCell>
        <mxCell id="jQJNhtaY1WHgpIUxZPe3-4" value="$$\upsilon_n$$" style="ellipse;whiteSpace=wrap;html=1;fontSize=20;fillColor=#f8cecc;strokeColor=#b85450;" vertex="1" parent="1">
          <mxGeometry x="460" y="240" width="120" height="80" as="geometry" />
        </mxCell>
        <mxCell id="KTme4jY6_BbVO6t4tggh-2" value="$$Y_{n1&lt;br style=&quot;font-size: 17px;&quot;&gt;}$$" style="rounded=0;whiteSpace=wrap;html=1;fillColor=#f5f5f5;fontColor=#333333;strokeColor=#666666;fontSize=17;" vertex="1" parent="1">
          <mxGeometry x="40" y="420" width="50" height="50" as="geometry" />
        </mxCell>
        <mxCell id="KTme4jY6_BbVO6t4tggh-3" value="$$Y_{ni&lt;br style=&quot;font-size: 17px;&quot;&gt;}$$" style="rounded=0;whiteSpace=wrap;html=1;fillColor=#f5f5f5;fontColor=#333333;strokeColor=#666666;fontSize=17;" vertex="1" parent="1">
          <mxGeometry x="160" y="420" width="50" height="50" as="geometry" />
        </mxCell>
        <mxCell id="KTme4jY6_BbVO6t4tggh-4" value="$$Y_{nI&lt;br style=&quot;font-size: 17px;&quot;&gt;}$$" style="rounded=0;whiteSpace=wrap;html=1;fillColor=#f5f5f5;fontColor=#333333;strokeColor=#666666;fontSize=17;" vertex="1" parent="1">
          <mxGeometry x="280" y="420" width="50" height="50" as="geometry" />
        </mxCell>
        <mxCell id="KTme4jY6_BbVO6t4tggh-5" value="..." style="rounded=0;whiteSpace=wrap;html=1;fillColor=#f5f5f5;fontColor=#333333;strokeColor=#666666;fontStyle=1;fontSize=17;" vertex="1" parent="1">
          <mxGeometry x="100" y="420" width="50" height="50" as="geometry" />
        </mxCell>
        <mxCell id="KTme4jY6_BbVO6t4tggh-6" value="..." style="rounded=0;whiteSpace=wrap;html=1;fillColor=#f5f5f5;fontColor=#333333;strokeColor=#666666;fontStyle=1;fontSize=17;" vertex="1" parent="1">
          <mxGeometry x="220" y="420" width="50" height="50" as="geometry" />
        </mxCell>
        <mxCell id="KTme4jY6_BbVO6t4tggh-12" value="$$\Delta_{n1&lt;br style=&quot;font-size: 17px;&quot;&gt;}$$" style="rounded=0;whiteSpace=wrap;html=1;fillColor=#f5f5f5;fontColor=#333333;strokeColor=#666666;fontSize=17;" vertex="1" parent="1">
          <mxGeometry x="400" y="420" width="50" height="50" as="geometry" />
        </mxCell>
        <mxCell id="KTme4jY6_BbVO6t4tggh-13" value="..." style="rounded=0;whiteSpace=wrap;html=1;fillColor=#f5f5f5;fontColor=#333333;strokeColor=#666666;fontStyle=1;fontSize=17;" vertex="1" parent="1">
          <mxGeometry x="460" y="420" width="50" height="50" as="geometry" />
        </mxCell>
        <mxCell id="KTme4jY6_BbVO6t4tggh-14" value="$$d_{n1&lt;br style=&quot;font-size: 17px;&quot;&gt;}$$" style="rounded=0;whiteSpace=wrap;html=1;fillColor=#f5f5f5;fontColor=#333333;strokeColor=#666666;fontSize=17;" vertex="1" parent="1">
          <mxGeometry x="400" y="420" width="50" height="50" as="geometry" />
        </mxCell>
        <mxCell id="KTme4jY6_BbVO6t4tggh-15" value="..." style="rounded=0;whiteSpace=wrap;html=1;fillColor=#f5f5f5;fontColor=#333333;strokeColor=#666666;fontStyle=1;fontSize=17;" vertex="1" parent="1">
          <mxGeometry x="580" y="420" width="50" height="50" as="geometry" />
        </mxCell>
        <mxCell id="KTme4jY6_BbVO6t4tggh-16" value="$$d_{ni&lt;br style=&quot;font-size: 17px;&quot;&gt;}$$" style="rounded=0;whiteSpace=wrap;html=1;fillColor=#f5f5f5;fontColor=#333333;strokeColor=#666666;fontSize=17;" vertex="1" parent="1">
          <mxGeometry x="520" y="420" width="50" height="50" as="geometry" />
        </mxCell>
        <mxCell id="KTme4jY6_BbVO6t4tggh-17" value="$$d_{nI&lt;br style=&quot;font-size: 17px;&quot;&gt;}$$" style="rounded=0;whiteSpace=wrap;html=1;fillColor=#f5f5f5;fontColor=#333333;strokeColor=#666666;fontSize=17;" vertex="1" parent="1">
          <mxGeometry x="640" y="420" width="50" height="50" as="geometry" />
        </mxCell>
        <mxCell id="KTme4jY6_BbVO6t4tggh-22" value="" style="endArrow=classic;startArrow=classic;html=1;rounded=0;strokeWidth=2;fontSize=17;entryX=0.5;entryY=0;entryDx=0;entryDy=0;exitX=0.5;exitY=0;exitDx=0;exitDy=0;edgeStyle=orthogonalEdgeStyle;curved=1;" edge="1" parent="1" source="jQJNhtaY1WHgpIUxZPe3-2" target="jQJNhtaY1WHgpIUxZPe3-4">
          <mxGeometry width="50" height="50" relative="1" as="geometry">
            <mxPoint x="390" y="400" as="sourcePoint" />
            <mxPoint x="440" y="350" as="targetPoint" />
            <Array as="points">
              <mxPoint x="200" y="170" />
              <mxPoint x="520" y="170" />
            </Array>
          </mxGeometry>
        </mxCell>
      </root>
    </mxGraphModel>
  </diagram>
  <diagram id="ecTOe2Qh9DCYKsKftmAz" name="第 22 页">
    <mxGraphModel dx="2261" dy="764" grid="1" gridSize="10" guides="1" tooltips="1" connect="1" arrows="1" fold="1" page="1" pageScale="1" pageWidth="827" pageHeight="1169" math="1" shadow="0">
      <root>
        <mxCell id="0" />
        <mxCell id="1" parent="0" />
        <mxCell id="_3InY8OKzknSzeHLNezd-29" value="" style="rounded=0;whiteSpace=wrap;html=1;fontSize=17;" parent="1" vertex="1">
          <mxGeometry x="90" y="110" width="170" height="250" as="geometry" />
        </mxCell>
        <mxCell id="_3InY8OKzknSzeHLNezd-23" value="" style="edgeStyle=orthogonalEdgeStyle;curved=1;rounded=0;orthogonalLoop=1;jettySize=auto;html=1;strokeWidth=2;fontSize=17;" parent="1" source="XK4S8hzd98KWaBFikZZX-1" target="_3InY8OKzknSzeHLNezd-22" edge="1">
          <mxGeometry relative="1" as="geometry" />
        </mxCell>
        <mxCell id="XK4S8hzd98KWaBFikZZX-1" value="$$\upsilon^g_{n}&lt;br&gt;$$" style="ellipse;whiteSpace=wrap;html=1;fontSize=17;fillColor=#ffe6cc;strokeColor=#d79b00;" parent="1" vertex="1">
          <mxGeometry x="610" y="260" width="80" height="60" as="geometry" />
        </mxCell>
        <mxCell id="_3InY8OKzknSzeHLNezd-13" value="" style="edgeStyle=orthogonalEdgeStyle;curved=1;rounded=0;orthogonalLoop=1;jettySize=auto;html=1;strokeWidth=2;fontSize=17;entryX=1;entryY=0.5;entryDx=0;entryDy=0;exitX=0;exitY=0.5;exitDx=0;exitDy=0;" parent="1" source="_3InY8OKzknSzeHLNezd-38" target="_3InY8OKzknSzeHLNezd-37" edge="1">
          <mxGeometry relative="1" as="geometry">
            <mxPoint x="510" y="290" as="sourcePoint" />
            <mxPoint x="240" y="290" as="targetPoint" />
          </mxGeometry>
        </mxCell>
        <mxCell id="_3InY8OKzknSzeHLNezd-4" value="" style="edgeStyle=orthogonalEdgeStyle;curved=1;rounded=0;orthogonalLoop=1;jettySize=auto;html=1;strokeWidth=2;fontSize=17;" parent="1" source="_3InY8OKzknSzeHLNezd-2" target="_3InY8OKzknSzeHLNezd-3" edge="1">
          <mxGeometry relative="1" as="geometry" />
        </mxCell>
        <mxCell id="_3InY8OKzknSzeHLNezd-2" value="$$\theta_{n}&lt;br&gt;$$" style="ellipse;whiteSpace=wrap;html=1;fontSize=17;fillColor=#ffe6cc;strokeColor=#d79b00;" parent="1" vertex="1">
          <mxGeometry x="490" y="125" width="80" height="60" as="geometry" />
        </mxCell>
        <mxCell id="_3InY8OKzknSzeHLNezd-6" value="" style="edgeStyle=orthogonalEdgeStyle;curved=1;rounded=0;orthogonalLoop=1;jettySize=auto;html=1;strokeWidth=2;fontSize=17;" parent="1" source="_3InY8OKzknSzeHLNezd-3" target="_3InY8OKzknSzeHLNezd-5" edge="1">
          <mxGeometry relative="1" as="geometry" />
        </mxCell>
        <mxCell id="_3InY8OKzknSzeHLNezd-3" value="$$\alpha_{nk}&lt;br&gt;$$" style="ellipse;whiteSpace=wrap;html=1;fontSize=17;fillColor=#ffe6cc;strokeColor=#d79b00;" parent="1" vertex="1">
          <mxGeometry x="300" y="125" width="90" height="60" as="geometry" />
        </mxCell>
        <mxCell id="_3InY8OKzknSzeHLNezd-5" value="RA:&lt;br&gt;HO-DINA" style="whiteSpace=wrap;html=1;fontSize=17;fillColor=#ffe6cc;strokeColor=#d79b00;" parent="1" vertex="1">
          <mxGeometry x="110" y="117.5" width="120" height="75" as="geometry" />
        </mxCell>
        <mxCell id="_3InY8OKzknSzeHLNezd-33" style="edgeStyle=none;rounded=0;orthogonalLoop=1;jettySize=auto;html=1;entryX=0;entryY=0.5;entryDx=0;entryDy=0;strokeWidth=2;fontSize=17;" parent="1" source="_3InY8OKzknSzeHLNezd-7" target="_3InY8OKzknSzeHLNezd-5" edge="1">
          <mxGeometry relative="1" as="geometry" />
        </mxCell>
        <mxCell id="_3InY8OKzknSzeHLNezd-7" value="$$s_i$$" style="ellipse;whiteSpace=wrap;html=1;fontSize=17;fillColor=#f8cecc;strokeColor=#b85450;" parent="1" vertex="1">
          <mxGeometry x="-100" y="65" width="70" height="50" as="geometry" />
        </mxCell>
        <mxCell id="_3InY8OKzknSzeHLNezd-34" style="edgeStyle=none;rounded=0;orthogonalLoop=1;jettySize=auto;html=1;entryX=0;entryY=0.5;entryDx=0;entryDy=0;strokeWidth=2;fontSize=17;" parent="1" source="_3InY8OKzknSzeHLNezd-8" target="_3InY8OKzknSzeHLNezd-5" edge="1">
          <mxGeometry relative="1" as="geometry" />
        </mxCell>
        <mxCell id="_3InY8OKzknSzeHLNezd-8" value="$$g_i$$" style="ellipse;whiteSpace=wrap;html=1;fontSize=17;fillColor=#f8cecc;strokeColor=#b85450;" parent="1" vertex="1">
          <mxGeometry x="-95" y="155" width="60" height="45" as="geometry" />
        </mxCell>
        <mxCell id="_3InY8OKzknSzeHLNezd-36" style="edgeStyle=none;rounded=0;orthogonalLoop=1;jettySize=auto;html=1;entryX=0;entryY=0.5;entryDx=0;entryDy=0;strokeWidth=2;fontSize=17;" parent="1" source="_3InY8OKzknSzeHLNezd-14" edge="1">
          <mxGeometry relative="1" as="geometry">
            <mxPoint x="120" y="290" as="targetPoint" />
          </mxGeometry>
        </mxCell>
        <mxCell id="_3InY8OKzknSzeHLNezd-14" value="$$\omega_i$$" style="ellipse;whiteSpace=wrap;html=1;fontSize=17;fillColor=#f8cecc;strokeColor=#b85450;" parent="1" vertex="1">
          <mxGeometry x="-100" y="320" width="70" height="50" as="geometry" />
        </mxCell>
        <mxCell id="_3InY8OKzknSzeHLNezd-35" style="edgeStyle=none;rounded=0;orthogonalLoop=1;jettySize=auto;html=1;entryX=0;entryY=0.5;entryDx=0;entryDy=0;strokeWidth=2;fontSize=17;" parent="1" source="_3InY8OKzknSzeHLNezd-15" edge="1">
          <mxGeometry relative="1" as="geometry">
            <mxPoint x="120" y="290" as="targetPoint" />
          </mxGeometry>
        </mxCell>
        <mxCell id="_3InY8OKzknSzeHLNezd-15" value="$$\beta_i$$" style="ellipse;whiteSpace=wrap;html=1;fontSize=17;fillColor=#f8cecc;strokeColor=#b85450;" parent="1" vertex="1">
          <mxGeometry x="-90" y="250" width="60" height="45" as="geometry" />
        </mxCell>
        <mxCell id="_3InY8OKzknSzeHLNezd-27" style="rounded=0;orthogonalLoop=1;jettySize=auto;html=1;strokeWidth=2;fontSize=17;entryX=1.018;entryY=0.892;entryDx=0;entryDy=0;entryPerimeter=0;" parent="1" source="_3InY8OKzknSzeHLNezd-22" target="_3InY8OKzknSzeHLNezd-29" edge="1">
          <mxGeometry relative="1" as="geometry">
            <mxPoint x="270" y="330" as="targetPoint" />
          </mxGeometry>
        </mxCell>
        <mxCell id="_3InY8OKzknSzeHLNezd-28" style="rounded=0;orthogonalLoop=1;jettySize=auto;html=1;strokeWidth=2;fontSize=17;entryX=1;entryY=0.5;entryDx=0;entryDy=0;fillColor=#f5f5f5;strokeColor=#666666;" parent="1" source="_3InY8OKzknSzeHLNezd-22" target="_3InY8OKzknSzeHLNezd-30" edge="1">
          <mxGeometry relative="1" as="geometry">
            <mxPoint x="260" y="470" as="targetPoint" />
          </mxGeometry>
        </mxCell>
        <mxCell id="_3InY8OKzknSzeHLNezd-22" value="$$\Delta_{ni}&lt;br&gt;$$" style="ellipse;whiteSpace=wrap;html=1;fontSize=17;fillColor=#ffe6cc;strokeColor=#d79b00;" parent="1" vertex="1">
          <mxGeometry x="590" y="380" width="120" height="60" as="geometry" />
        </mxCell>
        <mxCell id="_3InY8OKzknSzeHLNezd-25" style="edgeStyle=orthogonalEdgeStyle;curved=1;rounded=0;orthogonalLoop=1;jettySize=auto;html=1;entryX=0.5;entryY=1;entryDx=0;entryDy=0;strokeWidth=2;fontSize=17;" parent="1" source="_3InY8OKzknSzeHLNezd-24" target="_3InY8OKzknSzeHLNezd-22" edge="1">
          <mxGeometry relative="1" as="geometry" />
        </mxCell>
        <mxCell id="_3InY8OKzknSzeHLNezd-24" value="$$b_{0i}^{g&lt;br&gt;}$$" style="ellipse;whiteSpace=wrap;html=1;fontSize=17;fillColor=#f8cecc;strokeColor=#b85450;" parent="1" vertex="1">
          <mxGeometry x="615" y="480" width="70" height="50" as="geometry" />
        </mxCell>
        <mxCell id="_3InY8OKzknSzeHLNezd-30" value="" style="rounded=0;whiteSpace=wrap;html=1;fontSize=17;fillColor=#f5f5f5;fontColor=#333333;strokeColor=#666666;" parent="1" vertex="1">
          <mxGeometry x="90" y="370" width="170" height="250" as="geometry" />
        </mxCell>
        <mxCell id="_3InY8OKzknSzeHLNezd-31" value="" style="whiteSpace=wrap;html=1;fontSize=17;fillColor=#ffe6cc;strokeColor=#d79b00;" parent="1" vertex="1">
          <mxGeometry x="115" y="390" width="120" height="60" as="geometry" />
        </mxCell>
        <mxCell id="_3InY8OKzknSzeHLNezd-32" value="$$N(d_c, \sigma_c^2)$$" style="whiteSpace=wrap;html=1;fontSize=17;fillColor=#ffe6cc;strokeColor=#d79b00;" parent="1" vertex="1">
          <mxGeometry x="115" y="530" width="120" height="60" as="geometry" />
        </mxCell>
        <mxCell id="_3InY8OKzknSzeHLNezd-37" value="RT:&lt;br&gt;LRTM" style="whiteSpace=wrap;html=1;fontSize=17;fillColor=#ffe6cc;strokeColor=#d79b00;" parent="1" vertex="1">
          <mxGeometry x="110" y="250" width="120" height="70" as="geometry" />
        </mxCell>
        <mxCell id="_3InY8OKzknSzeHLNezd-38" value="$$\tau_{n}&lt;br&gt;$$" style="ellipse;whiteSpace=wrap;html=1;fontSize=17;fillColor=#ffe6cc;strokeColor=#d79b00;" parent="1" vertex="1">
          <mxGeometry x="500" y="255" width="80" height="60" as="geometry" />
        </mxCell>
        <mxCell id="_3InY8OKzknSzeHLNezd-41" value="$$\upsilon^s_{n}&lt;br&gt;$$" style="ellipse;whiteSpace=wrap;html=1;fontSize=17;fillColor=#ffe6cc;strokeColor=#d79b00;" parent="1" vertex="1">
          <mxGeometry x="615" y="132.5" width="80" height="60" as="geometry" />
        </mxCell>
      </root>
    </mxGraphModel>
  </diagram>
  <diagram id="XJFW3u-6ePXDVl06yv7y" name="第 24 页">
    <mxGraphModel dx="2261" dy="764" grid="1" gridSize="10" guides="1" tooltips="1" connect="1" arrows="1" fold="1" page="1" pageScale="1" pageWidth="827" pageHeight="1169" math="1" shadow="0">
      <root>
        <mxCell id="0" />
        <mxCell id="1" parent="0" />
        <mxCell id="1DJW6nAyTeDtkG0l0eXp-42" value="" style="rounded=0;whiteSpace=wrap;html=1;strokeWidth=4;fontSize=20;dashed=1;fillColor=#f9f7ed;strokeColor=#36393d;" parent="1" vertex="1">
          <mxGeometry x="-47" y="430" width="310" height="200" as="geometry" />
        </mxCell>
        <mxCell id="ow1rbxrJt0QYVjp2IVCN-6" style="rounded=0;orthogonalLoop=1;jettySize=auto;html=1;strokeWidth=3;fillColor=#ffcc99;strokeColor=#36393d;edgeStyle=orthogonalEdgeStyle;fontStyle=1;entryX=0.5;entryY=0;entryDx=0;entryDy=0;" parent="1" source="ow1rbxrJt0QYVjp2IVCN-8" target="qteeY5Dqzi4gvFfsH3yB-14" edge="1">
          <mxGeometry relative="1" as="geometry">
            <mxPoint x="120" y="300" as="targetPoint" />
          </mxGeometry>
        </mxCell>
        <mxCell id="ow1rbxrJt0QYVjp2IVCN-7" style="edgeStyle=orthogonalEdgeStyle;rounded=0;orthogonalLoop=1;jettySize=auto;html=1;fontSize=25;strokeColor=#000000;strokeWidth=3;entryX=0.5;entryY=0;entryDx=0;entryDy=0;fontStyle=1;exitX=1;exitY=0.5;exitDx=0;exitDy=0;" parent="1" source="ow1rbxrJt0QYVjp2IVCN-8" target="qteeY5Dqzi4gvFfsH3yB-36" edge="1">
          <mxGeometry relative="1" as="geometry">
            <mxPoint x="501" y="320" as="targetPoint" />
          </mxGeometry>
        </mxCell>
        <mxCell id="ow1rbxrJt0QYVjp2IVCN-8" value="$$logit(P(\Delta_{ni}) )=b_{0i}^g+\upsilon_n^g$$" style="ellipse;whiteSpace=wrap;html=1;fontSize=17;align=center;fillColor=#bac8d3;strokeColor=#23445d;fontStyle=1" parent="1" vertex="1">
          <mxGeometry x="180" y="200" width="261" height="80" as="geometry" />
        </mxCell>
        <mxCell id="ow1rbxrJt0QYVjp2IVCN-17" value="" style="edgeStyle=orthogonalEdgeStyle;rounded=0;orthogonalLoop=1;jettySize=auto;html=1;fontSize=20;strokeWidth=3;" parent="1" source="ow1rbxrJt0QYVjp2IVCN-18" target="ow1rbxrJt0QYVjp2IVCN-20" edge="1">
          <mxGeometry relative="1" as="geometry" />
        </mxCell>
        <mxCell id="ow1rbxrJt0QYVjp2IVCN-18" value="$$logit(P(S_{ni}) )=b_{0i}^s+&lt;br&gt;\upsilon_n^s$$" style="ellipse;whiteSpace=wrap;html=1;fontSize=17;align=center;fillColor=#bac8d3;strokeColor=#23445d;fontStyle=1" parent="1" vertex="1">
          <mxGeometry x="-80" y="100" width="221" height="80" as="geometry" />
        </mxCell>
        <mxCell id="ow1rbxrJt0QYVjp2IVCN-19" style="edgeStyle=orthogonalEdgeStyle;rounded=0;orthogonalLoop=1;jettySize=auto;html=1;fontSize=25;strokeColor=#000000;strokeWidth=3;entryX=0.5;entryY=0;entryDx=0;entryDy=0;fontStyle=1" parent="1" source="ow1rbxrJt0QYVjp2IVCN-18" target="ow1rbxrJt0QYVjp2IVCN-8" edge="1">
          <mxGeometry relative="1" as="geometry">
            <mxPoint x="307.5" y="140" as="targetPoint" />
            <mxPoint x="179" y="60" as="sourcePoint" />
          </mxGeometry>
        </mxCell>
        <mxCell id="ow1rbxrJt0QYVjp2IVCN-20" value="&lt;span style=&quot;font-size: 18px;&quot;&gt;题目跳过&lt;/span&gt;" style="whiteSpace=wrap;html=1;fontSize=19;fillColor=#f9f7ed;strokeColor=#36393d;fontStyle=1;" parent="1" vertex="1">
          <mxGeometry x="-270" y="500" width="120" height="60" as="geometry" />
        </mxCell>
        <mxCell id="1DJW6nAyTeDtkG0l0eXp-43" style="edgeStyle=orthogonalEdgeStyle;rounded=0;orthogonalLoop=1;jettySize=auto;html=1;entryX=0.5;entryY=0;entryDx=0;entryDy=0;strokeWidth=2;fontSize=20;" parent="1" source="qteeY5Dqzi4gvFfsH3yB-14" target="1DJW6nAyTeDtkG0l0eXp-42" edge="1">
          <mxGeometry relative="1" as="geometry" />
        </mxCell>
        <mxCell id="qteeY5Dqzi4gvFfsH3yB-14" value="&lt;span style=&quot;font-size: 18px;&quot;&gt;&lt;b&gt;解答行为&lt;/b&gt;&lt;/span&gt;" style="ellipse;whiteSpace=wrap;html=1;fontSize=17;fillColor=#fad7ac;strokeColor=#b46504;" parent="1" vertex="1">
          <mxGeometry x="48" y="330" width="120" height="80" as="geometry" />
        </mxCell>
        <mxCell id="qteeY5Dqzi4gvFfsH3yB-36" value="&lt;span style=&quot;font-size: 18px; font-weight: 700;&quot;&gt;快速猜测&lt;/span&gt;" style="ellipse;whiteSpace=wrap;html=1;fontSize=17;fillColor=#fad7ac;strokeColor=#b46504;" parent="1" vertex="1">
          <mxGeometry x="441" y="330" width="120" height="80" as="geometry" />
        </mxCell>
        <mxCell id="1DJW6nAyTeDtkG0l0eXp-7" value="" style="edgeStyle=none;rounded=0;orthogonalLoop=1;jettySize=auto;html=1;strokeWidth=2;fontSize=20;" parent="1" edge="1">
          <mxGeometry relative="1" as="geometry">
            <mxPoint y="520" as="sourcePoint" />
          </mxGeometry>
        </mxCell>
        <mxCell id="1DJW6nAyTeDtkG0l0eXp-10" value="" style="edgeStyle=none;rounded=0;orthogonalLoop=1;jettySize=auto;html=1;strokeWidth=2;fontSize=20;" parent="1" edge="1">
          <mxGeometry relative="1" as="geometry">
            <mxPoint x="220" y="520" as="sourcePoint" />
          </mxGeometry>
        </mxCell>
        <mxCell id="1DJW6nAyTeDtkG0l0eXp-29" style="edgeStyle=orthogonalEdgeStyle;rounded=0;orthogonalLoop=1;jettySize=auto;html=1;entryX=0.5;entryY=0;entryDx=0;entryDy=0;strokeWidth=2;fontSize=20;" parent="1" source="1DJW6nAyTeDtkG0l0eXp-25" target="1DJW6nAyTeDtkG0l0eXp-27" edge="1">
          <mxGeometry relative="1" as="geometry" />
        </mxCell>
        <mxCell id="1DJW6nAyTeDtkG0l0eXp-25" value="&lt;span style=&quot;font-size: 18px; font-weight: 700;&quot;&gt;HO-DINA&lt;/span&gt;" style="rounded=0;whiteSpace=wrap;html=1;strokeWidth=1;fontSize=20;" parent="1" vertex="1">
          <mxGeometry x="-22" y="450" width="120" height="60" as="geometry" />
        </mxCell>
        <mxCell id="1DJW6nAyTeDtkG0l0eXp-35" style="edgeStyle=orthogonalEdgeStyle;rounded=0;orthogonalLoop=1;jettySize=auto;html=1;strokeWidth=2;fontSize=20;" parent="1" source="1DJW6nAyTeDtkG0l0eXp-26" target="1DJW6nAyTeDtkG0l0eXp-28" edge="1">
          <mxGeometry relative="1" as="geometry" />
        </mxCell>
        <mxCell id="1DJW6nAyTeDtkG0l0eXp-26" value="&lt;span style=&quot;font-size: 18px; font-weight: 700;&quot;&gt;LRTM&lt;/span&gt;" style="rounded=0;whiteSpace=wrap;html=1;strokeWidth=1;fontSize=20;fillColor=#f8cecc;strokeColor=#b85450;" parent="1" vertex="1">
          <mxGeometry x="118" y="450" width="120" height="60" as="geometry" />
        </mxCell>
        <mxCell id="1DJW6nAyTeDtkG0l0eXp-27" value="&lt;span style=&quot;font-weight: 700;&quot;&gt;RA&lt;/span&gt;" style="rounded=0;whiteSpace=wrap;html=1;strokeWidth=1;fontSize=20;fillColor=#b1ddf0;strokeColor=#10739e;" parent="1" vertex="1">
          <mxGeometry x="-22" y="540" width="120" height="60" as="geometry" />
        </mxCell>
        <mxCell id="1DJW6nAyTeDtkG0l0eXp-28" value="&lt;span style=&quot;font-weight: 700;&quot;&gt;RT&lt;/span&gt;" style="rounded=0;whiteSpace=wrap;html=1;strokeWidth=1;fontSize=20;fillColor=#f8cecc;strokeColor=#b85450;" parent="1" vertex="1">
          <mxGeometry x="118" y="540" width="120" height="60" as="geometry" />
        </mxCell>
        <mxCell id="1DJW6nAyTeDtkG0l0eXp-36" style="edgeStyle=orthogonalEdgeStyle;rounded=0;orthogonalLoop=1;jettySize=auto;html=1;entryX=0.5;entryY=0;entryDx=0;entryDy=0;strokeWidth=2;fontSize=20;" parent="1" edge="1">
          <mxGeometry relative="1" as="geometry">
            <mxPoint x="720" y="515" as="sourcePoint" />
          </mxGeometry>
        </mxCell>
        <mxCell id="1DJW6nAyTeDtkG0l0eXp-38" style="edgeStyle=orthogonalEdgeStyle;rounded=0;orthogonalLoop=1;jettySize=auto;html=1;strokeWidth=2;fontSize=20;" parent="1" edge="1">
          <mxGeometry relative="1" as="geometry">
            <mxPoint x="970" y="515" as="sourcePoint" />
          </mxGeometry>
        </mxCell>
        <mxCell id="1DJW6nAyTeDtkG0l0eXp-45" value="" style="rounded=0;whiteSpace=wrap;html=1;strokeWidth=4;fontSize=20;dashed=1;fillColor=#f9f7ed;strokeColor=#36393d;" parent="1" vertex="1">
          <mxGeometry x="350" y="430" width="310" height="200" as="geometry" />
        </mxCell>
        <mxCell id="1DJW6nAyTeDtkG0l0eXp-46" style="edgeStyle=orthogonalEdgeStyle;rounded=0;orthogonalLoop=1;jettySize=auto;html=1;entryX=0.5;entryY=0;entryDx=0;entryDy=0;strokeWidth=2;fontSize=20;" parent="1" target="1DJW6nAyTeDtkG0l0eXp-45" edge="1">
          <mxGeometry relative="1" as="geometry">
            <mxPoint x="505" y="410" as="sourcePoint" />
          </mxGeometry>
        </mxCell>
        <mxCell id="1DJW6nAyTeDtkG0l0eXp-47" style="edgeStyle=orthogonalEdgeStyle;rounded=0;orthogonalLoop=1;jettySize=auto;html=1;entryX=0.5;entryY=0;entryDx=0;entryDy=0;strokeWidth=2;fontSize=20;" parent="1" source="1DJW6nAyTeDtkG0l0eXp-48" target="1DJW6nAyTeDtkG0l0eXp-51" edge="1">
          <mxGeometry relative="1" as="geometry" />
        </mxCell>
        <mxCell id="1DJW6nAyTeDtkG0l0eXp-48" value="&lt;span style=&quot;font-size: 18px;&quot;&gt;$$d_c$$&lt;/span&gt;" style="rounded=0;whiteSpace=wrap;html=1;strokeWidth=1;fontSize=20;fontStyle=1;fillColor=#b1ddf0;strokeColor=#10739e;" parent="1" vertex="1">
          <mxGeometry x="375" y="450" width="120" height="60" as="geometry" />
        </mxCell>
        <mxCell id="1DJW6nAyTeDtkG0l0eXp-49" style="edgeStyle=orthogonalEdgeStyle;rounded=0;orthogonalLoop=1;jettySize=auto;html=1;strokeWidth=2;fontSize=20;" parent="1" source="1DJW6nAyTeDtkG0l0eXp-50" target="1DJW6nAyTeDtkG0l0eXp-52" edge="1">
          <mxGeometry relative="1" as="geometry" />
        </mxCell>
        <mxCell id="1DJW6nAyTeDtkG0l0eXp-50" value="&lt;span style=&quot;font-size: 17px;&quot;&gt;$$logN(d_c, \sigma_c^2)$$&lt;/span&gt;" style="rounded=0;whiteSpace=wrap;html=1;strokeWidth=1;fontSize=20;fontStyle=1;fillColor=#fad9d5;strokeColor=#ae4132;" parent="1" vertex="1">
          <mxGeometry x="515" y="450" width="120" height="60" as="geometry" />
        </mxCell>
        <mxCell id="1DJW6nAyTeDtkG0l0eXp-51" value="&lt;span style=&quot;font-weight: 700;&quot;&gt;RA&lt;/span&gt;" style="rounded=0;whiteSpace=wrap;html=1;strokeWidth=1;fontSize=20;fillColor=#b1ddf0;strokeColor=#10739e;" parent="1" vertex="1">
          <mxGeometry x="375" y="540" width="120" height="60" as="geometry" />
        </mxCell>
        <mxCell id="1DJW6nAyTeDtkG0l0eXp-52" value="&lt;span style=&quot;font-weight: 700;&quot;&gt;RT&lt;/span&gt;" style="rounded=0;whiteSpace=wrap;html=1;strokeWidth=1;fontSize=20;fillColor=#fad9d5;strokeColor=#ae4132;" parent="1" vertex="1">
          <mxGeometry x="515" y="540" width="120" height="60" as="geometry" />
        </mxCell>
        <mxCell id="1DJW6nAyTeDtkG0l0eXp-53" value="&lt;span style=&quot;font-size: 18px; font-weight: 700;&quot;&gt;HO-DINA&lt;/span&gt;" style="rounded=0;whiteSpace=wrap;html=1;strokeWidth=1;fontSize=20;fillColor=#b1ddf0;strokeColor=#10739e;" parent="1" vertex="1">
          <mxGeometry x="-22" y="450" width="120" height="60" as="geometry" />
        </mxCell>
      </root>
    </mxGraphModel>
  </diagram>
  <diagram id="c9oQYq-oIGreLTWPQa-x" name="第 25 页">
    <mxGraphModel dx="2261" dy="764" grid="1" gridSize="10" guides="1" tooltips="1" connect="1" arrows="1" fold="1" page="1" pageScale="1" pageWidth="827" pageHeight="1169" math="1" shadow="0">
      <root>
        <mxCell id="0" />
        <mxCell id="1" parent="0" />
        <mxCell id="sLZciuPTcf9tt2QzFGqU-1" value="" style="rounded=0;whiteSpace=wrap;html=1;strokeWidth=4;fontSize=20;dashed=1;fillColor=#f9f7ed;strokeColor=#36393d;" parent="1" vertex="1">
          <mxGeometry x="-47" y="430" width="310" height="200" as="geometry" />
        </mxCell>
        <mxCell id="sLZciuPTcf9tt2QzFGqU-2" style="rounded=0;orthogonalLoop=1;jettySize=auto;html=1;strokeWidth=3;fillColor=#ffcc99;strokeColor=#36393d;edgeStyle=orthogonalEdgeStyle;fontStyle=1;entryX=0.5;entryY=0;entryDx=0;entryDy=0;" parent="1" source="sLZciuPTcf9tt2QzFGqU-4" target="sLZciuPTcf9tt2QzFGqU-10" edge="1">
          <mxGeometry relative="1" as="geometry">
            <mxPoint x="120" y="300" as="targetPoint" />
          </mxGeometry>
        </mxCell>
        <mxCell id="sLZciuPTcf9tt2QzFGqU-3" style="edgeStyle=orthogonalEdgeStyle;rounded=0;orthogonalLoop=1;jettySize=auto;html=1;fontSize=25;strokeColor=#000000;strokeWidth=3;entryX=0.5;entryY=0;entryDx=0;entryDy=0;fontStyle=1;exitX=1;exitY=0.5;exitDx=0;exitDy=0;" parent="1" source="sLZciuPTcf9tt2QzFGqU-4" target="sLZciuPTcf9tt2QzFGqU-11" edge="1">
          <mxGeometry relative="1" as="geometry">
            <mxPoint x="501" y="320" as="targetPoint" />
          </mxGeometry>
        </mxCell>
        <mxCell id="sLZciuPTcf9tt2QzFGqU-4" value="$$logit(P(\Delta_{ni}) )=b_{0i}^g+\upsilon_n^g$$" style="ellipse;whiteSpace=wrap;html=1;fontSize=17;align=center;fillColor=#bac8d3;strokeColor=#23445d;fontStyle=1" parent="1" vertex="1">
          <mxGeometry x="180" y="200" width="261" height="80" as="geometry" />
        </mxCell>
        <mxCell id="sLZciuPTcf9tt2QzFGqU-9" style="edgeStyle=orthogonalEdgeStyle;rounded=0;orthogonalLoop=1;jettySize=auto;html=1;entryX=0.5;entryY=0;entryDx=0;entryDy=0;strokeWidth=2;fontSize=20;" parent="1" source="sLZciuPTcf9tt2QzFGqU-10" target="sLZciuPTcf9tt2QzFGqU-1" edge="1">
          <mxGeometry relative="1" as="geometry" />
        </mxCell>
        <mxCell id="sLZciuPTcf9tt2QzFGqU-10" value="&lt;span style=&quot;font-size: 18px; font-weight: 700;&quot;&gt;解答行为&lt;/span&gt;" style="ellipse;whiteSpace=wrap;html=1;fontSize=17;fillColor=#fad7ac;strokeColor=#b46504;" parent="1" vertex="1">
          <mxGeometry x="48" y="330" width="120" height="80" as="geometry" />
        </mxCell>
        <mxCell id="sLZciuPTcf9tt2QzFGqU-11" value="&lt;span style=&quot;font-size: 18px;&quot;&gt;&lt;b&gt;快速猜测&lt;/b&gt;&lt;/span&gt;" style="ellipse;whiteSpace=wrap;html=1;fontSize=17;fillColor=#fad7ac;strokeColor=#b46504;" parent="1" vertex="1">
          <mxGeometry x="441" y="330" width="120" height="80" as="geometry" />
        </mxCell>
        <mxCell id="sLZciuPTcf9tt2QzFGqU-12" style="edgeStyle=orthogonalEdgeStyle;rounded=0;orthogonalLoop=1;jettySize=auto;html=1;entryX=0.5;entryY=0;entryDx=0;entryDy=0;strokeWidth=2;fontSize=20;" parent="1" source="sLZciuPTcf9tt2QzFGqU-13" target="sLZciuPTcf9tt2QzFGqU-16" edge="1">
          <mxGeometry relative="1" as="geometry" />
        </mxCell>
        <mxCell id="sLZciuPTcf9tt2QzFGqU-13" value="&lt;span style=&quot;font-size: 18px; font-weight: 700;&quot;&gt;HO-DINA&lt;/span&gt;" style="rounded=0;whiteSpace=wrap;html=1;strokeWidth=1;fontSize=20;" parent="1" vertex="1">
          <mxGeometry x="-22" y="450" width="120" height="60" as="geometry" />
        </mxCell>
        <mxCell id="sLZciuPTcf9tt2QzFGqU-14" style="edgeStyle=orthogonalEdgeStyle;rounded=0;orthogonalLoop=1;jettySize=auto;html=1;strokeWidth=2;fontSize=20;" parent="1" source="sLZciuPTcf9tt2QzFGqU-15" target="sLZciuPTcf9tt2QzFGqU-17" edge="1">
          <mxGeometry relative="1" as="geometry" />
        </mxCell>
        <mxCell id="sLZciuPTcf9tt2QzFGqU-15" value="&lt;span style=&quot;font-size: 18px; font-weight: 700;&quot;&gt;LRTM&lt;/span&gt;" style="rounded=0;whiteSpace=wrap;html=1;strokeWidth=1;fontSize=20;fillColor=#f8cecc;strokeColor=#b85450;" parent="1" vertex="1">
          <mxGeometry x="118" y="450" width="120" height="60" as="geometry" />
        </mxCell>
        <mxCell id="sLZciuPTcf9tt2QzFGqU-16" value="&lt;span style=&quot;font-weight: 700;&quot;&gt;RA&lt;/span&gt;" style="rounded=0;whiteSpace=wrap;html=1;strokeWidth=1;fontSize=20;fillColor=#b1ddf0;strokeColor=#10739e;" parent="1" vertex="1">
          <mxGeometry x="-22" y="540" width="120" height="60" as="geometry" />
        </mxCell>
        <mxCell id="sLZciuPTcf9tt2QzFGqU-17" value="&lt;span style=&quot;font-weight: 700;&quot;&gt;RT&lt;/span&gt;" style="rounded=0;whiteSpace=wrap;html=1;strokeWidth=1;fontSize=20;fillColor=#f8cecc;strokeColor=#b85450;" parent="1" vertex="1">
          <mxGeometry x="118" y="540" width="120" height="60" as="geometry" />
        </mxCell>
        <mxCell id="sLZciuPTcf9tt2QzFGqU-18" value="" style="rounded=0;whiteSpace=wrap;html=1;strokeWidth=4;fontSize=20;dashed=1;fillColor=#f9f7ed;strokeColor=#36393d;" parent="1" vertex="1">
          <mxGeometry x="350" y="430" width="310" height="200" as="geometry" />
        </mxCell>
        <mxCell id="sLZciuPTcf9tt2QzFGqU-19" style="edgeStyle=orthogonalEdgeStyle;rounded=0;orthogonalLoop=1;jettySize=auto;html=1;entryX=0.5;entryY=0;entryDx=0;entryDy=0;strokeWidth=2;fontSize=20;" parent="1" target="sLZciuPTcf9tt2QzFGqU-18" edge="1">
          <mxGeometry relative="1" as="geometry">
            <mxPoint x="505" y="410" as="sourcePoint" />
          </mxGeometry>
        </mxCell>
        <mxCell id="sLZciuPTcf9tt2QzFGqU-20" style="edgeStyle=orthogonalEdgeStyle;rounded=0;orthogonalLoop=1;jettySize=auto;html=1;entryX=0.5;entryY=0;entryDx=0;entryDy=0;strokeWidth=2;fontSize=20;" parent="1" source="sLZciuPTcf9tt2QzFGqU-21" target="sLZciuPTcf9tt2QzFGqU-24" edge="1">
          <mxGeometry relative="1" as="geometry" />
        </mxCell>
        <mxCell id="sLZciuPTcf9tt2QzFGqU-21" value="&lt;span style=&quot;font-size: 18px;&quot;&gt;$$d_c$$&lt;/span&gt;" style="rounded=0;whiteSpace=wrap;html=1;strokeWidth=1;fontSize=20;fontStyle=1;fillColor=#b1ddf0;strokeColor=#10739e;" parent="1" vertex="1">
          <mxGeometry x="375" y="450" width="120" height="60" as="geometry" />
        </mxCell>
        <mxCell id="sLZciuPTcf9tt2QzFGqU-22" style="edgeStyle=orthogonalEdgeStyle;rounded=0;orthogonalLoop=1;jettySize=auto;html=1;strokeWidth=2;fontSize=20;" parent="1" source="sLZciuPTcf9tt2QzFGqU-23" target="sLZciuPTcf9tt2QzFGqU-25" edge="1">
          <mxGeometry relative="1" as="geometry" />
        </mxCell>
        <mxCell id="sLZciuPTcf9tt2QzFGqU-23" value="&lt;span style=&quot;font-size: 17px;&quot;&gt;$$logN(d_c, \sigma_c^2)$$&lt;/span&gt;" style="rounded=0;whiteSpace=wrap;html=1;strokeWidth=1;fontSize=20;fontStyle=1;fillColor=#fad9d5;strokeColor=#ae4132;" parent="1" vertex="1">
          <mxGeometry x="515" y="450" width="120" height="60" as="geometry" />
        </mxCell>
        <mxCell id="sLZciuPTcf9tt2QzFGqU-24" value="&lt;span style=&quot;font-weight: 700;&quot;&gt;RA&lt;/span&gt;" style="rounded=0;whiteSpace=wrap;html=1;strokeWidth=1;fontSize=20;fillColor=#b1ddf0;strokeColor=#10739e;" parent="1" vertex="1">
          <mxGeometry x="375" y="540" width="120" height="60" as="geometry" />
        </mxCell>
        <mxCell id="sLZciuPTcf9tt2QzFGqU-25" value="&lt;span style=&quot;font-weight: 700;&quot;&gt;RT&lt;/span&gt;" style="rounded=0;whiteSpace=wrap;html=1;strokeWidth=1;fontSize=20;fillColor=#fad9d5;strokeColor=#ae4132;" parent="1" vertex="1">
          <mxGeometry x="515" y="540" width="120" height="60" as="geometry" />
        </mxCell>
        <mxCell id="sLZciuPTcf9tt2QzFGqU-26" value="&lt;span style=&quot;font-size: 18px; font-weight: 700;&quot;&gt;HO-DINA&lt;/span&gt;" style="rounded=0;whiteSpace=wrap;html=1;strokeWidth=1;fontSize=20;fillColor=#b1ddf0;strokeColor=#10739e;" parent="1" vertex="1">
          <mxGeometry x="-22" y="450" width="120" height="60" as="geometry" />
        </mxCell>
      </root>
    </mxGraphModel>
  </diagram>
  <diagram id="sIzKJNkeOvSLEkxcWo6a" name="第 26 页">
    <mxGraphModel dx="2261" dy="764" grid="1" gridSize="10" guides="1" tooltips="1" connect="1" arrows="1" fold="1" page="1" pageScale="1" pageWidth="827" pageHeight="1169" math="1" shadow="0">
      <root>
        <mxCell id="0" />
        <mxCell id="1" parent="0" />
        <mxCell id="_wRaVaE6zmH0buTgoc9T-5" value="" style="edgeStyle=orthogonalEdgeStyle;rounded=0;orthogonalLoop=1;jettySize=auto;html=1;fontSize=20;strokeWidth=3;" parent="1" source="_wRaVaE6zmH0buTgoc9T-6" target="_wRaVaE6zmH0buTgoc9T-8" edge="1">
          <mxGeometry relative="1" as="geometry" />
        </mxCell>
        <mxCell id="_wRaVaE6zmH0buTgoc9T-6" value="$$logit(P(S_{ni}) )=b_{0i}^s+&lt;br&gt;\upsilon_n^s$$" style="ellipse;whiteSpace=wrap;html=1;fontSize=17;align=center;fillColor=#bac8d3;strokeColor=#23445d;fontStyle=1" parent="1" vertex="1">
          <mxGeometry x="-80" y="100" width="221" height="80" as="geometry" />
        </mxCell>
        <mxCell id="_wRaVaE6zmH0buTgoc9T-7" style="edgeStyle=orthogonalEdgeStyle;rounded=0;orthogonalLoop=1;jettySize=auto;html=1;fontSize=25;strokeColor=#000000;strokeWidth=3;entryX=0.5;entryY=0;entryDx=0;entryDy=0;fontStyle=1" parent="1" source="_wRaVaE6zmH0buTgoc9T-6" target="_wRaVaE6zmH0buTgoc9T-11" edge="1">
          <mxGeometry relative="1" as="geometry">
            <mxPoint x="310.5" y="200" as="targetPoint" />
            <mxPoint x="179" y="60" as="sourcePoint" />
          </mxGeometry>
        </mxCell>
        <mxCell id="_wRaVaE6zmH0buTgoc9T-8" value="&lt;span style=&quot;font-size: 18px;&quot;&gt;题目跳过&lt;/span&gt;" style="whiteSpace=wrap;html=1;fontSize=19;fillColor=#f9f7ed;strokeColor=#36393d;fontStyle=1;" parent="1" vertex="1">
          <mxGeometry x="-230" y="440" width="120" height="60" as="geometry" />
        </mxCell>
        <mxCell id="_wRaVaE6zmH0buTgoc9T-11" value="&lt;span style=&quot;font-size: 18px; font-weight: 700;&quot;&gt;解答行为&lt;/span&gt;" style="ellipse;whiteSpace=wrap;html=1;fontSize=17;fillColor=#fad7ac;strokeColor=#b46504;" parent="1" vertex="1">
          <mxGeometry x="171" y="270" width="120" height="80" as="geometry" />
        </mxCell>
        <mxCell id="_wRaVaE6zmH0buTgoc9T-18" value="" style="rounded=0;whiteSpace=wrap;html=1;strokeWidth=4;fontSize=20;dashed=1;fillColor=#f9f7ed;strokeColor=#36393d;" parent="1" vertex="1">
          <mxGeometry x="80" y="370" width="310" height="200" as="geometry" />
        </mxCell>
        <mxCell id="_wRaVaE6zmH0buTgoc9T-19" style="edgeStyle=orthogonalEdgeStyle;rounded=0;orthogonalLoop=1;jettySize=auto;html=1;entryX=0.5;entryY=0;entryDx=0;entryDy=0;strokeWidth=2;fontSize=20;" parent="1" target="_wRaVaE6zmH0buTgoc9T-18" edge="1">
          <mxGeometry relative="1" as="geometry">
            <mxPoint x="235" y="350" as="sourcePoint" />
          </mxGeometry>
        </mxCell>
        <mxCell id="_wRaVaE6zmH0buTgoc9T-20" style="edgeStyle=orthogonalEdgeStyle;rounded=0;orthogonalLoop=1;jettySize=auto;html=1;entryX=0.5;entryY=0;entryDx=0;entryDy=0;strokeWidth=2;fontSize=20;" parent="1" source="_wRaVaE6zmH0buTgoc9T-21" target="_wRaVaE6zmH0buTgoc9T-24" edge="1">
          <mxGeometry relative="1" as="geometry" />
        </mxCell>
        <mxCell id="_wRaVaE6zmH0buTgoc9T-21" value="&lt;span style=&quot;font-size: 18px;&quot;&gt;$$d_c$$&lt;/span&gt;" style="rounded=0;whiteSpace=wrap;html=1;strokeWidth=1;fontSize=20;fontStyle=1;fillColor=#b1ddf0;strokeColor=#10739e;" parent="1" vertex="1">
          <mxGeometry x="105" y="390" width="120" height="60" as="geometry" />
        </mxCell>
        <mxCell id="_wRaVaE6zmH0buTgoc9T-22" style="edgeStyle=orthogonalEdgeStyle;rounded=0;orthogonalLoop=1;jettySize=auto;html=1;strokeWidth=2;fontSize=20;" parent="1" source="_wRaVaE6zmH0buTgoc9T-23" target="_wRaVaE6zmH0buTgoc9T-25" edge="1">
          <mxGeometry relative="1" as="geometry" />
        </mxCell>
        <mxCell id="_wRaVaE6zmH0buTgoc9T-23" value="&lt;span style=&quot;font-size: 17px;&quot;&gt;$$logN(d_c, \sigma_c^2)$$&lt;/span&gt;" style="rounded=0;whiteSpace=wrap;html=1;strokeWidth=1;fontSize=20;fontStyle=1;fillColor=#fad9d5;strokeColor=#ae4132;" parent="1" vertex="1">
          <mxGeometry x="245" y="390" width="120" height="60" as="geometry" />
        </mxCell>
        <mxCell id="_wRaVaE6zmH0buTgoc9T-24" value="&lt;span style=&quot;font-weight: 700;&quot;&gt;RA&lt;/span&gt;" style="rounded=0;whiteSpace=wrap;html=1;strokeWidth=1;fontSize=20;fillColor=#b1ddf0;strokeColor=#10739e;" parent="1" vertex="1">
          <mxGeometry x="105" y="480" width="120" height="60" as="geometry" />
        </mxCell>
        <mxCell id="_wRaVaE6zmH0buTgoc9T-25" value="&lt;span style=&quot;font-weight: 700;&quot;&gt;RT&lt;/span&gt;" style="rounded=0;whiteSpace=wrap;html=1;strokeWidth=1;fontSize=20;fillColor=#fad9d5;strokeColor=#ae4132;" parent="1" vertex="1">
          <mxGeometry x="245" y="480" width="120" height="60" as="geometry" />
        </mxCell>
      </root>
    </mxGraphModel>
  </diagram>
  <diagram id="r84WitybGpBUvYlig57H" name="第 27 页">
    <mxGraphModel dx="2261" dy="764" grid="1" gridSize="10" guides="1" tooltips="1" connect="1" arrows="1" fold="1" page="1" pageScale="1" pageWidth="827" pageHeight="1169" math="1" shadow="0">
      <root>
        <mxCell id="0" />
        <mxCell id="1" parent="0" />
        <mxCell id="AWO9ilrpGjL-2HKrLb-L-14" style="edgeStyle=none;rounded=1;orthogonalLoop=1;jettySize=auto;html=1;entryX=0.75;entryY=1;entryDx=0;entryDy=0;strokeWidth=3;fontFamily=Helvetica;fontSize=20;" parent="1" source="AWO9ilrpGjL-2HKrLb-L-1" target="AWO9ilrpGjL-2HKrLb-L-5" edge="1">
          <mxGeometry relative="1" as="geometry" />
        </mxCell>
        <mxCell id="AWO9ilrpGjL-2HKrLb-L-15" style="edgeStyle=none;rounded=1;orthogonalLoop=1;jettySize=auto;html=1;entryX=0.25;entryY=1;entryDx=0;entryDy=0;strokeWidth=3;fontFamily=Helvetica;fontSize=20;" parent="1" source="AWO9ilrpGjL-2HKrLb-L-1" target="AWO9ilrpGjL-2HKrLb-L-10" edge="1">
          <mxGeometry relative="1" as="geometry" />
        </mxCell>
        <mxCell id="AWO9ilrpGjL-2HKrLb-L-1" value="JRT-DINA&lt;br&gt;(Zhan et al., 2018)" style="rounded=1;whiteSpace=wrap;html=1;strokeWidth=4;fontSize=20;strokeColor=#36393d;fontFamily=Helvetica;fillColor=#eeeeee;" parent="1" vertex="1">
          <mxGeometry x="319" y="690" width="190" height="90" as="geometry" />
        </mxCell>
        <mxCell id="AWO9ilrpGjL-2HKrLb-L-12" style="edgeStyle=none;rounded=0;orthogonalLoop=1;jettySize=auto;html=1;strokeWidth=2;fontFamily=Helvetica;fontSize=20;" parent="1" source="AWO9ilrpGjL-2HKrLb-L-2" target="AWO9ilrpGjL-2HKrLb-L-5" edge="1">
          <mxGeometry relative="1" as="geometry" />
        </mxCell>
        <mxCell id="AWO9ilrpGjL-2HKrLb-L-2" value="RT-DINA-RG&lt;br&gt;(Hsu, 2020)" style="rounded=1;whiteSpace=wrap;html=1;strokeWidth=4;fontSize=20;strokeColor=#36393d;fontFamily=Helvetica;fillColor=#eeeeee;" parent="1" vertex="1">
          <mxGeometry x="-140" y="690" width="190" height="90" as="geometry" />
        </mxCell>
        <mxCell id="AWO9ilrpGjL-2HKrLb-L-13" style="edgeStyle=none;rounded=1;orthogonalLoop=1;jettySize=auto;html=1;entryX=0.5;entryY=1;entryDx=0;entryDy=0;strokeWidth=3;fontFamily=Helvetica;fontSize=20;" parent="1" source="AWO9ilrpGjL-2HKrLb-L-3" target="AWO9ilrpGjL-2HKrLb-L-5" edge="1">
          <mxGeometry relative="1" as="geometry" />
        </mxCell>
        <mxCell id="AWO9ilrpGjL-2HKrLb-L-3" value="多维IRT处理RG&lt;br&gt;(e.g., Liu et al., 2020)" style="rounded=1;whiteSpace=wrap;html=1;strokeWidth=4;fontSize=20;strokeColor=#36393d;fontFamily=Helvetica;fillColor=#eeeeee;" parent="1" vertex="1">
          <mxGeometry x="85" y="690" width="200" height="90" as="geometry" />
        </mxCell>
        <mxCell id="AWO9ilrpGjL-2HKrLb-L-17" style="edgeStyle=none;rounded=0;orthogonalLoop=1;jettySize=auto;html=1;strokeWidth=2;fontFamily=Helvetica;fontSize=20;" parent="1" source="AWO9ilrpGjL-2HKrLb-L-5" target="AWO9ilrpGjL-2HKrLb-L-11" edge="1">
          <mxGeometry relative="1" as="geometry">
            <mxPoint x="380" y="380" as="targetPoint" />
          </mxGeometry>
        </mxCell>
        <mxCell id="AWO9ilrpGjL-2HKrLb-L-5" value="DINA-RGTM" style="rounded=1;whiteSpace=wrap;html=1;strokeWidth=4;fontSize=20;strokeColor=#36393d;fontFamily=Helvetica;fillColor=#f9f7ed;" parent="1" vertex="1">
          <mxGeometry x="90" y="470" width="190" height="90" as="geometry" />
        </mxCell>
        <mxCell id="AWO9ilrpGjL-2HKrLb-L-16" style="edgeStyle=none;rounded=1;orthogonalLoop=1;jettySize=auto;html=1;entryX=0.75;entryY=1;entryDx=0;entryDy=0;strokeWidth=3;fontFamily=Helvetica;fontSize=20;" parent="1" source="AWO9ilrpGjL-2HKrLb-L-9" target="AWO9ilrpGjL-2HKrLb-L-10" edge="1">
          <mxGeometry relative="1" as="geometry" />
        </mxCell>
        <mxCell id="AWO9ilrpGjL-2HKrLb-L-9" value="&lt;font style=&quot;font-size: 20px;&quot;&gt;多维IRT处理IS&lt;br style=&quot;font-size: 20px;&quot;&gt;(e.g.,&lt;span style=&quot;font-size: 20px; line-height: 150%; background-image: initial; background-position: initial; background-size: initial; background-repeat: initial; background-attachment: initial; background-origin: initial; background-clip: initial;&quot; lang=&quot;EN-US&quot;&gt;Holman &amp;amp; Glas,2005&lt;/span&gt;)&lt;/font&gt;" style="rounded=1;whiteSpace=wrap;html=1;strokeWidth=4;fontSize=20;strokeColor=#36393d;fontFamily=Helvetica;fillColor=#eeeeee;" parent="1" vertex="1">
          <mxGeometry x="550" y="690" width="240" height="90" as="geometry" />
        </mxCell>
        <mxCell id="AWO9ilrpGjL-2HKrLb-L-18" style="edgeStyle=none;rounded=0;orthogonalLoop=1;jettySize=auto;html=1;entryX=0.75;entryY=1;entryDx=0;entryDy=0;strokeWidth=2;fontFamily=Helvetica;fontSize=20;" parent="1" source="AWO9ilrpGjL-2HKrLb-L-10" target="AWO9ilrpGjL-2HKrLb-L-11" edge="1">
          <mxGeometry relative="1" as="geometry" />
        </mxCell>
        <mxCell id="AWO9ilrpGjL-2HKrLb-L-10" value="DINA-SM" style="rounded=1;whiteSpace=wrap;html=1;strokeWidth=4;fontSize=20;strokeColor=#36393d;fontFamily=Helvetica;fillColor=#f9f7ed;" parent="1" vertex="1">
          <mxGeometry x="440" y="470" width="190" height="90" as="geometry" />
        </mxCell>
        <mxCell id="AWO9ilrpGjL-2HKrLb-L-11" value="DINA-S-RGTM" style="rounded=1;whiteSpace=wrap;html=1;strokeWidth=4;fontSize=20;strokeColor=#36393d;fontFamily=Helvetica;fillColor=#ffcc99;" parent="1" vertex="1">
          <mxGeometry x="270" y="280" width="190" height="90" as="geometry" />
        </mxCell>
        <mxCell id="AWO9ilrpGjL-2HKrLb-L-19" style="edgeStyle=none;rounded=0;orthogonalLoop=1;jettySize=auto;html=1;strokeWidth=2;fontFamily=Helvetica;fontSize=20;" parent="1" edge="1">
          <mxGeometry relative="1" as="geometry">
            <mxPoint x="225.5815789473683" y="470" as="sourcePoint" />
            <mxPoint x="320.31842105263166" y="370" as="targetPoint" />
          </mxGeometry>
        </mxCell>
        <mxCell id="AWO9ilrpGjL-2HKrLb-L-20" style="edgeStyle=none;rounded=0;orthogonalLoop=1;jettySize=auto;html=1;entryX=0.75;entryY=1;entryDx=0;entryDy=0;strokeWidth=2;fontFamily=Helvetica;fontSize=20;" parent="1" edge="1">
          <mxGeometry relative="1" as="geometry">
            <mxPoint x="494.93275862068975" y="470" as="sourcePoint" />
            <mxPoint x="410.45" y="370" as="targetPoint" />
          </mxGeometry>
        </mxCell>
        <mxCell id="AWO9ilrpGjL-2HKrLb-L-21" style="edgeStyle=none;rounded=0;orthogonalLoop=1;jettySize=auto;html=1;strokeWidth=2;fontFamily=Helvetica;fontSize=20;" parent="1" edge="1">
          <mxGeometry relative="1" as="geometry">
            <mxPoint x="-0.0045454545454957085" y="690" as="sourcePoint" />
            <mxPoint x="135.90454545454548" y="560" as="targetPoint" />
          </mxGeometry>
        </mxCell>
        <mxCell id="AWO9ilrpGjL-2HKrLb-L-22" style="edgeStyle=none;rounded=1;orthogonalLoop=1;jettySize=auto;html=1;strokeWidth=3;fontFamily=Helvetica;fontSize=20;" parent="1" edge="1">
          <mxGeometry relative="1" as="geometry">
            <mxPoint x="225.58157894736814" y="470" as="sourcePoint" />
            <mxPoint x="320.3184210526315" y="370" as="targetPoint" />
          </mxGeometry>
        </mxCell>
        <mxCell id="AWO9ilrpGjL-2HKrLb-L-23" style="edgeStyle=none;rounded=1;orthogonalLoop=1;jettySize=auto;html=1;entryX=0.75;entryY=1;entryDx=0;entryDy=0;strokeWidth=3;fontFamily=Helvetica;fontSize=20;" parent="1" edge="1">
          <mxGeometry relative="1" as="geometry">
            <mxPoint x="494.9327586206896" y="470" as="sourcePoint" />
            <mxPoint x="410.4499999999998" y="370" as="targetPoint" />
          </mxGeometry>
        </mxCell>
        <mxCell id="AWO9ilrpGjL-2HKrLb-L-24" style="edgeStyle=none;rounded=1;orthogonalLoop=1;jettySize=auto;html=1;strokeWidth=3;fontFamily=Helvetica;fontSize=20;" parent="1" edge="1">
          <mxGeometry relative="1" as="geometry">
            <mxPoint x="-0.004545454545677785" y="690" as="sourcePoint" />
            <mxPoint x="135.9045454545453" y="560" as="targetPoint" />
          </mxGeometry>
        </mxCell>
      </root>
    </mxGraphModel>
  </diagram>
</mxfile>
